<?xml version="1.0" standalone="no"?>
<!DOCTYPE svg PUBLIC "-//W3C//DTD SVG 20010904//EN"
 "http://www.w3.org/TR/2001/REC-SVG-20010904/DTD/svg10.dtd">
<svg version="1.0" xmlns="http://www.w3.org/2000/svg"
 width="1280.000000pt" height="1280.000000pt" viewBox="0 0 1280.000000 1280.000000"
 preserveAspectRatio="xMidYMid meet">

<g transform="translate(0.000000,1280.000000) scale(0.100000,-0.100000)"
fill="#000000" stroke="none">
<path d="M6335 11866 c-33 -68 -62 -122 -64 -121 -2 2 -20 -15 -40 -38 -40
-47 -131 -137 -131 -130 0 2 -12 -4 -27 -15 -31 -22 -152 -83 -198 -100 -55
-21 -178 -49 -350 -82 -194 -37 -275 -56 -288 -69 -5 -5 -15 -7 -21 -5 -7 3
-28 -2 -47 -10 l-34 -16 32 2 c17 1 29 6 27 10 -7 11 18 10 36 -2 12 -7 12
-12 2 -22 -9 -9 -12 -9 -12 2 0 10 -4 9 -18 -3 -10 -10 -23 -17 -28 -17 -6 0
-21 -17 -34 -38 -17 -27 -30 -38 -42 -34 -10 2 -18 -1 -18 -7 0 -6 -5 -11 -12
-11 -6 0 -4 8 6 19 10 10 13 22 8 25 -7 4 -32 -32 -37 -54 -4 -19 -28 -50 -35
-45 -22 14 -88 -92 -75 -122 5 -10 7 -23 6 -29 -1 -7 5 -14 14 -18 14 -5 19 4
16 31 -1 6 4 15 10 19 7 4 9 3 6 -4 -4 -5 -3 -21 2 -34 6 -12 11 -17 12 -10 1
6 2 16 3 21 0 5 5 13 10 18 5 5 6 3 2 -4 -4 -7 -3 -13 3 -13 7 0 7 -8 2 -22
-5 -13 -14 -22 -20 -20 -6 1 -11 -4 -11 -12 0 -8 -5 -18 -12 -22 -6 -4 -8 -3
-5 3 7 11 -28 25 -37 15 -10 -10 -6 -52 6 -72 9 -15 10 -22 1 -31 -6 -6 -9
-17 -6 -25 6 -16 33 -7 33 13 0 7 6 13 13 11 6 -1 22 3 35 10 39 22 24 6 -32
-32 -73 -50 -196 -184 -196 -213 0 -7 -3 -13 -7 -13 -5 0 -13 -10 -19 -23 -6
-12 -19 -37 -29 -55 -9 -18 -17 -49 -17 -68 0 -19 -5 -37 -10 -40 -6 -4 -7 2
-3 17 7 21 6 22 -7 11 -13 -10 -24 -7 -66 22 -84 56 -141 71 -272 71 -203 -1
-357 -63 -670 -271 -186 -123 -337 -203 -432 -229 -63 -17 -66 -17 -87 1 -24
21 -28 41 -6 41 8 0 15 -7 15 -16 0 -13 2 -14 9 -2 5 8 7 20 4 28 -3 8 0 13 8
11 8 -2 15 4 15 12 4 33 17 58 33 63 10 2 20 14 24 26 3 11 1 19 -4 15 -5 -3
-9 4 -9 15 0 13 8 23 24 27 27 6 44 44 20 44 -8 0 -14 7 -14 15 0 8 5 15 10
15 6 0 10 -5 10 -11 0 -5 5 -7 10 -4 6 4 8 11 5 16 -3 5 1 6 9 3 10 -4 17 -1
18 7 0 8 2 19 3 24 2 6 3 15 4 22 1 8 15 11 39 9 30 -2 42 3 65 27 15 16 30
40 33 53 6 21 15 28 36 26 3 -1 9 6 12 14 5 12 1 14 -15 9 -25 -8 -43 13 -27
32 8 10 6 13 -6 13 -11 0 -14 -5 -10 -12 5 -8 2 -9 -10 -5 -23 9 -70 -22 -57
-37 6 -6 6 -17 2 -24 -6 -10 -11 -9 -22 4 -12 15 -12 17 0 9 10 -6 12 -4 6 5
-6 10 -12 8 -25 -8 -10 -12 -20 -19 -23 -16 -2 3 -32 -11 -66 -31 -156 -91
-281 -133 -426 -142 -92 -6 -118 -15 -109 -37 3 -7 -2 -19 -11 -26 -8 -7 -15
-18 -15 -24 0 -6 5 -4 10 4 8 12 10 10 10 -8 0 -13 -4 -20 -10 -17 -6 4 -7 -1
-3 -10 3 -10 2 -20 -3 -24 -14 -9 -34 -49 -34 -66 0 -8 -4 -15 -8 -15 -5 0 -9
-7 -9 -15 0 -8 4 -12 9 -9 4 3 7 -10 6 -30 -2 -27 -6 -32 -16 -23 -11 8 -12 5
-7 -16 5 -17 3 -27 -4 -27 -6 0 -11 -12 -11 -26 0 -14 -4 -23 -10 -19 -5 3
-10 1 -10 -5 0 -20 52 -32 77 -19 17 9 20 15 11 21 -10 6 -10 8 -1 8 20 0 31
-31 44 -122 10 -72 9 -101 -4 -180 -27 -158 -81 -264 -287 -558 -295 -423
-326 -707 -100 -930 l66 -65 -96 -1 c-172 -2 -300 -68 -404 -207 -108 -145
-145 -246 -211 -577 -73 -362 -115 -461 -260 -605 -49 -49 -106 -98 -125 -108
l-35 -18 28 21 c27 21 27 24 22 98 -4 43 -8 84 -10 92 -3 8 -7 37 -10 65 -4
27 -12 56 -18 64 -7 8 -7 12 -2 9 6 -4 11 2 11 13 0 16 -2 17 -14 5 -8 -7 -15
-25 -15 -39 -1 -14 -5 -23 -10 -20 -4 2 -7 -5 -7 -16 0 -12 -4 -21 -9 -21 -4
0 -24 -24 -43 -52 -20 -29 -50 -70 -68 -91 -35 -40 -153 -131 -210 -163 -19
-10 -43 -25 -52 -33 -10 -8 -18 -11 -18 -6 0 4 -6 3 -12 -2 -7 -6 -26 -13 -41
-17 -32 -8 -31 -26 1 -41 30 -14 28 -20 -16 -37 l-37 -15 76 -35 c153 -71 270
-164 354 -283 93 -131 126 -228 195 -574 72 -358 105 -456 206 -608 88 -133
201 -216 335 -248 104 -24 125 -21 178 27 25 23 47 45 49 48 1 3 -35 4 -81 2
-157 -6 -284 45 -390 158 -72 75 -142 184 -131 201 16 26 12 78 -7 95 -10 9
-19 24 -19 32 0 9 -3 13 -6 9 -14 -13 -52 52 -67 113 -9 36 -37 166 -62 290
-24 124 -60 270 -79 325 -19 55 -32 104 -28 109 10 17 2 90 -11 98 -9 6 -7 11
6 19 9 5 17 19 17 29 0 11 4 20 9 20 5 0 17 3 27 7 12 4 15 3 10 -6 -5 -7 -2
-10 6 -9 9 2 13 -8 13 -31 0 -19 6 -36 13 -39 6 -2 12 -10 12 -17 0 -8 9 -17
20 -20 11 -4 29 -23 39 -43 l19 -37 13 28 c7 15 16 27 21 27 5 0 2 -10 -6 -22
-9 -12 -16 -27 -16 -33 0 -5 10 5 21 23 20 31 20 34 5 51 -9 10 -16 22 -15 27
4 24 -2 36 -16 30 -13 -5 -14 -2 -4 15 8 15 8 19 0 15 -7 -5 -11 10 -10 48 l2
55 47 -56 c94 -110 138 -228 206 -555 51 -248 79 -340 135 -448 114 -220 267
-324 479 -324 l96 -1 -67 -67 c-120 -119 -164 -250 -141 -413 25 -172 82 -289
281 -577 121 -175 170 -260 211 -364 33 -82 52 -204 31 -204 -6 0 -11 5 -11
10 0 6 -6 10 -14 8 -8 -2 -22 6 -30 17 l-15 20 -1 -20 c-1 -19 -2 -19 -9 -1
-4 10 -21 24 -39 32 -27 11 -34 11 -47 -3 -18 -17 -20 -17 -29 14 -4 12 -2 24
5 29 7 4 9 3 5 -4 -3 -6 -2 -13 3 -16 5 -4 8 1 7 11 -2 9 -14 18 -27 20 -13 2
-25 8 -27 13 -2 6 -15 10 -28 10 -13 0 -24 5 -24 10 0 6 -7 10 -15 10 -8 0
-15 -5 -15 -12 0 -6 -7 -3 -15 8 -14 18 -14 18 -16 -11 -1 -20 -3 -24 -6 -11
-4 15 -7 16 -14 5 -5 -9 -7 1 -5 29 2 23 1 42 -3 43 -3 0 -15 2 -26 4 -10 2
-25 -1 -31 -6 -9 -7 -16 -5 -23 9 -6 11 -7 23 -3 27 4 5 2 5 -4 2 -6 -4 -19 9
-30 28 -10 19 -22 35 -25 35 -4 0 -10 7 -13 16 -3 8 -2 12 4 9 21 -13 31 7 11
22 -12 8 -25 12 -30 9 -15 -10 -115 149 -105 166 4 6 3 9 -2 5 -5 -3 -14 6
-21 19 -13 28 -6 32 13 7 12 -17 13 -17 14 -1 0 9 -9 20 -20 23 -11 4 -18 11
-15 16 3 5 0 7 -7 4 -14 -5 -54 77 -88 184 -23 75 -23 74 -10 66 6 -4 19 4 30
17 l19 23 1 -24 c0 -19 3 -22 11 -14 14 14 -8 48 -31 48 -8 0 -14 5 -13 11 1
6 -9 22 -22 34 l-25 23 0 -21 c0 -15 5 -20 15 -16 10 4 15 0 15 -15 0 -23 -15
-28 -24 -8 -3 6 -4 -24 -2 -68 6 -122 60 -269 163 -445 14 -25 77 -119 138
-210 62 -91 125 -187 141 -215 15 -27 33 -53 39 -57 5 -4 7 -8 2 -8 -4 0 3
-21 16 -47 29 -57 52 -125 71 -213 l15 -65 -4 80 c-2 44 -7 98 -12 120 -9 40
-9 40 20 41 17 1 36 10 44 20 12 16 13 16 13 -10 0 -18 -4 -25 -12 -20 -6 4
-8 3 -5 -3 4 -6 18 -8 33 -5 16 3 30 -1 36 -9 8 -11 11 -11 15 -1 4 10 8 10
18 2 10 -9 20 -7 39 5 16 11 26 13 26 6 0 -6 -4 -11 -9 -11 -4 0 -6 -11 -3
-25 2 -14 -7 -54 -22 -91 -15 -37 -24 -69 -21 -73 4 -3 34 5 68 18 235 89 418
81 642 -27 127 -62 242 -135 242 -155 0 -10 -11 -15 -34 -16 -62 -3 -68 -4
-75 -15 -4 -6 -9 -4 -14 7 -3 9 -12 17 -20 17 -8 0 -14 5 -14 10 0 13 -37 13
-45 0 -4 -6 -10 -8 -15 -5 -5 3 -11 1 -15 -4 -4 -7 -15 -7 -31 -1 -14 6 -23 6
-20 1 3 -5 -1 -11 -9 -15 -8 -3 -15 -1 -15 4 0 12 -22 9 -31 -4 -4 -4 -18 0
-33 9 -14 10 -26 13 -26 9 0 -5 -5 -2 -10 6 -9 13 -11 13 -20 0 -6 -10 -10
-11 -10 -2 0 6 -7 12 -15 12 -8 0 -15 -6 -15 -12 0 -10 -2 -10 -9 0 -4 7 -24
15 -44 18 -29 3 -37 1 -37 -12 0 -11 -5 -14 -17 -10 -9 4 -19 2 -23 -4 -5 -8
-13 -6 -25 7 -12 11 -41 20 -79 24 -34 4 -72 9 -86 13 -14 3 -27 1 -32 -7 -6
-9 -10 -9 -16 0 -9 15 -66 37 -57 23 3 -6 3 -14 0 -20 -6 -10 -21 -1 -52 32
-13 13 -21 14 -36 6 -15 -7 -22 -7 -28 3 -6 10 -9 5 -10 -16 l-1 -30 -12 28
c-7 15 -15 24 -19 21 -4 -4 -7 -2 -7 5 0 7 -5 9 -10 6 -5 -3 -10 -1 -10 5 0 7
-6 8 -19 0 -12 -6 -22 -26 -26 -52 -4 -24 -21 -81 -38 -128 -16 -47 -31 -107
-32 -135 -1 -27 -6 -60 -10 -73 l-8 -23 54 22 c236 96 428 102 630 19 108 -45
183 -89 401 -236 213 -144 328 -207 453 -247 256 -83 451 -49 609 107 62 61
64 64 68 122 4 62 1 81 -9 49 -3 -11 -29 -40 -58 -65 -30 -25 -54 -51 -54 -59
-1 -8 -4 -12 -7 -9 -3 3 -38 -11 -77 -32 -66 -34 -92 -41 -208 -55 -79 -10
-336 51 -385 91 -10 9 -13 13 -6 9 6 -3 12 -2 12 3 0 5 12 14 27 21 21 10 28
9 34 -1 7 -10 9 -10 9 0 0 6 6 12 14 12 8 0 21 7 29 15 9 8 27 13 46 10 17 -2
31 1 31 6 0 5 7 9 15 9 8 0 15 5 15 10 0 6 6 10 13 10 6 0 25 7 42 16 21 11
31 12 33 4 3 -7 14 -3 28 11 13 12 27 19 30 16 4 -4 13 1 20 11 10 12 13 13
14 3 0 -7 6 -11 15 -7 8 3 15 0 15 -7 0 -8 3 -8 8 -2 4 6 13 10 20 9 6 -1 17
-2 23 -3 6 0 9 -10 6 -20 -3 -13 0 -18 11 -17 9 2 18 9 20 17 3 11 1 11 -7 -1
-7 -9 -11 -10 -11 -3 0 23 20 24 29 1 6 -14 10 -17 11 -8 1 10 4 9 10 -5 7
-16 9 -14 9 15 1 29 -4 39 -28 53 -25 14 -32 15 -43 4 -15 -16 -39 -11 -32 6
3 8 -13 16 -41 23 -25 6 -45 7 -45 3 0 -4 -8 -5 -17 -3 -10 2 -37 5 -60 7 -34
4 -40 1 -36 -12 3 -10 -3 -7 -16 8 -12 13 -21 20 -21 15 0 -4 -5 -3 -12 4 -18
18 -103 15 -122 -4 -15 -14 -16 -14 -16 1 0 10 -5 15 -14 12 -7 -3 -25 1 -40
8 -14 8 -26 11 -26 8 0 -3 -6 0 -13 6 -8 6 -17 8 -20 4 -4 -3 -7 0 -7 8 0 11
-2 11 -10 -1 -9 -13 -10 -13 -10 0 0 13 -1 13 -10 0 -7 -11 -10 -11 -10 -2 0
7 -4 10 -10 7 -5 -3 -10 -1 -10 4 0 6 -6 11 -14 11 -8 0 -16 7 -20 15 -7 19
-45 19 -52 0 -4 -8 -11 -15 -16 -15 -6 0 -8 6 -5 13 3 9 -5 12 -29 12 -19 -1
-34 2 -34 6 0 12 -62 -2 -81 -17 -13 -12 -21 -10 -52 13 -42 32 -44 42 -17 73
11 13 20 27 20 32 0 5 5 6 10 3 6 -4 8 -11 5 -16 -4 -5 4 -7 17 -5 13 2 22 9
20 15 -3 15 21 14 37 -1 14 -15 53 -18 62 -6 8 11 89 17 89 7 0 -5 5 -9 11 -9
5 0 8 4 4 9 -3 5 0 13 6 16 5 4 8 13 5 21 -3 8 -1 14 4 14 6 0 10 -7 10 -15 0
-30 54 -38 72 -11 5 7 8 6 8 -4 1 -12 3 -11 11 3 14 23 52 16 138 -27 91 -46
209 -84 308 -98 151 -22 302 20 405 111 76 67 84 64 91 -33 7 -95 34 -176 80
-236 18 -24 36 -49 42 -56 13 -18 -15 -38 -83 -59 -28 -9 -56 -24 -62 -33 -6
-12 -9 -13 -10 -3 0 9 -8 11 -27 6 -50 -12 -54 -21 -48 -107 16 -202 85 -324
250 -437 154 -107 288 -151 685 -226 308 -58 453 -120 593 -254 77 -73 138
-159 188 -265 36 -77 59 -106 59 -75 0 21 80 171 123 232 106 148 276 261 467
311 36 9 72 20 80 23 8 3 27 7 43 9 92 12 438 88 515 113 303 99 481 274 513
505 6 43 7 102 4 130 l-7 51 54 -56 c65 -69 164 -134 238 -156 79 -24 242 -22
342 5 155 42 241 87 548 291 218 145 329 205 450 243 64 19 95 23 205 22 125
-1 135 -3 252 -43 142 -48 148 -49 133 -21 -17 32 -69 199 -81 263 -16 78 -6
225 21 312 36 114 112 254 259 473 76 114 154 236 173 272 85 158 136 355 124
476 -6 61 -43 200 -51 192 -2 -2 1 -34 7 -72 13 -81 1 -177 -38 -307 -40 -130
-164 -356 -187 -343 -7 4 -9 4 -5 -1 10 -11 -7 -41 -102 -180 -45 -66 -86
-119 -92 -117 -6 2 -8 -4 -5 -12 4 -9 3 -15 -1 -14 -4 1 -17 -3 -30 -10 -12
-7 -27 -10 -33 -7 -5 4 -18 -3 -28 -14 -19 -21 -37 -29 -26 -11 7 11 -23 2
-42 -12 -7 -6 -18 -6 -25 -2 -7 4 -10 4 -6 0 9 -11 -14 -36 -26 -28 -5 3 -6 0
-3 -5 4 -6 -2 -13 -13 -16 -11 -3 -18 0 -17 5 1 6 -4 13 -11 15 -8 3 -11 -3
-8 -19 3 -12 5 -26 5 -30 1 -5 6 -8 12 -8 5 0 7 5 4 10 -3 6 -2 10 4 10 17 0
22 -18 6 -24 -9 -3 -12 -12 -8 -23 7 -17 6 -17 -20 0 -30 19 -41 22 -32 7 3
-6 1 -10 -4 -10 -6 0 -10 -5 -9 -11 2 -6 -3 -14 -10 -16 -7 -3 -10 1 -6 10 3
8 -2 17 -11 21 -9 3 -14 2 -11 -3 3 -5 -1 -11 -9 -15 -9 -3 -12 -12 -9 -23 5
-16 4 -16 -7 1 -8 13 -10 49 -6 115 9 173 68 299 287 611 176 252 250 432 250
610 0 141 -49 251 -154 347 l-52 48 90 1 c158 2 259 46 365 160 76 81 146 206
184 329 14 44 45 181 71 305 25 124 55 254 67 290 60 184 170 324 328 419 51
31 153 80 169 81 4 0 7 5 7 11 0 6 -23 20 -51 32 -102 44 -191 104 -270 183
-70 69 -89 95 -132 185 -54 112 -76 188 -117 399 -39 198 -73 324 -115 422
-110 257 -293 388 -526 376 -41 -2 -74 -3 -74 -3 0 0 32 33 70 73 101 103 133
174 138 308 9 217 -46 339 -348 779 -74 108 -131 218 -161 311 -28 84 -34 264
-10 272 8 2 11 0 8 -5 -3 -5 3 -9 13 -10 11 -1 23 3 26 9 4 7 2 8 -5 4 -7 -4
-15 2 -20 16 -6 13 -10 16 -10 9 -1 -10 -4 -12 -11 -5 -7 7 -5 32 6 77 13 51
21 67 33 65 9 -2 18 -8 21 -14 3 -7 12 -4 25 9 17 17 17 19 3 14 -11 -4 -17
-2 -15 6 1 7 -3 11 -8 10 -6 -1 -11 7 -11 17 0 10 4 16 9 13 5 -3 6 4 3 15 -4
11 -2 23 3 26 5 4 8 15 6 26 -2 11 1 22 6 25 5 4 6 11 3 17 -3 5 -12 33 -20
61 -10 38 -10 53 -2 58 9 6 8 12 -1 23 -11 13 -11 19 0 33 12 15 12 16 -2 11
-9 -4 -38 -10 -65 -14 -27 -4 -54 -14 -61 -23 -11 -14 -12 -14 -13 3 0 33 -13
8 -17 -35 -4 -34 -1 -41 16 -46 12 -3 21 -9 21 -13 0 -5 3 -15 6 -23 3 -8 -2
-22 -11 -31 -18 -18 -12 -38 10 -30 8 3 24 -3 36 -14 11 -11 29 -18 38 -16 14
5 14 4 1 -4 -21 -14 -142 -53 -148 -47 -2 2 7 7 21 10 22 6 24 9 14 34 -9 23
-7 34 12 64 12 19 18 38 12 41 -5 3 -11 -2 -13 -12 -3 -10 -13 -19 -22 -19
-12 0 -15 6 -10 20 4 13 2 17 -5 13 -6 -4 -11 -3 -11 2 0 18 29 21 34 4 3 -12
4 -11 3 3 -2 13 -9 19 -20 17 -20 -3 -23 14 -4 21 10 5 -23 11 -44 9 -3 -1 -6
5 -6 13 0 10 5 11 17 5 12 -6 17 -5 17 5 0 8 -4 12 -9 9 -4 -3 -8 4 -8 15 0
15 -6 21 -21 21 -19 0 -21 -4 -16 -30 7 -34 -1 -63 -15 -54 -5 3 -6 25 -2 50
5 33 3 44 -7 45 -32 3 -56 8 -87 18 -25 7 -32 7 -29 -2 3 -7 10 -11 16 -10 6
2 12 -2 12 -7 1 -6 3 -13 4 -17 2 -5 6 -17 10 -29 3 -11 20 -28 36 -38 24 -14
28 -20 18 -32 -6 -8 -9 -17 -5 -21 3 -3 6 -2 6 4 0 5 7 10 15 10 8 0 15 -6 15
-13 0 -7 3 -14 8 -17 4 -2 2 -2 -5 -1 -6 2 -14 -4 -17 -12 -3 -9 -1 -12 4 -9
6 3 10 1 10 -5 0 -8 6 -8 21 0 11 7 23 9 26 6 13 -13 3 -69 -14 -81 -17 -13
-17 -14 4 -9 18 5 21 2 16 -14 -6 -23 -54 -32 -168 -32 -160 0 -338 75 -624
264 -206 137 -297 185 -422 227 -172 56 -328 51 -460 -16 -37 -19 -70 -31 -75
-27 -4 4 -4 2 -1 -4 4 -6 -17 -30 -46 -54 l-52 -43 44 46 c36 37 42 50 37 71
-3 14 -11 26 -16 26 -18 0 -10 18 10 23 15 4 22 -1 26 -19 8 -33 20 -30 18 4
-1 23 -5 27 -29 25 -23 -2 -26 1 -22 18 6 23 -1 49 -13 49 -4 0 -6 -10 -6 -22
1 -13 -1 -33 -5 -44 -4 -12 -3 -26 3 -32 6 -6 7 -16 2 -23 -11 -18 -25 38 -18
68 5 17 2 23 -10 23 -9 0 -16 -4 -16 -10 0 -5 -4 -10 -10 -10 -5 0 -10 9 -10
21 0 15 5 19 15 15 8 -3 15 -2 16 2 0 4 2 15 4 24 2 12 -2 15 -13 11 -10 -4
-13 -2 -8 5 4 7 2 12 -4 12 -8 0 -10 10 -6 28 6 26 5 25 -12 -6 l-18 -32 -17
21 c-15 17 -16 26 -8 50 6 16 6 27 2 24 -5 -3 -12 2 -15 11 -3 8 -2 12 4 9 14
-9 16 19 4 100 -3 22 -6 58 -7 80 -2 37 -4 40 -35 45 -18 3 -33 8 -32 13 1 23
-1 27 -15 27 -10 0 -14 9 -13 25 2 20 6 23 26 18 16 -4 27 0 37 13 13 18 14
17 8 -5 -4 -17 -3 -22 5 -17 7 4 12 14 12 23 0 9 8 25 17 36 15 15 15 19 3 17
-27 -4 -40 0 -40 11 0 8 5 8 15 -1 10 -9 15 -9 15 -1 0 6 -3 11 -7 12 -5 0
-19 2 -32 3 -14 2 -27 8 -29 15 -2 6 -17 18 -34 27 -17 9 -27 11 -24 5 4 -6 2
-11 -3 -11 -6 0 -11 9 -11 21 0 11 -4 18 -9 15 -5 -3 -11 4 -14 15 -3 11 -14
23 -25 26 -11 3 -22 13 -25 23 -7 25 -166 87 -179 68 -7 -10 -10 -9 -19 4 -11
20 -44 30 -194 58 -156 29 -151 28 -255 50 -109 23 -208 54 -264 82 -31 16
-40 17 -47 6 -7 -10 -9 -9 -9 4 0 9 -20 28 -44 42 -24 14 -69 48 -99 76 -30
27 -57 47 -61 43 -3 -3 -6 1 -6 10 0 9 -9 22 -20 29 -11 7 -20 17 -20 21 0 5
-14 29 -31 53 -17 25 -49 83 -70 130 -22 46 -43 84 -47 83 -4 0 -34 -56 -67
-123z m115 0 c0 -8 -4 -18 -10 -21 -5 -3 -10 3 -10 14 0 12 5 21 10 21 6 0 10
-6 10 -14z m-53 -38 c-3 -7 -5 -2 -5 12 0 14 2 19 5 13 2 -7 2 -19 0 -25z m40
-150 c-3 -7 -5 -2 -5 12 0 14 2 19 5 13 2 -7 2 -19 0 -25z m-17 -8 c0 -5 -4
-10 -10 -10 -5 0 -10 5 -10 10 0 6 5 10 10 10 6 0 10 -4 10 -10z m-150 -74 c0
-8 -4 -18 -10 -21 -5 -3 -10 3 -10 14 0 12 5 21 10 21 6 0 10 -6 10 -14z m357
-38 c-3 -8 -6 -5 -6 6 -1 11 2 17 5 13 3 -3 4 -12 1 -19z m-430 -80 c-3 -8 -6
-5 -6 6 -1 11 2 17 5 13 3 -3 4 -12 1 -19z m532 -93 c-4 -11 -8 -16 -8 -11 -1
5 -8 3 -16 -4 -11 -9 -15 -10 -15 -1 0 7 7 19 15 27 9 9 16 36 16 62 l2 47 7
-50 c4 -27 3 -59 -1 -70z m-139 90 c0 -8 -4 -15 -10 -15 -5 0 -10 7 -10 15 0
8 5 15 10 15 6 0 10 -7 10 -15z m-440 -35 c0 -5 -5 -10 -11 -10 -5 0 -7 5 -4
10 3 6 8 10 11 10 2 0 4 -4 4 -10z m830 -16 c0 -8 -4 -12 -10 -9 -5 3 -10 10
-10 16 0 5 5 9 10 9 6 0 10 -7 10 -16z m-740 -48 c0 -8 -7 -16 -15 -20 -10 -4
-15 1 -15 14 0 11 7 20 15 20 8 0 15 -6 15 -14z m1037 -48 c-3 -8 -6 -5 -6 6
-1 11 2 17 5 13 3 -3 4 -12 1 -19z m-490 -20 c-3 -7 -5 -2 -5 12 0 14 2 19 5
13 2 -7 2 -19 0 -25z m70 -10 c-3 -8 -6 -5 -6 6 -1 11 2 17 5 13 3 -3 4 -12 1
-19z m-200 -10 c-3 -8 -6 -5 -6 6 -1 11 2 17 5 13 3 -3 4 -12 1 -19z m-541
-36 c-12 -11 -18 7 -10 30 l8 23 4 -23 c2 -13 1 -26 -2 -30z m1194 32 c0 -8
-5 -12 -10 -9 -6 4 -8 11 -5 16 9 14 15 11 15 -7z m-1993 -16 c-3 -8 -6 -5 -6
6 -1 11 2 17 5 13 3 -3 4 -12 1 -19z m893 -33 c-24 -25 -46 -45 -49 -45 -3 0
15 20 39 45 24 25 46 45 49 45 3 0 -15 -20 -39 -45z m617 23 c-3 -8 -6 -5 -6
6 -1 11 2 17 5 13 3 -3 4 -12 1 -19z m-1251 -15 c-10 -10 -19 5 -10 18 6 11 8
11 12 0 2 -7 1 -15 -2 -18z m1917 2 c-7 -21 -13 -19 -13 6 0 11 4 18 10 14 5
-3 7 -12 3 -20z m-293 -24 c0 -6 -4 -13 -10 -16 -5 -3 -10 1 -10 9 0 9 5 16
10 16 6 0 10 -4 10 -9z m-1814 -28 c-10 -10 -19 5 -10 18 6 11 8 11 12 0 2 -7
1 -15 -2 -18z m1764 7 c0 -11 -4 -20 -9 -20 -5 0 -7 9 -4 20 3 11 7 20 9 20 2
0 4 -9 4 -20z m-1836 -15 c-4 -8 -8 -15 -10 -15 -2 0 -4 7 -4 15 0 8 4 15 10
15 5 0 7 -7 4 -15z m2427 -38 c-15 -38 -21 -33 -21 15 0 38 2 41 15 27 12 -12
14 -21 6 -42z m-1591 39 c0 -3 -15 -14 -32 -26 l-33 -22 30 26 c31 27 35 29
35 22z m1387 -18 c-3 -8 -6 -5 -6 6 -1 11 2 17 5 13 3 -3 4 -12 1 -19z m-270
-30 c-3 -7 -5 -2 -5 12 0 14 2 19 5 13 2 -7 2 -19 0 -25z m430 0 c-3 -8 -6 -5
-6 6 -1 11 2 17 5 13 3 -3 4 -12 1 -19z m-497 3 c0 -6 -4 -13 -10 -16 -5 -3
-10 1 -10 9 0 9 5 16 10 16 6 0 10 -4 10 -9z m190 -5 c0 -8 -4 -18 -10 -21 -5
-3 -10 3 -10 14 0 12 5 21 10 21 6 0 10 -6 10 -14z m-2173 -18 c-3 -8 -6 -5
-6 6 -1 11 2 17 5 13 3 -3 4 -12 1 -19z m1640 0 c-3 -8 -6 -5 -6 6 -1 11 2 17
5 13 3 -3 4 -12 1 -19z m-1677 5 c0 -5 -5 -15 -10 -23 -8 -12 -10 -11 -10 8 0
12 5 22 10 22 6 0 10 -3 10 -7z m870 -7 c0 -2 -7 -7 -16 -10 -8 -3 -12 -2 -9
4 6 10 25 14 25 6z m1176 -23 c-10 -10 -19 5 -10 18 6 11 8 11 12 0 2 -7 1
-15 -2 -18z m-2145 3 c5 3 9 -5 9 -18 -1 -22 -1 -22 -15 -4 -8 11 -15 25 -14
30 0 6 3 5 6 -2 2 -6 9 -10 14 -6z m899 -16 c-8 -5 -19 -10 -25 -10 -5 0 -3 5
5 10 8 5 20 10 25 10 6 0 3 -5 -5 -10z m-83 -33 c-11 -4 -25 -6 -31 -3 -6 2
-3 5 7 5 9 1 17 8 17 16 0 13 2 14 14 3 12 -11 11 -14 -7 -21z m1513 8 c0 -15
-18 -30 -27 -22 -2 3 -2 15 2 26 7 23 25 19 25 -4z m30 15 c0 -5 -4 -10 -10
-10 -5 0 -10 5 -10 10 0 6 5 10 10 10 6 0 10 -4 10 -10z m-2060 -15 c0 -8 -4
-15 -10 -15 -5 0 -10 7 -10 15 0 8 5 15 10 15 6 0 10 -7 10 -15z m1617 -17
c-3 -7 -5 -2 -5 12 0 14 2 19 5 13 2 -7 2 -19 0 -25z m-1977 10 c0 -18 -20
-47 -20 -30 0 7 -5 10 -11 6 -8 -4 -8 0 0 15 13 23 31 28 31 9z m610 -13 c0
-8 -4 -15 -10 -15 -5 0 -10 7 -10 15 0 8 5 15 10 15 6 0 10 -7 10 -15z m1510
1 c0 -8 -4 -18 -10 -21 -5 -3 -10 3 -10 14 0 12 5 21 10 21 6 0 10 -6 10 -14z
m107 -18 c-3 -7 -5 -2 -5 12 0 14 2 19 5 13 2 -7 2 -19 0 -25z m-63 7 c-4 -8
-8 -15 -10 -15 -2 0 -4 7 -4 15 0 8 4 15 10 15 5 0 7 -7 4 -15z m-1367 -1 c-3
-3 -12 -4 -19 -1 -8 3 -5 6 6 6 11 1 17 -2 13 -5z m-677 -24 c0 -11 -4 -20
-10 -20 -5 0 -10 9 -10 20 0 11 5 20 10 20 6 0 10 -9 10 -20z m2070 -2 c0 -16
-3 -19 -11 -11 -6 6 -8 16 -5 22 11 17 16 13 16 -11z m-2133 -20 c-3 -7 -5 -2
-5 12 0 14 2 19 5 13 2 -7 2 -19 0 -25z m650 26 c-3 -3 -12 -4 -19 -1 -8 3 -5
6 6 6 11 1 17 -2 13 -5z m-281 -31 c-10 -10 -19 5 -10 18 6 11 8 11 12 0 2 -7
1 -15 -2 -18z m184 15 c0 -4 -12 -8 -26 -8 -14 0 -23 4 -20 8 2 4 14 8 25 8
12 0 21 -4 21 -8z m2186 -23 c10 -9 13 -23 8 -37 l-6 -21 -18 23 c-10 13 -16
30 -13 37 7 17 11 16 29 -2z m-2359 -11 c-3 -3 -12 -4 -19 -1 -8 3 -5 6 6 6
11 1 17 -2 13 -5z m2080 -26 c-3 -7 -5 -2 -5 12 0 14 2 19 5 13 2 -7 2 -19 0
-25z m-2340 -10 c-3 -7 -5 -2 -5 12 0 14 2 19 5 13 2 -7 2 -19 0 -25z m41 -19
c-16 -11 -38 -12 -22 -1 6 4 14 16 19 27 8 19 8 19 13 1 2 -10 -2 -22 -10 -27z
m129 35 c-3 -3 -12 -4 -19 -1 -8 3 -5 6 6 6 11 1 17 -2 13 -5z m-217 -54 c0
-11 -4 -20 -9 -20 -5 0 -7 9 -4 20 3 11 7 20 9 20 2 0 4 -9 4 -20z m-30 -24
c0 -2 -7 -7 -16 -10 -8 -3 -12 -2 -9 4 6 10 25 14 25 6z m2665 -26 c3 -5 2
-10 -4 -10 -5 0 -13 5 -16 10 -3 6 -2 10 4 10 5 0 13 -4 16 -10z m30 -20 c3
-5 1 -10 -4 -10 -6 0 -11 5 -11 10 0 6 2 10 4 10 3 0 8 -4 11 -10z m81 -36
c-15 -28 -15 -28 -12 -4 3 14 5 32 5 40 1 10 4 11 12 3 8 -8 6 -19 -5 -39z
m70 -11 c-3 -15 0 -34 7 -42 9 -12 9 -13 0 -7 -7 4 -13 3 -13 -2 0 -6 -6 -12
-14 -15 -11 -5 -13 0 -6 24 5 17 5 29 -1 29 -5 0 -9 5 -9 11 0 5 4 8 9 5 5 -3
11 1 15 9 9 25 17 17 12 -12z m-4486 -293 c-7 -4 -11 -10 -11 -14 4 -26 -2
-36 -19 -36 -11 0 -20 7 -20 16 0 8 5 12 10 9 6 -3 10 -1 10 4 0 6 -5 11 -12
11 -6 0 -3 9 7 20 14 16 21 17 32 8 10 -8 11 -13 3 -18z m-80 -50 c0 -5 -2
-10 -4 -10 -3 0 -8 5 -11 10 -3 6 -1 10 4 10 6 0 11 -4 11 -10z m4730 -15 c0
-9 -6 -12 -17 -8 -10 4 -14 2 -10 -4 4 -6 1 -16 -7 -22 -11 -9 -17 -5 -31 16
-17 25 -17 27 -1 14 15 -12 19 -12 34 2 20 21 32 22 32 2z m-4737 -31 c-3 -8
-9 -14 -13 -14 -14 0 -21 17 -14 34 5 12 10 14 20 6 7 -7 10 -18 7 -26z m-46
-26 c-3 -8 -6 -5 -6 6 -1 11 2 17 5 13 3 -3 4 -12 1 -19z m4710 -10 c-3 -7 -5
-2 -5 12 0 14 2 19 5 13 2 -7 2 -19 0 -25z m-4951 -186 c-12 -11 -18 7 -10 30
l8 23 4 -23 c2 -13 1 -26 -2 -30z m-79 6 c-3 -8 -6 -5 -6 6 -1 11 2 17 5 13 3
-3 4 -12 1 -19z m-130 -20 c-3 -8 -6 -5 -6 6 -1 11 2 17 5 13 3 -3 4 -12 1
-19z m299 -5 c-10 -10 -19 5 -10 18 6 11 8 11 12 0 2 -7 1 -15 -2 -18z m6821
5 c-3 -8 -6 -5 -6 6 -1 11 2 17 5 13 3 -3 4 -12 1 -19z m-7247 -8 c0 -5 -4
-10 -10 -10 -5 0 -10 5 -10 10 0 6 5 10 10 10 6 0 10 -4 10 -10z m66 -27 c-10
-10 -19 5 -10 18 6 11 8 11 12 0 2 -7 1 -15 -2 -18z m-36 -83 c0 -5 -2 -10 -4
-10 -3 0 -8 5 -11 10 -3 6 -1 10 4 10 6 0 11 -4 11 -10z m230 -40 c0 -5 -5
-12 -11 -16 -14 -8 -33 11 -25 25 7 11 36 4 36 -9z m3790 -137 c-2 -54 -2
-144 -1 -200 l1 -103 530 0 c334 0 530 -4 530 -10 0 -5 -8 -25 -17 -45 -16
-34 -18 -35 -78 -35 l-61 0 -36 -87 c-19 -49 -97 -240 -173 -425 l-137 -338
-93 0 -93 0 44 110 c24 60 44 113 44 118 0 4 -35 -9 -77 -30 -153 -74 -299
-71 -372 8 -32 35 -33 38 -29 108 6 126 93 263 212 335 62 37 177 71 241 71
54 0 135 -25 169 -51 15 -12 28 -20 30 -18 7 9 76 182 76 190 0 5 -151 9 -353
9 l-354 0 -174 -425 -174 -425 -92 0 -93 0 19 48 c14 36 132 324 168 410 4 10
-22 12 -126 10 l-132 -3 -42 -94 c-77 -175 -200 -272 -354 -280 -40 -2 -81 0
-90 4 -16 6 -15 8 7 25 19 14 29 16 45 8 18 -10 19 -10 6 6 -12 14 -11 16 10
13 23 -4 63 3 104 18 11 4 2 -4 -20 -19 -28 -18 -34 -25 -21 -26 31 0 104 41
139 79 31 34 77 120 77 142 0 6 45 121 100 255 55 134 100 246 100 249 0 3
-13 5 -29 5 -27 0 -31 -7 -86 -132 -103 -238 -168 -379 -172 -375 -2 2 6 30
18 61 12 31 19 59 16 62 -3 3 -20 3 -37 -1 -41 -9 -99 -62 -140 -125 -18 -28
-36 -47 -41 -44 -5 3 -9 -1 -9 -8 0 -8 -5 -7 -16 4 -15 15 -13 21 26 77 23 34
60 76 83 93 40 29 41 30 12 24 -39 -9 -104 -48 -132 -78 -12 -12 -37 -49 -56
-81 -20 -32 -38 -53 -41 -48 -11 18 41 105 89 150 63 58 121 82 215 88 l78 6
47 116 c26 64 56 137 66 164 l19 47 -206 -2 -205 -3 -108 -260 c-59 -143 -115
-277 -124 -298 -9 -20 -24 -40 -34 -43 -10 -3 -25 -9 -33 -13 -18 -9 -40 -3
-40 10 0 5 54 142 120 304 66 162 120 297 120 300 0 3 -13 5 -28 5 -28 0 -31
-7 -132 -252 -56 -139 -116 -283 -133 -320 -28 -64 -47 -86 -47 -53 0 11 -11
9 -47 -11 -48 -24 -80 -35 -118 -38 -11 0 -26 -5 -33 -9 -7 -5 -52 -10 -100
-10 -100 -2 -140 13 -172 66 -47 76 -14 194 97 345 l17 24 -160 -4 c-178 -4
-195 -9 -262 -78 -49 -51 -114 -174 -142 -268 -21 -70 -23 -108 -6 -179 4 -17
1 -21 -15 -18 -10 2 -19 -1 -19 -6 0 -18 -41 12 -60 44 -73 119 59 399 236
503 24 14 44 28 44 29 0 2 -21 -2 -46 -10 -157 -47 -314 -265 -314 -436 0 -48
5 -63 27 -89 14 -18 36 -35 47 -39 18 -7 17 -8 -8 -13 -22 -4 -35 1 -61 28
-40 40 -53 110 -35 189 28 128 145 292 248 348 87 47 148 57 359 57 193 0 194
0 183 -21 -18 -33 -6 -32 48 5 139 93 326 111 420 40 18 -14 36 -23 39 -20 6
5 83 186 83 194 0 1 -286 2 -636 2 l-635 0 -26 -57 c-51 -115 -132 -336 -127
-345 3 -5 13 -7 21 -4 8 3 13 3 11 -1 -107 -210 -115 -316 -28 -403 l21 -21
-21 -26 c-12 -16 -17 -30 -11 -37 9 -12 8 -19 -7 -105 -6 -35 -17 -60 -30 -70
-13 -9 -23 -31 -26 -53 -2 -20 -10 -46 -16 -58 -9 -17 -9 -28 0 -50 16 -39 6
-65 -38 -97 -49 -37 -51 -41 -50 -92 0 -33 -4 -48 -20 -60 -28 -23 -48 -68
-55 -126 -4 -27 -9 -60 -13 -72 -5 -18 0 -24 30 -37 20 -8 41 -26 48 -40 12
-27 12 -25 -28 -99 -20 -36 -5 -57 40 -57 39 0 56 -15 56 -51 0 -29 -31 -59
-62 -59 -25 0 -48 28 -48 60 0 24 -6 30 -35 40 -49 16 -59 40 -52 126 l7 72
-45 11 c-49 12 -75 46 -75 99 0 16 -12 62 -26 103 -21 61 -27 104 -35 252 -10
164 -9 180 7 198 9 10 25 19 34 19 40 0 55 26 60 107 l5 78 85 3 c47 2 89 7
94 12 7 7 -1 9 -22 6 -18 -2 -32 1 -32 6 0 5 -4 6 -10 3 -5 -3 -10 -2 -10 4 0
9 147 380 264 663 31 75 56 142 56 148 0 6 -12 10 -27 8 -27 -3 -34 -19 -155
-313 -167 -405 -189 -457 -205 -476 -7 -9 -11 -19 -8 -22 3 -4 0 -3 -6 2 -7 6
-6 20 5 45 8 20 16 40 17 44 2 11 14 41 68 175 28 68 51 127 51 130 0 4 -67 8
-149 9 l-149 3 13 33 14 32 151 0 151 0 30 68 c42 91 109 254 109 264 0 4 -47
8 -104 8 l-103 0 -37 -89 c-50 -120 -83 -167 -149 -212 -54 -36 -127 -58 -249
-74 l-46 -6 -22 -72 c-29 -95 -50 -194 -50 -238 0 -49 -17 -62 -59 -46 -39 14
-45 35 -39 131 4 54 13 91 36 141 18 37 32 71 32 76 0 5 -15 9 -33 9 -31 0
-33 -3 -59 -72 -36 -97 -51 -172 -45 -224 3 -33 1 -41 -9 -37 -36 13 -25 141
22 259 28 72 29 74 8 74 -8 0 -13 4 -10 9 4 5 14 8 24 7 9 -2 23 4 30 13 8 9
10 10 6 2 -8 -15 7 -9 36 14 8 7 51 15 95 17 151 9 234 69 293 210 18 42 32
84 32 92 0 14 -29 16 -223 18 l-224 3 18 43 18 42 1687 0 1686 0 -4 123 c-5
134 -29 216 -65 218 -32 2 -57 -2 -86 -13 -37 -14 -40 -8 -22 35 l15 37 151 0
151 0 -2 -97z m-4093 55 c-3 -8 -6 -5 -6 6 -1 11 2 17 5 13 3 -3 4 -12 1 -19z
m5588 -859 c8 -25 20 -24 39 3 l16 22 29 -30 c16 -17 46 -39 66 -50 31 -16 39
-28 52 -77 13 -46 26 -67 70 -108 29 -27 53 -54 53 -59 0 -5 9 -12 20 -15 38
-12 55 -63 75 -225 6 -48 28 -86 43 -76 15 9 62 -59 62 -88 l0 -26 123 0 c67
-1 281 -3 476 -7 l353 -5 -4 123 c-4 123 -18 179 -52 201 -18 12 -60 9 -105
-7 -22 -8 -41 -12 -41 -9 0 3 9 23 20 45 l21 40 152 -3 152 -3 0 -190 0 -190
78 -3 c42 -2 77 -7 77 -12 0 -5 -7 -25 -17 -44 -16 -34 -18 -35 -80 -38 l-64
-3 -78 -175 c-43 -96 -122 -275 -176 -397 l-99 -223 -98 0 -97 0 18 43 c78
178 165 375 194 440 l36 77 -141 0 c-182 0 -233 -14 -303 -85 -83 -84 -145
-208 -160 -321 -6 -41 -3 -53 14 -76 36 -46 87 -46 193 -3 16 6 16 5 0 -34
l-17 -41 -143 0 c-164 0 -204 12 -236 73 -63 115 67 387 230 483 22 13 76 33
120 45 69 18 102 20 272 17 l193 -3 39 89 c22 49 37 92 35 96 -3 4 -182 9
-398 9 l-393 2 -82 -193 c-45 -106 -82 -203 -82 -214 0 -11 -11 -36 -25 -55
-14 -19 -36 -49 -48 -68 -19 -29 -28 -35 -64 -37 -24 -1 -43 0 -43 2 0 10 72
180 156 366 47 105 83 192 81 194 -2 2 -17 1 -33 -2 -27 -5 -35 -16 -74 -107
-59 -137 -154 -350 -188 -417 -20 -41 -33 -55 -49 -56 -13 -1 -24 -2 -25 -3
-2 -1 -18 -4 -36 -7 l-34 -4 49 39 c71 57 87 78 123 161 18 41 64 143 101 227
38 84 69 157 69 162 0 7 -43 10 -127 9 -99 -2 -109 -3 -45 -5 45 -2 82 -6 82
-8 0 -15 -94 -205 -101 -205 -9 0 -11 9 -13 64 -2 46 -23 41 -50 -11 -24 -48
-48 -73 -121 -129 -33 -25 -57 -33 -130 -43 -49 -7 -95 -15 -102 -17 -20 -5
-47 -113 -48 -186 0 -57 3 -70 25 -94 14 -15 19 -24 13 -20 -7 4 -13 3 -13 -2
0 -16 -48 -7 -70 13 -51 46 -64 128 -36 233 l13 52 -32 0 c-30 0 -32 -2 -43
-52 -29 -141 -23 -189 29 -233 35 -29 33 -41 -6 -31 -19 5 -33 21 -51 59 -29
63 -31 152 -6 240 l17 59 75 4 c99 6 139 18 196 57 75 51 114 155 84 227 l-13
30 -164 -2 -165 -3 -148 -335 c-82 -184 -158 -350 -168 -369 -17 -29 -25 -34
-65 -37 l-46 -3 16 37 c45 107 267 611 288 653 14 26 25 51 25 54 0 3 -15 5
-33 5 -32 0 -34 -3 -67 -82 -19 -46 -46 -110 -61 -143 -15 -33 -57 -127 -94
-210 -107 -239 -158 -341 -162 -324 -4 15 56 163 156 388 28 62 51 115 51 117
0 2 -50 4 -111 4 l-111 0 9 -32 c21 -83 -10 -185 -78 -263 -48 -55 -141 -112
-224 -138 -55 -17 -95 -21 -185 -22 -101 0 -121 3 -163 24 -53 26 -75 53 -87
105 -9 41 5 120 25 136 11 9 13 -1 8 -63 -5 -66 -3 -80 17 -111 26 -43 66 -66
112 -66 l33 0 -30 19 c-59 36 -70 57 -70 130 1 55 6 76 35 131 19 36 36 68 38
73 2 4 -10 7 -27 7 -25 0 -36 -8 -57 -40 -15 -22 -28 -40 -29 -40 -8 0 4 49
19 78 l17 32 88 0 c48 0 90 -2 93 -5 3 -3 -17 -49 -43 -103 -29 -58 -50 -118
-54 -149 -6 -47 -4 -55 19 -78 20 -20 35 -25 72 -25 131 0 273 158 277 308 2
70 -12 92 -59 92 -39 0 -39 1 -19 40 l16 30 252 0 252 0 38 83 c20 45 37 86
37 90 0 5 -196 6 -435 2 -239 -4 -439 -4 -444 0 -7 4 -4 20 9 46 l20 39 723 1
c397 0 742 4 766 7 53 8 60 22 28 54 -28 27 -43 81 -53 195 -4 50 -12 87 -20
94 -8 6 -20 32 -28 58 -23 71 -45 131 -61 162 -19 36 -19 64 1 84 9 8 18 35
21 58 4 23 11 45 16 49 15 9 35 -1 42 -23z m-2881 -424 c-4 -9 -19 -15 -35
-15 -37 0 -38 17 -1 23 15 2 30 5 34 6 4 0 5 -6 2 -14z m-1208 -663 c19 -13
23 -41 9 -56 -31 -31 -83 16 -55 49 14 16 29 19 46 7z m-196 -72 c25 -13 43
-76 29 -101 -10 -19 -53 -25 -76 -11 -11 7 -43 72 -43 86 0 6 51 35 63 36 5 0
17 -5 27 -10z m4460 -15 c-14 -36 -40 -85 -45 -85 -14 0 -2 61 16 84 26 33 42
34 29 1z m-4330 -120 c20 -24 -3 -64 -40 -72 -28 -5 -30 -8 -24 -38 4 -23 1
-37 -11 -48 -21 -22 -31 -21 -55 3 -31 31 -26 59 15 76 30 12 35 19 35 47 0
19 3 37 7 40 12 13 60 7 73 -8z m4270 2 c0 -7 -13 -26 -30 -42 -24 -23 -32
-26 -45 -15 -18 15 -20 41 -3 58 17 17 78 16 78 -1z m-4810 -127 c0 -5 -4 -10
-10 -10 -5 0 -10 5 -10 10 0 6 5 10 10 10 6 0 10 -4 10 -10z m5023 -79 c-11
-14 -32 -52 -46 -85 l-27 -59 -38 7 c-20 3 -63 6 -95 6 l-58 0 23 42 c30 54
54 64 32 13 l-15 -36 33 3 c29 3 36 10 59 56 15 29 30 52 33 51 4 0 17 2 29 6
26 9 38 11 54 13 6 1 15 12 19 25 7 20 8 20 12 3 2 -10 -5 -30 -15 -45z
m-4489 -17 c22 -8 22 -72 0 -81 -29 -11 -64 14 -64 45 0 16 3 32 7 35 8 9 36
9 57 1z m-289 -34 c24 -27 23 -76 -1 -101 -11 -11 -36 -22 -55 -25 -33 -6 -37
-4 -52 29 -23 47 -21 64 8 92 30 31 75 33 100 5z m4876 -11 c34 -37 35 -44 9
-87 -17 -28 -24 -31 -47 -26 -66 15 -87 48 -71 112 8 29 12 32 44 32 27 0 43
-8 65 -31z m-5841 -153 c0 -7 12 -23 26 -37 25 -23 26 -23 55 -6 49 28 72 22
98 -23 13 -23 32 -42 46 -46 21 -5 75 -71 75 -92 0 -5 8 -20 18 -33 10 -13 24
-40 31 -59 25 -67 45 -99 65 -104 12 -3 36 -28 54 -55 53 -82 40 -94 -33 -31
-58 50 -90 53 -99 9 -10 -52 -7 -115 7 -142 7 -14 28 -38 45 -54 18 -15 32
-32 32 -38 0 -5 21 -30 46 -54 49 -47 53 -77 10 -69 -42 8 -50 -6 -22 -39 14
-17 26 -35 26 -40 0 -5 13 -20 30 -33 16 -14 29 -31 30 -37 0 -7 11 -13 24
-13 29 0 72 -33 62 -48 -10 -17 -62 5 -81 34 -17 27 -56 32 -74 10 -18 -21 14
-111 48 -136 65 -49 75 -77 47 -144 -12 -28 -12 -41 -1 -84 8 -28 18 -60 24
-71 16 -30 13 -69 -6 -80 -16 -9 -16 -14 6 -83 12 -40 33 -95 46 -123 13 -27
26 -67 30 -87 3 -21 7 -38 9 -38 2 0 23 7 46 15 33 12 51 13 81 5 43 -12 53
-30 55 -105 3 -77 18 -148 32 -153 7 -2 12 5 12 18 0 11 12 32 26 47 22 22 32
25 79 21 l54 -5 13 41 c12 38 16 42 61 50 36 7 55 6 80 -5 23 -11 39 -13 58
-6 23 9 31 6 62 -25 19 -19 40 -45 46 -57 7 -11 20 -21 30 -21 22 0 18 27 -11
75 -10 17 -18 42 -18 57 0 15 -5 39 -12 53 -16 35 7 103 40 118 20 9 31 7 62
-10 33 -20 40 -20 56 -8 45 34 98 0 74 -46 -7 -11 -9 -37 -5 -58 5 -28 1 -43
-14 -62 -16 -21 -19 -38 -17 -100 5 -114 20 -156 72 -202 l46 -41 -4 -65 c-6
-82 5 -100 80 -141 66 -36 68 -36 75 -10 4 16 14 20 46 20 30 0 41 -4 41 -15
0 -20 -44 -47 -72 -44 -13 2 -33 -2 -45 -9 -40 -22 -104 -14 -153 18 -25 16
-54 35 -65 42 -11 7 -36 22 -55 34 -19 12 -61 25 -92 29 -46 5 -64 2 -97 -15
-36 -18 -41 -25 -41 -53 0 -88 -153 -129 -189 -51 -16 36 -14 99 4 114 8 7 19
29 25 50 9 33 16 40 57 54 26 9 68 16 95 16 39 0 48 3 48 18 0 10 -15 26 -34
36 -36 19 -38 25 -52 149 -3 26 -8 47 -10 47 -3 0 -19 -7 -36 -16 -28 -15 -34
-15 -68 1 -41 19 -60 14 -60 -14 0 -59 -36 -97 -95 -102 -36 -3 -46 1 -72 27
-22 22 -35 26 -82 26 -73 1 -76 2 -96 51 -9 23 -23 53 -31 67 -16 29 -38 78
-47 102 -5 15 -10 16 -32 6 -14 -6 -28 -22 -31 -35 -4 -13 -12 -23 -19 -23
-32 0 -103 41 -130 74 -63 78 -131 148 -155 159 -13 7 -38 31 -55 53 -16 23
-37 44 -47 47 -20 6 -78 84 -78 106 0 9 -16 32 -35 50 -20 18 -43 47 -52 65
-9 17 -33 48 -54 70 -40 40 -50 70 -25 79 8 3 16 16 18 28 2 12 11 27 20 33
13 8 21 5 38 -17 29 -36 37 -34 34 8 -3 38 -19 71 -71 147 -18 26 -33 52 -33
57 0 5 -7 14 -15 21 -19 16 -55 115 -57 156 -1 20 6 42 17 54 18 20 18 22 -3
65 -18 38 -20 48 -9 77 7 18 19 33 27 33 14 0 18 42 10 135 -1 14 2 64 7 112
7 74 13 93 40 131 20 27 28 48 23 53 -11 11 -38 145 -32 162 5 16 42 -3 42
-22z m886 -1 c18 -27 21 -97 5 -137 -9 -25 -7 -30 18 -49 16 -12 35 -32 42
-46 7 -14 34 -35 60 -48 115 -59 138 -174 30 -150 -15 3 -69 30 -119 60 -83
49 -93 53 -120 43 -36 -14 -72 5 -102 55 -22 36 -25 65 -9 120 8 30 15 37 34
37 23 0 25 4 25 48 0 57 8 70 46 82 51 15 73 11 90 -15z m5067 5 c4 0 7 -25 7
-55 0 -49 3 -57 25 -67 30 -14 49 -67 41 -113 -13 -69 -98 -129 -134 -93 -9 9
-24 3 -64 -22 -82 -53 -159 -90 -184 -90 -32 0 -56 27 -48 54 10 33 74 94 106
101 18 4 39 22 58 50 16 23 36 45 45 49 13 5 14 17 9 70 -12 112 9 141 90 125
23 -5 44 -8 49 -9z m-4554 -42 c10 -27 5 -46 -21 -74 -16 -18 -17 -22 -4 -27
8 -3 22 -17 31 -31 13 -19 14 -29 5 -45 -20 -39 -59 -22 -90 38 -11 21 -10 26
6 38 13 10 17 24 15 54 -4 61 39 97 58 47z m3959 10 c17 -17 15 -63 -4 -79
-14 -11 -19 -10 -35 10 -20 24 -23 39 -13 65 7 19 35 21 52 4z m1275 -8 c21
-17 30 -18 53 -10 48 19 58 7 51 -59 -5 -46 -3 -62 9 -72 36 -30 42 -61 38
-199 -1 -74 -7 -153 -13 -175 -11 -42 -6 -59 9 -35 9 13 10 13 10 0 0 -13 2
-13 9 -1 8 12 12 12 26 -3 23 -23 22 -66 -1 -85 -12 -10 -20 -32 -22 -58 -3
-34 1 -44 17 -53 33 -17 33 -15 -57 -204 -29 -61 -64 -120 -78 -132 -30 -25
-46 -94 -21 -94 8 0 22 11 31 25 22 34 33 32 50 -10 8 -19 20 -35 25 -35 34 0
1 -52 -121 -193 -18 -21 -45 -60 -59 -85 -14 -26 -38 -53 -52 -60 -18 -9 -30
-26 -37 -52 -6 -22 -15 -40 -20 -40 -12 0 -81 -62 -184 -167 -104 -106 -139
-120 -174 -71 -21 28 -61 23 -73 -9 -6 -16 -19 -37 -29 -48 -10 -11 -28 -41
-39 -67 -23 -54 -39 -65 -101 -69 l-45 -4 -3 48 c-2 30 2 55 12 69 10 14 13
34 10 62 -5 33 -1 47 16 69 22 27 26 29 93 25 l71 -3 14 40 c20 57 51 133 77
186 23 47 21 64 -12 97 -8 9 -10 19 -4 30 5 9 16 38 25 63 9 25 22 54 29 63
11 15 10 25 -10 65 -15 29 -23 59 -21 81 3 30 9 38 42 53 56 26 61 35 61 102
0 72 -16 81 -68 36 -19 -17 -42 -31 -50 -31 -9 0 -18 -4 -22 -9 -3 -5 -20 -13
-38 -16 -34 -8 -77 -29 -116 -57 -46 -34 -52 -18 -7 17 26 19 50 35 55 35 4 0
18 9 31 20 13 11 31 20 41 20 37 0 101 44 140 95 44 59 45 62 23 86 -24 26
-10 65 36 107 26 23 40 44 40 60 0 22 3 24 29 19 46 -9 70 32 34 59 -19 13
-19 14 21 114 9 22 -5 37 -41 44 -26 6 -36 3 -53 -16 -11 -13 -28 -31 -37 -40
-20 -22 -43 -23 -43 -4 0 18 48 76 63 76 7 0 13 15 14 32 2 18 7 34 13 36 5 2
10 8 10 14 0 6 11 19 25 30 14 11 25 26 25 33 0 8 11 26 25 41 14 15 25 31 25
35 0 17 62 100 83 110 12 7 38 29 58 50 41 45 47 46 82 19z m-5437 -39 c15
-12 35 -21 44 -21 10 0 28 -9 41 -19 24 -19 24 -19 4 -41 -17 -19 -26 -21 -76
-15 -49 6 -63 3 -98 -17 -38 -21 -43 -22 -68 -8 -30 17 -45 56 -31 83 5 10 30
31 54 47 50 32 81 29 130 -9z m4432 22 c49 -30 72 -56 72 -80 0 -38 -17 -61
-51 -68 -24 -5 -39 -1 -69 20 -35 24 -42 26 -73 16 -25 -8 -42 -8 -67 1 -30
10 -35 9 -44 -7 -28 -47 -52 -68 -73 -61 -55 18 -23 91 40 91 23 0 44 8 59 23
14 12 31 22 39 22 8 0 34 14 58 30 50 34 71 37 109 13z m-130 -366 l-3 -61 35
0 c31 -1 35 -4 34 -26 -3 -45 -21 -119 -34 -135 -16 -19 -44 -19 -60 0 -12 14
-11 24 6 107 6 26 5 26 -34 21 -38 -5 -41 -4 -48 21 -13 53 54 154 92 139 12
-4 15 -19 12 -66z m-4219 37 c26 -33 46 -97 37 -120 -5 -13 -14 -15 -46 -10
-49 8 -61 -10 -35 -50 31 -48 0 -114 -42 -88 -19 12 -45 89 -47 139 -1 28 1
30 34 30 l35 0 -3 49 c-2 26 -1 55 2 62 9 23 43 16 65 -12z m221 -39 c15 -18
3 -57 -17 -53 -26 5 -39 34 -24 52 17 20 25 20 41 1z m3750 -4 c14 -26 -15
-58 -36 -40 -17 14 -18 31 -2 47 17 17 26 15 38 -7z m-3805 -161 c22 -25 13
-70 -14 -70 -23 0 -51 25 -51 45 0 46 34 59 65 25z m3883 -7 c5 -33 -15 -63
-43 -63 -33 0 -45 43 -19 71 23 26 58 21 62 -8z m-6958 -13 c0 -5 -5 -10 -11
-10 -5 0 -7 5 -4 10 3 6 8 10 11 10 2 0 4 -4 4 -10z m2745 -75 c14 -13 25 -33
25 -45 0 -31 -27 -89 -45 -96 -46 -18 -95 32 -95 96 0 23 7 35 33 50 42 26 53
25 82 -5z m4573 -3 c31 -21 30 -80 -3 -116 -43 -47 -97 -27 -111 42 -17 85 40
123 114 74z m-4298 -37 c24 -28 7 -49 -49 -61 -66 -15 -83 -10 -79 25 3 22 9
27 45 32 24 3 46 8 49 12 11 11 20 8 34 -8z m4020 -3 c28 -6 36 -12 38 -34 4
-32 -22 -44 -62 -28 -15 5 -38 10 -52 10 -32 0 -41 25 -18 51 12 14 25 18 39
14 11 -4 36 -10 55 -13z m-3884 -37 c21 -33 15 -59 -17 -63 -19 -2 -28 3 -37
24 -26 56 21 90 54 39z m3716 8 c2 -10 0 -31 -5 -46 -8 -23 -14 -28 -36 -25
-22 3 -26 8 -24 31 1 16 7 35 14 43 16 20 47 18 51 -3z m-6962 -52 c0 -6 -4
-13 -10 -16 -5 -3 -10 1 -10 9 0 9 5 16 10 16 6 0 10 -4 10 -9z m3012 -38 c35
-31 13 -78 -34 -71 -27 4 -37 50 -17 74 15 18 28 18 51 -3z m4177 3 c7 -8 11
-27 9 -43 -2 -23 -8 -28 -32 -28 -40 0 -54 26 -33 59 19 29 39 33 56 12z
m-7100 0 c-2 -2 -15 -9 -29 -15 -24 -11 -24 -11 -6 3 16 13 49 24 35 12z m-89
-36 c0 -5 -4 -10 -10 -10 -5 0 -10 5 -10 10 0 6 5 10 10 10 6 0 10 -4 10 -10z
m2849 -76 c12 -9 31 -36 41 -60 22 -50 59 -67 89 -40 10 9 24 16 33 16 18 0
43 -27 52 -56 4 -12 19 -25 38 -30 39 -12 57 -37 42 -61 -25 -39 -68 -24 -79
28 -6 26 -11 29 -46 29 -26 0 -42 -5 -45 -15 -9 -23 -40 -36 -68 -29 -18 4
-30 19 -42 50 -15 40 -31 53 -46 38 -12 -11 12 -69 37 -91 53 -47 71 -137 34
-174 -37 -37 -106 2 -129 74 -8 25 -25 56 -37 69 -30 32 -83 135 -83 162 0 39
23 60 59 53 26 -5 37 -1 64 23 37 34 53 36 86 14z m4531 -14 c25 -27 33 -30
68 -24 34 5 42 3 51 -14 6 -11 11 -31 11 -44 0 -36 -49 -126 -81 -151 -20 -14
-31 -33 -35 -57 -3 -19 -11 -42 -17 -50 -24 -31 -68 -58 -86 -53 -65 17 -66
106 -2 177 36 39 59 100 43 110 -14 8 -29 -8 -48 -49 -16 -34 -24 -40 -55 -43
-25 -2 -40 3 -54 18 -11 12 -31 20 -51 20 -28 0 -35 -4 -40 -27 -9 -39 -23
-53 -51 -53 -27 0 -38 19 -29 54 4 17 16 26 43 33 30 7 38 14 45 41 10 39 49
53 77 28 37 -34 74 -15 101 52 13 34 44 62 68 62 8 0 27 -14 42 -30z m-7603
-7 c-3 -3 -11 -2 -17 2 -9 6 -9 10 1 16 14 8 27 -7 16 -18z m3412 -3 c10 -5
26 -27 35 -49 8 -22 27 -47 40 -56 25 -17 50 -70 40 -86 -9 -15 -50 -10 -67 9
-8 9 -18 28 -22 42 -4 14 -21 34 -38 45 -38 25 -56 67 -37 89 15 19 24 20 49
6z m3825 -16 c9 -24 -12 -64 -44 -82 -19 -10 -33 -28 -37 -44 -3 -15 -16 -37
-29 -49 -19 -18 -26 -20 -39 -9 -24 20 -17 50 20 84 19 18 35 38 35 44 0 57
76 102 94 56z m-7194 -24 c0 -5 -2 -10 -4 -10 -3 0 -8 5 -11 10 -3 6 -1 10 4
10 6 0 11 -4 11 -10z m355 -61 c4 -20 3 -20 -13 -7 -9 9 -23 13 -29 11 -16 -6
-16 -2 -3 33 l11 27 15 -21 c8 -12 17 -32 19 -43z m60 20 c2 -9 -4 -16 -12
-16 -8 0 -12 7 -8 16 3 11 0 10 -10 -3 -8 -11 -15 -15 -15 -10 0 14 22 35 34
31 5 -2 10 -10 11 -18z m2233 -31 c5 -24 -10 -23 -39 2 l-24 20 30 -2 c19 -2
31 -9 33 -20z m-2504 -1 c4 4 4 0 0 -10 -4 -12 -2 -16 7 -14 8 2 10 2 5 -1 -4
-2 -2 -8 5 -13 7 -4 10 -11 7 -15 -9 -9 -68 47 -62 58 3 5 11 4 18 -1 7 -6 16
-8 20 -4z m324 -22 c-3 -3 -9 2 -12 12 -6 14 -5 15 5 6 7 -7 10 -15 7 -18z
m-79 -11 c4 -4 -38 -44 -46 -44 -1 0 -3 14 -3 31 0 27 3 30 23 23 12 -3 24 -8
26 -10z m61 -13 c0 -6 -4 -13 -10 -16 -5 -3 -10 1 -10 9 0 9 5 16 10 16 6 0
10 -4 10 -9z m-269 -34 c-8 -8 -11 -7 -11 4 0 20 13 34 18 19 3 -7 -1 -17 -7
-23z m287 -7 c-1 -17 -8 -35 -17 -42 -13 -10 -14 -10 -3 2 15 18 16 34 0 24
-6 -4 -9 -3 -6 2 3 5 8 17 11 27 10 26 16 21 15 -13z m-248 -32 c0 -5 -7 -3
-15 6 -8 8 -15 18 -15 22 0 3 7 1 15 -6 8 -7 15 -17 15 -22z m3228 -34 c3 -33
-14 -49 -43 -38 -39 15 -22 78 19 72 15 -2 22 -11 24 -34z m3671 22 c14 -16 5
-43 -18 -55 -33 -17 -51 10 -35 53 8 20 38 21 53 2z m-6865 -31 c-4 -8 -7 -15
-9 -15 -2 0 -5 7 -9 15 -3 9 0 15 9 15 9 0 12 -6 9 -15z m5262 -44 c59 -36 69
-133 20 -186 -32 -35 -71 -44 -126 -31 -80 20 -115 110 -70 184 11 18 30 37
43 42 38 15 100 11 133 -9z m-2649 -54 c39 -39 17 -97 -37 -97 -16 0 -35 -3
-43 -6 -16 -6 -47 20 -47 39 0 7 14 30 31 50 27 32 36 37 58 32 14 -3 31 -12
38 -18z m4850 8 c29 -20 38 -62 18 -91 -12 -19 -21 -22 -48 -17 -50 9 -67 22
-67 49 0 26 40 74 62 74 8 0 23 -7 35 -15z m-4399 -47 c16 -16 15 -50 0 -70
-28 -35 -82 22 -64 67 7 18 47 20 64 3z m3926 6 c22 -9 20 -57 -4 -79 -16 -14
-18 -26 -13 -60 5 -38 2 -47 -20 -69 -41 -41 -87 -30 -87 20 0 26 45 84 66 84
11 0 12 4 4 19 -28 53 4 104 54 85z m-3724 -89 c16 -20 6 -45 -19 -45 -22 0
-41 27 -34 48 6 17 38 15 53 -3z m3518 -12 c2 -14 -4 -26 -18 -33 -26 -14 -40
-5 -40 25 0 39 53 47 58 8z m-3687 -16 c42 -32 47 -100 8 -112 -45 -15 -89 45
-75 100 7 28 39 33 67 12z m-666 -91 c84 -35 71 -146 -18 -146 -43 0 -65 16
-77 58 -14 51 -13 59 10 82 24 24 39 25 85 6z m5224 -10 c8 -10 14 -58 12 -97
-1 -9 -19 -24 -42 -34 -40 -19 -42 -19 -78 0 -41 23 -52 61 -28 99 30 45 109
64 136 32z m-4841 -17 c42 -43 51 -100 17 -113 -20 -7 -95 46 -102 72 -8 32
12 72 36 72 10 0 32 -14 49 -31z m557 11 c0 -8 -8 -16 -17 -18 -13 -2 -18 3
-18 18 0 15 5 20 18 18 9 -2 17 -10 17 -18z m3293 -2 c-7 -19 -38 -22 -38 -4
0 10 9 16 21 16 12 0 19 -5 17 -12z m590 -4 c50 -34 1 -106 -61 -90 -24 6 -27
11 -27 50 0 26 5 46 13 49 24 10 53 7 75 -9z m-4590 -30 c26 -18 28 -44 7 -84
-12 -24 -22 -30 -47 -30 -65 0 -89 60 -43 105 28 29 51 31 83 9z m876 1 c40
-41 27 -81 -29 -87 -27 -3 -30 0 -33 29 -6 60 28 91 62 58z m2976 -11 c6 -14
10 -36 10 -50 0 -20 -5 -24 -28 -24 -50 0 -69 44 -35 82 23 25 42 23 53 -8z
m910 -4 c40 -40 16 -100 -40 -100 -59 0 -98 89 -47 110 36 14 66 11 87 -10z
m-456 -89 c23 -24 27 -36 23 -63 -11 -70 -26 -124 -41 -153 -18 -33 -21 -65
-7 -65 5 0 33 24 61 54 43 45 56 54 78 50 14 -3 43 2 63 11 52 24 113 7 140
-39 20 -35 42 -46 92 -46 16 0 37 -5 47 -10 22 -12 44 -82 36 -115 -10 -40
-77 -50 -147 -21 -22 10 -39 50 -39 93 0 30 -3 34 -17 28 -65 -27 -74 -29
-100 -20 -18 7 -29 20 -35 43 -5 17 -14 32 -20 32 -7 0 -9 -23 -5 -72 4 -65 2
-80 -23 -134 -15 -34 -33 -64 -39 -68 -6 -4 -11 -12 -11 -18 0 -10 18 -8 82 8
36 8 48 -18 22 -47 -29 -32 -115 -76 -176 -90 -35 -7 -66 -21 -79 -36 -30 -31
-81 -30 -152 2 -65 30 -87 52 -63 61 12 4 16 19 16 55 0 45 4 54 41 92 54 55
66 85 74 191 5 76 4 91 -11 107 -11 13 -18 38 -19 72 -1 28 -5 59 -9 68 -16
36 48 65 74 34 17 -20 33 -19 61 5 33 27 51 25 83 -9z m468 -81 c13 0 19 -40
9 -59 -21 -39 -42 -51 -87 -51 l-44 0 0 55 c0 64 13 76 74 64 22 -5 44 -8 48
-9z m-4764 -23 c7 -15 14 -40 15 -55 2 -25 -1 -27 -44 -30 -41 -3 -49 0 -73
28 -47 56 -29 93 44 88 38 -3 47 -7 58 -31z m692 -276 c17 -33 12 -61 -10 -61
-23 0 -46 40 -37 64 9 22 34 20 47 -3z m3318 -5 c4 -18 -24 -56 -40 -56 -18 0
-20 31 -3 56 18 27 38 28 43 0z m-4186 -36 c65 -56 75 -132 23 -180 -31 -29
-31 -38 1 -75 14 -16 48 -74 76 -129 l49 -98 37 5 c27 3 50 -2 85 -21 42 -23
52 -24 79 -14 27 10 36 9 65 -9 19 -12 41 -32 50 -46 15 -23 15 -26 -3 -42
-26 -25 -122 -49 -226 -57 -49 -4 -88 -11 -88 -15 0 -13 -76 -49 -105 -49 -30
0 -100 42 -113 67 -6 10 -13 41 -17 70 -6 46 -5 52 14 58 30 9 26 28 -19 87
-22 29 -40 59 -40 66 0 25 50 91 71 94 12 2 27 11 33 21 9 15 7 22 -13 35 -13
9 -41 33 -63 53 -32 31 -38 43 -38 78 0 32 5 44 24 56 14 9 29 30 35 46 13 38
38 37 83 -1z m5101 -24 c37 -34 47 -50 47 -75 0 -48 -26 -88 -71 -111 -22 -12
-43 -28 -46 -36 -7 -19 14 -44 38 -44 12 0 27 -17 45 -51 l26 -52 -21 -28
c-12 -16 -31 -42 -42 -58 -26 -35 -18 -51 22 -51 39 0 34 -21 -7 -32 -36 -10
-86 -2 -144 22 -25 10 -61 21 -81 25 -21 3 -43 13 -50 21 -11 14 -10 18 6 30
10 8 24 14 31 14 7 0 29 30 50 68 20 37 52 86 70 109 19 23 34 48 34 55 0 8
-13 27 -30 43 -39 37 -41 87 -5 136 28 38 53 59 70 59 6 0 32 -20 58 -44z
m-359 -131 c11 -8 16 -18 12 -22 -3 -4 -16 3 -28 15 -25 25 -13 29 16 7z m-20
-136 c42 -33 29 -79 -23 -79 -25 0 -71 35 -71 53 0 17 32 47 50 47 10 0 29 -9
44 -21z m-4119 -119 c7 -12 -12 -40 -27 -40 -16 0 -21 32 -7 41 18 12 26 11
34 -1z m-2522 -95 c-7 -21 -13 -19 -13 6 0 11 4 18 10 14 5 -3 7 -12 3 -20z
m5823 -36 c8 -14 -14 -29 -43 -29 -24 0 -38 14 -28 30 8 14 62 13 71 -1z
m-2897 -180 c-25 -16 -32 -9 -13 12 12 13 20 16 22 9 3 -7 -2 -16 -9 -21z
m-42 -23 c3 -3 -12 -26 -33 -51 -34 -42 -41 -46 -68 -41 -38 8 -61 29 -53 51
14 35 129 66 154 41z m7 -92 c3 -9 6 -33 6 -55 0 -50 -26 -54 -35 -5 -11 54
13 102 29 60z m-134 -84 c29 -15 42 -47 45 -106 2 -44 -2 -57 -21 -75 -32 -30
-85 -28 -129 5 -44 34 -51 58 -30 112 24 63 84 91 135 64z m3480 -99 c0 -49
-66 -111 -120 -111 -25 0 -25 7 0 47 18 31 93 93 112 93 4 0 8 -13 8 -29z
m-3222 -240 c22 -16 43 -34 47 -40 7 -12 54 -15 79 -5 9 3 16 17 16 29 0 33
12 37 54 20 45 -19 64 -57 32 -65 -17 -5 -20 -12 -18 -47 3 -33 -1 -44 -20
-57 -43 -30 -104 -17 -141 31 -15 18 -28 23 -66 23 -26 0 -51 -3 -55 -7 -3 -4
15 -29 41 -56 46 -46 47 -49 29 -63 -27 -19 -135 -18 -186 2 -31 13 -40 22
-40 40 0 18 11 29 49 49 61 30 66 39 47 67 -22 31 -20 58 6 85 30 32 75 30
126 -6z m2953 7 c3 -31 -3 -65 -14 -87 -13 -26 -13 -26 63 -74 74 -48 20 -97
-106 -97 -101 0 -111 15 -53 77 l43 47 -24 7 c-50 14 -73 9 -111 -26 -31 -27
-48 -35 -78 -35 -44 0 -71 8 -71 21 0 17 57 60 95 71 22 7 60 25 85 40 101 63
169 85 171 56z m2796 -400 c-3 -8 -6 -5 -6 6 -1 11 2 17 5 13 3 -3 4 -12 1
-19z m-8250 -113 c0 -8 -4 -12 -9 -9 -5 3 -6 10 -3 15 9 13 12 11 12 -6z
m1631 -67 c4 -30 -12 -38 -22 -13 -4 12 -56 23 -56 13 0 -2 -11 -61 -24 -131
-19 -105 -20 -130 -9 -134 30 -11 10 -23 -39 -23 -52 0 -53 1 -32 18 17 13 26
43 43 140 12 67 19 127 16 132 -10 16 -33 11 -55 -12 -19 -21 -20 -21 -20 -2
0 37 20 45 110 42 85 -3 85 -3 88 -30z m1812 10 c0 -10 -9 -73 -21 -139 -11
-66 -18 -126 -15 -134 8 -21 60 -19 78 3 24 26 30 59 18 83 -10 18 -18 20 -47
16 -29 -5 -33 -4 -23 8 17 20 69 19 92 -2 11 -10 18 -30 18 -54 0 -30 -6 -43
-32 -64 -29 -24 -38 -27 -83 -21 -27 3 -62 6 -77 6 -16 0 -28 5 -28 10 0 6 7
10 15 10 20 0 28 24 50 154 17 101 17 109 1 118 -23 13 -12 25 24 25 23 0 30
-5 30 -19z m1610 4 c0 -8 -9 -70 -21 -138 -12 -69 -18 -131 -15 -139 8 -22 60
-18 81 5 22 24 24 78 4 91 -8 5 -27 7 -43 4 -24 -4 -27 -3 -16 10 7 8 26 15
43 15 70 0 92 -77 36 -132 -28 -29 -34 -30 -82 -24 -29 3 -64 6 -79 6 -16 0
-28 5 -28 10 0 6 7 10 15 10 21 0 29 26 50 154 16 101 16 110 1 118 -23 13
-12 25 24 25 19 0 30 -5 30 -15z m-3340 1 c0 -5 -7 -43 -15 -86 -19 -101 -19
-101 7 -83 55 39 94 11 79 -55 -8 -36 -8 -46 4 -55 25 -19 17 -24 -35 -24 -27
0 -50 5 -50 10 0 6 6 10 14 10 19 0 22 6 31 58 6 40 5 42 -17 42 -35 0 -55
-20 -62 -62 -6 -30 -4 -38 9 -38 8 0 15 -4 15 -10 0 -5 -22 -10 -50 -10 -49 0
-68 13 -32 22 26 7 69 247 47 264 -23 17 -18 24 20 24 19 0 35 -3 35 -7z
m1537 -25 c-37 -213 -41 -252 -29 -256 30 -10 8 -22 -40 -22 -52 0 -53 1 -31
18 18 14 26 40 43 136 15 84 18 122 11 129 -19 19 -12 27 20 27 30 0 31 -2 26
-32z m883 11 c0 -11 -10 -75 -22 -141 -19 -102 -20 -121 -8 -128 24 -15 5 -21
-46 -17 -38 3 -44 5 -27 11 24 9 25 11 50 160 14 86 15 110 5 114 -23 7 -12
22 18 22 24 0 30 -4 30 -21z m413 -1 c-36 -39 -56 -138 -28 -138 22 0 18 -17
-4 -23 -14 -3 -21 -17 -26 -51 -6 -39 -4 -49 11 -61 17 -13 13 -14 -41 -14
-60 -1 -60 -1 -36 18 25 19 44 111 22 111 -6 0 -11 5 -11 10 0 6 7 10 15 10 8
0 17 11 20 25 3 14 7 37 11 51 3 15 18 39 34 55 34 34 64 40 33 7z m-4336 -82
c-4 -9 -12 -16 -19 -16 -9 0 -9 3 -1 11 6 6 9 19 6 28 -5 13 -3 13 7 4 7 -6
10 -19 7 -27z m2686 -11 c-5 -41 -4 -45 16 -45 11 0 21 -4 21 -10 0 -5 -11
-10 -24 -10 -18 0 -25 -7 -30 -31 -12 -61 -8 -78 17 -72 l22 5 -24 -21 c-49
-44 -69 -19 -54 65 8 43 7 54 -4 54 -20 0 -16 17 6 23 12 3 24 20 32 46 16 55
30 52 22 -4z m961 13 c-3 -18 -7 -39 -10 -45 -2 -8 5 -13 16 -13 11 0 20 -4
20 -10 0 -5 -9 -10 -20 -10 -20 0 -22 -6 -34 -78 -5 -31 -4 -32 22 -26 l27 6
-25 -21 c-43 -36 -55 -24 -54 49 1 37 -3 68 -9 72 -7 4 -2 14 15 27 14 11 28
34 31 51 9 41 28 39 21 -2z m136 25 c0 -5 -4 -25 -9 -45 -8 -36 -8 -38 15 -38
13 0 24 -4 24 -10 0 -5 -11 -10 -25 -10 -20 0 -25 -6 -30 -37 -4 -21 -9 -46
-12 -56 -4 -15 0 -17 24 -12 l28 6 -24 -21 c-42 -36 -56 -23 -54 50 1 40 -3
67 -10 72 -7 4 -3 14 15 27 14 11 28 34 31 51 4 16 11 30 17 30 5 0 10 -3 10
-7z m1464 -25 c-3 -18 -7 -39 -10 -45 -2 -8 5 -13 16 -13 11 0 20 -4 20 -10 0
-5 -9 -10 -20 -10 -20 0 -22 -6 -34 -78 -5 -31 -4 -32 22 -26 l27 6 -25 -21
c-43 -36 -55 -24 -54 49 1 37 -3 68 -9 72 -7 4 -2 14 15 27 14 11 28 34 31 51
9 41 28 39 21 -2z m136 25 c0 -5 -4 -25 -9 -45 -8 -36 -8 -38 15 -38 13 0 24
-4 24 -10 0 -5 -11 -10 -25 -10 -20 0 -25 -6 -30 -37 -4 -21 -9 -46 -12 -56
-4 -15 0 -17 24 -12 l28 6 -24 -21 c-42 -36 -56 -23 -54 50 1 40 -3 67 -10 72
-7 4 -3 14 15 27 14 11 28 34 31 51 4 16 11 30 17 30 5 0 10 -3 10 -7z m1179
-30 c-12 -52 -12 -53 11 -53 11 0 20 -4 20 -10 0 -5 -9 -10 -19 -10 -21 0 -26
-10 -37 -73 -6 -37 -6 -38 20 -31 35 8 33 -2 -4 -21 -45 -23 -54 -12 -47 61 4
42 2 64 -5 66 -6 2 1 16 15 31 15 14 27 35 27 45 0 19 8 32 21 32 4 0 3 -17
-2 -37z m1244 23 c3 -8 0 -19 -6 -24 -9 -8 -12 -4 -13 14 -2 26 11 33 19 10z
m-58 -37 c4 -5 0 -18 -9 -28 -9 -10 -13 -20 -10 -24 4 -3 -5 -9 -20 -13 -14
-3 -26 -10 -26 -16 0 -5 -10 -8 -22 -6 -14 2 -22 -2 -20 -9 3 -20 -6 -15 -19
8 -6 12 -7 19 -1 15 11 -6 26 21 23 42 -1 6 5 12 13 12 8 0 17 6 19 13 4 9 8
8 16 -3 6 -8 12 -19 14 -25 2 -5 11 -3 20 6 12 12 13 19 4 28 -8 8 -8 11 0 11
7 0 15 -5 18 -11z m-7794 -26 c-8 -15 -10 -15 -11 -2 0 17 10 32 18 25 2 -3
-1 -13 -7 -23z m117 2 c-2 -16 -7 -21 -20 -17 -20 5 -20 5 -13 25 9 22 35 16
33 -8z m-164 0 c-4 -8 -8 -15 -10 -15 -2 0 -4 7 -4 15 0 8 4 15 10 15 5 0 7
-7 4 -15z m290 -1 c12 -5 13 -10 5 -26 -8 -15 -8 -19 0 -14 17 11 24 -20 10
-46 -7 -13 -13 -31 -14 -40 -2 -27 -15 -35 -15 -10 0 15 -6 22 -20 22 -16 0
-19 5 -16 25 3 14 1 23 -5 20 -5 -4 -9 4 -10 17 0 13 -3 17 -6 10 -4 -10 -8
-10 -19 -1 -22 18 -16 26 16 21 23 -3 30 0 30 12 0 17 17 20 44 10z m-189 -13
c3 -5 1 -12 -5 -16 -5 -3 -10 1 -10 9 0 18 6 21 15 7z m2875 -6 c8 -10 11 -32
7 -63 -4 -33 -1 -52 9 -63 13 -15 7 -17 -62 -23 -64 -5 -81 -3 -96 11 -25 22
-23 49 8 80 22 22 32 25 70 20 38 -4 44 -2 42 12 -3 12 -14 15 -48 14 -42 -3
-44 -2 -26 12 25 19 80 19 96 0z m620 0 c9 -10 10 -31 6 -67 -5 -37 -4 -53 6
-59 19 -12 9 -16 -68 -23 -59 -6 -74 -4 -88 9 -24 24 -20 61 10 84 27 22 94
29 94 11 0 -5 -13 -10 -28 -10 -15 0 -33 -5 -40 -12 -28 -28 -1 -75 38 -63 26
8 37 30 41 80 l4 40 -45 -2 c-42 -3 -44 -2 -26 12 25 19 80 19 96 0z m992 -12
c45 -41 0 -127 -73 -139 -71 -12 -116 66 -71 123 34 44 104 52 144 16z m150
-12 c-16 -14 -38 -41 -47 -60 -17 -33 -16 -35 1 -48 16 -11 12 -13 -32 -13
-43 1 -47 2 -32 14 21 16 37 106 19 106 -6 0 -11 5 -11 10 0 6 14 10 30 10 20
0 30 -5 30 -15 0 -9 8 -6 25 11 14 14 30 22 37 18 7 -5 0 -16 -20 -33z m1108
28 c0 -6 -10 -19 -23 -29 -13 -10 -32 -35 -42 -55 -20 -36 -20 -37 -1 -51 18
-13 16 -14 -29 -14 -45 0 -47 1 -33 18 20 22 34 102 19 102 -6 0 -11 5 -11 10
0 6 14 10 30 10 17 0 30 -5 30 -12 0 -7 10 -2 22 10 25 24 38 28 38 11z
m-3976 -15 c9 -8 16 -29 16 -45 0 -29 0 -29 -59 -29 -33 0 -63 5 -66 10 -4 6
11 10 39 10 48 0 60 8 50 34 -8 22 -67 21 -86 -1 -24 -29 -27 -49 -11 -73 13
-19 22 -22 59 -17 51 5 58 -6 13 -22 -45 -16 -63 -14 -93 10 -60 47 -9 139 78
139 27 0 51 -6 60 -16z m182 -11 c-16 -84 -18 -103 -7 -103 6 0 11 -4 11 -10
0 -5 -21 -10 -47 -10 -44 1 -46 2 -29 15 21 16 42 108 26 113 -22 8 -8 22 21
22 28 0 30 -2 25 -27z m98 11 c6 -16 8 -16 24 0 10 9 31 16 47 16 l28 0 -7
-65 c-4 -42 -3 -65 4 -65 5 0 10 -4 10 -10 0 -5 -21 -10 -47 -10 l-47 0 22 20
c12 12 23 34 24 50 0 17 1 36 2 43 1 6 -6 10 -14 8 -8 -2 -22 -4 -31 -5 -21 0
-35 -82 -18 -102 9 -12 3 -14 -37 -14 -40 0 -45 2 -31 13 17 12 40 94 31 109
-3 4 -14 4 -24 -2 -29 -16 -35 -12 -15 10 22 24 70 27 79 4z m300 0 c9 -8 16
-29 16 -45 0 -29 0 -29 -59 -29 -33 0 -63 5 -66 10 -4 6 11 10 39 10 48 0 60
8 50 34 -8 22 -67 21 -86 -1 -24 -29 -27 -49 -11 -73 13 -19 22 -22 59 -17 51
5 58 -6 13 -22 -45 -16 -63 -14 -93 10 -62 49 -11 139 79 139 26 0 50 -6 59
-16z m105 -16 c-1 -18 -4 -46 -8 -63 -5 -21 -2 -34 9 -42 12 -10 7 -12 -32
-13 -46 0 -63 12 -34 23 19 7 34 99 17 105 -22 7 -10 22 19 22 27 0 30 -3 29
-32z m96 19 c3 -7 1 -35 -4 -62 -6 -31 -6 -54 0 -61 7 -9 -2 -13 -31 -16 -39
-3 -54 5 -26 15 14 6 33 103 22 114 -3 3 -12 0 -21 -7 -9 -7 -19 -10 -23 -6
-10 11 28 36 55 36 13 0 26 -6 28 -13z m1549 -3 c9 -8 16 -29 16 -45 0 -29 0
-29 -59 -29 -33 0 -63 5 -66 10 -4 6 11 10 39 10 48 0 60 8 50 34 -8 22 -67
21 -86 -1 -24 -29 -27 -49 -11 -73 14 -19 22 -22 59 -16 51 7 58 -7 13 -23
-45 -16 -63 -14 -93 10 -62 49 -11 139 79 139 26 0 50 -6 59 -16z m1022 -9
c29 -44 16 -60 -54 -63 -38 -2 -62 1 -62 8 0 5 21 10 46 10 41 0 45 2 42 23
-4 31 -59 36 -87 8 -48 -48 -12 -99 61 -87 48 8 43 -8 -8 -24 -63 -21 -126 26
-109 80 14 44 54 70 106 70 40 0 51 -4 65 -25z m458 6 c10 -11 16 -30 14 -43
-3 -21 -9 -23 -65 -26 -39 -2 -63 1 -63 8 0 5 20 10 44 10 49 0 65 13 46 35
-20 24 -66 18 -89 -11 -26 -33 -26 -46 -1 -69 15 -14 29 -16 60 -11 48 7 53
-7 9 -23 -45 -16 -63 -14 -93 10 -62 48 -11 139 78 139 30 0 48 -6 60 -19z
m241 -41 c-5 -42 -3 -65 5 -75 11 -13 6 -15 -34 -15 -44 0 -61 12 -32 23 19 7
34 99 17 105 -23 8 -10 22 20 22 l31 0 -7 -60z m101 45 c3 -8 1 -35 -4 -62 -9
-40 -8 -49 6 -60 15 -10 10 -12 -33 -12 -43 0 -48 1 -33 12 17 13 38 117 24
117 -4 0 -16 -5 -27 -10 -24 -14 -26 5 -1 19 25 15 62 13 68 -4z m96 -48 c-2
-35 2 -64 9 -73 10 -12 4 -14 -35 -14 -44 0 -61 12 -32 23 13 5 33 94 23 104
-3 2 -15 0 -26 -7 -13 -6 -21 -7 -21 -1 0 16 33 31 60 28 24 -2 25 -4 22 -60z
m217 32 c25 -44 10 -59 -59 -59 -33 0 -60 4 -60 10 0 6 21 10 46 10 41 0 45 2
42 23 -7 51 -108 21 -108 -32 0 -36 29 -54 78 -47 37 5 43 4 33 -8 -34 -40
-132 -21 -145 28 -15 59 39 107 114 103 36 -2 47 -7 59 -28z m101 14 c0 -15 1
-15 18 0 10 10 31 17 47 17 l28 0 -7 -70 c-5 -53 -3 -70 6 -71 7 -1 -5 -5 -27
-8 -48 -8 -62 -3 -40 13 16 12 38 93 29 108 -2 3 -17 1 -33 -5 -23 -8 -30 -18
-35 -50 -4 -24 -2 -45 5 -53 9 -12 3 -14 -37 -14 -47 0 -48 0 -27 19 23 21 40
104 23 109 -22 8 -9 22 20 22 21 0 30 -5 30 -17z m1418 -8 c-3 -3 -9 2 -12 12
-6 14 -5 15 5 6 7 -7 10 -15 7 -18z m-7772 -91 c-4 -9 -9 -15 -11 -12 -3 3 -3
13 1 22 4 9 9 15 11 12 3 -3 3 -13 -1 -22z m26 -6 c-7 -7 -12 -8 -12 -2 0 6 3
14 7 17 3 4 9 5 12 2 2 -3 -1 -11 -7 -17z m7695 -69 c7 -7 7 -25 1 -55 -6 -25
-8 -85 -6 -133 2 -68 0 -87 -9 -84 -7 3 -13 1 -13 -4 0 -5 -12 -8 -27 -7 -16
1 -32 -1 -38 -5 -5 -3 -18 -6 -27 -7 -10 -1 -25 -2 -34 -3 -8 0 -13 -4 -11 -8
3 -5 -23 -7 -56 -7 -34 1 -66 -1 -72 -5 -10 -6 -16 -7 -47 -9 -11 -1 -18 -11
-19 -24 -1 -22 -1 -22 -8 2 -6 22 -13 25 -51 25 -25 0 -49 -2 -55 -5 -24 -11
-61 -14 -92 -7 -18 5 -23 2 -23 -14 0 -11 -4 -18 -10 -14 -5 3 -7 11 -4 18 3
8 -4 13 -16 13 -13 0 -19 -5 -16 -13 3 -7 1 -13 -4 -13 -6 0 -10 5 -10 11 0 5
-5 7 -10 4 -6 -4 -16 -2 -23 3 -16 13 -47 11 -48 -2 0 -6 -4 -2 -9 9 -5 11 -9
15 -9 10 -1 -11 -63 -11 -81 0 -7 4 -14 -2 -17 -15 -4 -15 -8 -18 -13 -9 -5 6
-15 9 -25 6 -9 -4 -13 -11 -10 -17 3 -5 1 -10 -4 -10 -6 0 -12 8 -12 18 -1 16
-2 16 -6 0 -3 -14 -9 -16 -23 -8 -13 7 -21 7 -25 0 -4 -6 -15 -8 -26 -5 -11 4
-19 2 -19 -5 0 -6 -5 -8 -10 -5 -6 4 -8 12 -4 18 3 7 0 5 -8 -4 -7 -9 -19 -14
-27 -11 -10 3 -11 0 -5 -9 6 -11 3 -10 -11 1 -14 11 -19 12 -22 3 -4 -10 -8
-9 -19 2 -13 13 -18 13 -40 -1 -13 -9 -27 -14 -30 -11 -5 5 39 35 225 152 30
19 57 32 61 30 4 -3 15 4 25 15 29 32 53 24 46 -14 -1 -5 5 -4 13 4 18 14 22
25 6 15 -5 -3 -10 0 -10 7 0 8 9 14 20 15 11 1 18 -2 15 -7 -3 -5 0 -12 6 -16
7 -4 9 -3 6 3 -4 6 0 19 8 29 13 18 14 18 8 -6 -5 -21 -3 -23 8 -12 7 6 21 12
31 12 10 0 18 5 18 12 0 9 3 9 11 1 9 -9 17 -6 32 8 16 14 23 16 29 7 6 -10
10 -10 16 -2 4 6 22 10 40 9 17 -1 32 1 32 6 0 4 20 11 44 14 53 8 158 -14
263 -55 40 -15 76 -24 79 -19 3 5 -4 30 -15 55 -27 59 -27 84 -2 84 11 0 23 5
26 11 4 6 13 8 21 5 8 -3 14 0 14 7 0 8 4 7 10 -3 9 -13 11 -13 20 0 7 11 10
11 10 2 0 -8 8 -5 22 8 25 23 30 24 45 9z m-7490 -341 c-3 -8 -6 -5 -6 6 -1
11 2 17 5 13 3 -3 4 -12 1 -19z m898 -7 c3 -5 1 -12 -4 -15 -5 -3 -11 1 -15 9
-6 16 9 21 19 6z m-528 -43 c-3 -7 -5 -2 -5 12 0 14 2 19 5 13 2 -7 2 -19 0
-25z m6395 7 c-2 -14 -8 -25 -13 -25 -12 0 -11 7 1 31 14 26 18 24 12 -6z
m592 10 c-7 -16 -24 -21 -24 -6 0 8 7 13 27 20 1 1 0 -6 -3 -14z m153 -7 c-3
-8 -6 -5 -6 6 -1 11 2 17 5 13 3 -3 4 -12 1 -19z m-976 -25 c-10 -17 -10 -16
-11 3 0 23 13 41 18 25 2 -6 -1 -18 -7 -28z m-188 -3 c-4 -14 3 -28 21 -43 14
-12 26 -28 26 -34 0 -6 7 -13 15 -17 8 -3 15 -1 15 4 0 13 33 -1 44 -19 8 -13
10 -12 17 4 7 18 8 17 8 -5 1 -20 3 -22 11 -10 5 8 10 11 10 6 0 -6 7 -1 15
10 14 19 14 19 15 -1 1 -17 3 -16 11 5 10 24 11 24 25 6 8 -11 14 -24 14 -28
0 -5 12 -5 26 -2 21 5 25 4 19 -6 -5 -9 -4 -11 3 -6 7 4 12 14 12 22 0 14 2
14 16 0 8 -9 12 -21 8 -27 -4 -7 1 -7 16 1 20 11 22 10 16 -5 -4 -12 -2 -16 8
-12 8 3 16 -2 19 -14 3 -10 1 -17 -3 -14 -5 3 -11 1 -15 -5 -4 -6 -11 -8 -16
-4 -5 3 -9 2 -8 -3 1 -4 1 -17 0 -28 -2 -17 -4 -15 -18 9 -15 28 -16 29 -29
11 -8 -10 -14 -23 -14 -28 0 -5 -6 -5 -13 1 -7 6 -22 11 -32 10 -11 0 -24 0
-30 2 -22 5 -35 -1 -36 -17 0 -14 -2 -13 -9 5 -10 24 -30 30 -30 10 0 -9 -4
-8 -10 2 -7 12 -11 8 -16 -17 -5 -23 -10 -30 -22 -26 -10 4 -13 2 -8 -5 3 -6
1 -14 -5 -18 -7 -4 -9 -3 -5 4 3 6 2 13 -3 16 -5 4 -13 2 -16 -4 -5 -8 -11 -7
-21 1 -11 9 -14 8 -14 -6 0 -15 -2 -15 -16 -4 -13 10 -17 10 -25 -2 -5 -8 -9
-9 -9 -4 0 6 -5 3 -10 -5 -8 -12 -13 -13 -30 -2 -17 10 -20 10 -20 -4 0 -11
-5 -14 -16 -10 -10 4 -18 -1 -21 -14 -5 -18 -7 -18 -29 -3 -13 8 -24 11 -24 7
0 -5 -5 -1 -11 9 -13 22 -33 23 -25 1 5 -14 4 -15 -9 -4 -12 10 -15 10 -15 0
0 -10 -3 -10 -15 0 -12 10 -15 10 -16 -1 0 -10 -2 -11 -6 -1 -2 6 -9 9 -14 6
-6 -3 -20 -7 -32 -8 -12 -2 -33 -6 -47 -10 -19 -6 -21 -5 -10 3 8 6 10 11 4
11 -14 0 -26 -15 -41 -52 -10 -22 -9 -29 4 -40 11 -8 14 -8 10 -1 -4 6 -3 14
2 17 5 4 12 2 16 -4 4 -6 11 -8 16 -5 5 4 9 1 9 -5 0 -6 5 -8 10 -5 6 4 7 11
4 17 -4 7 -2 8 4 4 7 -4 12 -15 12 -24 0 -14 2 -13 13 3 11 14 16 15 22 5 6
-9 4 -11 -5 -5 -9 5 -11 4 -6 -4 10 -15 27 -4 20 14 -4 10 0 12 15 8 12 -3 21
-9 21 -14 0 -5 9 -18 20 -29 12 -12 18 -25 15 -30 -4 -6 -1 -10 4 -10 6 0 11
5 11 10 0 18 17 10 28 -12 6 -13 11 -17 11 -10 1 9 6 10 20 2 13 -7 22 -7 26
0 8 13 25 13 25 -1 0 -5 -5 -7 -11 -3 -7 4 -10 1 -7 -7 13 -40 -161 -109 -352
-139 -41 -7 -78 -18 -82 -24 -6 -8 -10 -8 -16 1 -5 7 -35 18 -68 24 -100 18
-200 73 -279 153 l-70 71 3 -84 c3 -81 -6 -144 -30 -204 -10 -26 -12 -27 -29
-11 -10 9 -23 13 -28 9 -6 -3 -11 1 -11 9 0 10 -6 13 -17 9 -10 -4 -14 -2 -9
5 3 6 -3 16 -14 22 -11 6 -20 7 -20 3 0 -4 -6 -1 -13 8 -7 8 -27 22 -44 30
-18 7 -33 19 -33 24 0 13 -40 49 -58 51 -27 5 -26 16 3 41 17 14 53 47 82 74
28 27 53 44 55 38 2 -7 11 -5 23 7 10 11 22 19 26 19 4 0 11 3 15 8 4 4 2 7
-5 7 -7 0 -10 4 -7 8 3 5 -1 9 -9 9 -8 0 -15 -5 -15 -10 0 -6 -2 -8 -5 -6 -2
3 5 37 16 75 13 44 21 101 22 159 l1 90 47 -47 c57 -57 138 -110 200 -131 149
-51 357 -18 572 90 48 24 92 41 96 38 5 -2 20 4 34 15 l25 20 6 -23 c5 -22 36
-35 36 -16 0 5 11 4 24 -1 32 -12 48 5 34 36 -6 12 -8 30 -5 38 9 23 16 20 10
-4z m-6449 -31 c-7 -13 -24 7 -24 29 0 10 4 10 16 -2 8 -9 12 -21 8 -27z m218
19 c-7 -7 -12 -8 -12 -2 0 6 3 14 7 17 3 4 9 5 12 2 2 -3 -1 -11 -7 -17z
m6335 0 c-3 -8 -6 -5 -6 6 -1 11 2 17 5 13 3 -3 4 -12 1 -19z m58 -6 c-10 -10
-35 -11 -35 -1 0 5 5 9 11 9 5 0 7 6 3 13 -5 8 -2 7 9 -2 10 -8 15 -16 12 -19z
m716 1 c-8 -15 -10 -15 -11 -2 0 17 10 32 18 25 2 -3 -1 -13 -7 -23z m173 19
c2 -4 -2 -15 -9 -25 -15 -20 -31 -6 -21 18 6 16 22 20 30 7z m-7574 -17 c0 -8
-4 -15 -10 -15 -5 0 -10 7 -10 15 0 8 5 15 10 15 6 0 10 -7 10 -15z m936 -12
c-10 -10 -19 5 -10 18 6 11 8 11 12 0 2 -7 1 -15 -2 -18z m194 -4 c0 -11 -4
-17 -10 -14 -5 3 -10 13 -10 21 0 8 5 14 10 14 6 0 10 -9 10 -21z m5456 -16
c-11 -11 -17 4 -9 23 7 18 8 18 11 1 2 -10 1 -21 -2 -24z m-5396 13 c0 -8 -4
-18 -10 -21 -5 -3 -10 3 -10 14 0 12 5 21 10 21 6 0 10 -6 10 -14z m-664 -23
c-10 -10 -19 5 -10 18 6 11 8 11 12 0 2 -7 1 -15 -2 -18z m6332 0 c10 -18 9
-20 -7 -16 -13 3 -17 11 -14 24 6 22 6 22 21 -8z m-6508 13 c0 -3 -4 -8 -10
-11 -5 -3 -10 -1 -10 4 0 6 5 11 10 11 6 0 10 -2 10 -4z m580 -20 c0 -3 -4 -8
-10 -11 -5 -3 -10 -1 -10 4 0 6 5 11 10 11 6 0 10 -2 10 -4z m6080 -30 c0 -14
-4 -28 -10 -31 -6 -4 -10 7 -10 24 0 17 5 31 10 31 6 0 10 -11 10 -24z m-6010
0 c0 -3 -4 -8 -10 -11 -5 -3 -10 -1 -10 4 0 6 5 11 10 11 6 0 10 -2 10 -4z
m-251 -38 c-5 -10 -7 -23 -4 -28 3 -6 1 -10 -5 -10 -13 0 -24 26 -17 43 3 8
12 14 21 14 11 0 13 -5 5 -19z m41 -39 c0 -3 -6 -6 -14 -6 -8 0 -11 8 -8 20 4
14 7 16 13 5 5 -7 9 -16 9 -19z m140 -63 c0 -8 -4 -18 -10 -21 -5 -3 -10 3
-10 14 0 12 5 21 10 21 6 0 10 -6 10 -14z m5751 -69 c-8 -8 -11 -7 -11 4 0 20
13 34 18 19 3 -7 -1 -17 -7 -23z m-5765 -4 c-10 -10 -19 5 -10 18 6 11 8 11
12 0 2 -7 1 -15 -2 -18z m221 5 c-3 -8 -6 -5 -6 6 -1 11 2 17 5 13 3 -3 4 -12
1 -19z m445 -71 c3 -15 0 -24 -9 -24 -13 0 -18 29 -6 40 9 10 10 9 15 -16z
m4946 -16 c2 -32 -15 -52 -24 -27 -5 12 10 56 19 56 2 0 4 -13 5 -29z m-208
-5 c0 -3 -4 -8 -10 -11 -5 -3 -10 -1 -10 4 0 6 5 11 10 11 6 0 10 -2 10 -4z
m-5333 -28 c-3 -8 -6 -5 -6 6 -1 11 2 17 5 13 3 -3 4 -12 1 -19z m184 -1 c-10
-9 -11 -8 -5 6 3 10 9 15 12 12 3 -3 0 -11 -7 -18z m5297 2 c9 -13 9 -16 -3
-16 -8 0 -15 9 -15 20 0 11 1 18 3 16 1 -2 8 -11 15 -20z m-113 -9 c3 -5 1
-10 -4 -10 -6 0 -11 5 -11 10 0 6 2 10 4 10 3 0 8 -4 11 -10z m40 -39 c-6 -5
-25 10 -25 20 0 5 6 4 14 -3 8 -7 12 -15 11 -17z m115 22 c0 -5 -4 -14 -9 -21
-7 -11 -9 -11 -14 1 -3 8 -3 18 0 21 9 8 23 7 23 -1z m-5203 -25 c-3 -8 -6 -5
-6 6 -1 11 2 17 5 13 3 -3 4 -12 1 -19z m3870 -130 c-3 -7 -5 -2 -5 12 0 14 2
19 5 13 2 -7 2 -19 0 -25z m130 -50 c-3 -7 -5 -2 -5 12 0 14 2 19 5 13 2 -7 2
-19 0 -25z m-3047 -40 c0 -5 -4 -7 -9 -4 -5 4 -11 1 -13 -6 -2 -6 -9 -8 -16
-4 -18 11 -3 34 19 29 10 -3 19 -10 19 -15z m2570 18 c0 -3 -4 -8 -10 -11 -5
-3 -10 -1 -10 4 0 6 5 11 10 11 6 0 10 -2 10 -4z m330 -25 c0 -11 -4 -23 -10
-26 -5 -3 -11 -18 -11 -33 -1 -19 -3 -21 -6 -9 -7 26 6 87 17 87 6 0 10 -9 10
-19z m-611 -81 c0 -10 -3 -8 -9 5 -12 27 -12 43 0 25 5 -8 9 -22 9 -30z m167
14 c-4 -9 -9 -15 -11 -12 -3 3 -3 13 1 22 4 9 9 15 11 12 3 -3 3 -13 -1 -22z
m74 -11 c0 -34 -1 -35 -14 -18 -7 10 -11 27 -8 37 8 31 22 20 22 -19z m-277 2
c-3 -9 -8 -14 -10 -11 -3 3 -2 9 2 15 9 16 15 13 8 -4z m304 -7 c-3 -8 -6 -5
-6 6 -1 11 2 17 5 13 3 -3 4 -12 1 -19z m-461 -18 c3 0 2 5 -1 10 -3 6 3 10
14 10 12 0 21 -4 21 -10 0 -5 -4 -10 -10 -10 -5 0 -6 -7 -3 -17 4 -11 3 -14
-5 -9 -8 5 -12 0 -12 -14 0 -12 -4 -19 -9 -16 -5 3 -12 -1 -15 -10 -9 -24 -7
-44 4 -44 6 0 9 3 9 8 -3 18 2 32 11 32 6 0 10 -8 10 -19 0 -10 6 -24 13 -30
10 -8 14 -7 14 4 0 8 -4 12 -9 9 -4 -3 -8 -3 -8 1 0 6 52 29 62 27 4 -1 5 12
1 28 -3 19 -1 30 6 30 6 0 11 -12 11 -27 1 -26 2 -27 15 -10 13 18 14 18 25
-2 13 -25 32 -28 28 -5 -2 10 3 19 11 22 10 3 13 -3 9 -26 -3 -25 -1 -30 14
-29 10 1 18 5 18 9 0 4 5 8 10 8 7 0 7 -6 0 -20 -7 -14 -7 -20 0 -20 5 0 10 6
10 14 0 25 18 28 30 5 8 -15 8 -19 1 -15 -7 5 -8 1 -4 -10 4 -11 -1 -22 -13
-32 -15 -11 -15 -13 -2 -9 9 3 22 -1 29 -9 10 -12 9 -13 -5 -8 -9 3 -16 2 -16
-3 0 -18 13 -22 34 -12 12 6 6 -3 -14 -21 -24 -21 -29 -30 -18 -30 21 0 32
-16 17 -26 -8 -4 -9 -3 -5 4 11 19 -5 14 -20 -5 -13 -17 -14 -17 -8 2 7 20 7
20 -13 0 -11 -12 -20 -32 -19 -45 1 -18 -4 -24 -15 -22 -9 1 -16 -4 -16 -12 0
-7 7 -13 15 -12 8 1 16 -4 18 -9 2 -6 -22 -16 -53 -23 -185 -42 -327 -103
-431 -184 -111 -87 -178 -171 -244 -310 -24 -48 -46 -88 -49 -88 -3 0 -20 32
-37 71 -18 39 -52 101 -77 139 -45 67 -182 207 -193 196 -3 -3 -12 3 -19 14
-17 25 -130 83 -143 75 -6 -4 -10 -2 -10 4 0 12 -57 41 -81 41 -10 0 -21 5
-24 10 -3 6 -1 10 4 10 6 0 11 5 11 11 0 5 -4 8 -9 5 -4 -3 -6 6 -3 19 2 15 0
25 -7 25 -7 0 -10 3 -8 8 8 13 -12 52 -28 52 -8 0 -15 6 -15 13 0 8 -4 7 -10
-3 -6 -9 -10 -11 -10 -3 0 7 -7 10 -15 7 -10 -4 -14 -14 -10 -28 2 -11 -2 -7
-10 9 -10 20 -14 24 -15 12 0 -10 -5 -15 -10 -12 -11 7 -8 64 4 84 5 7 15 10
24 6 21 -8 31 12 25 52 -4 22 -2 33 7 33 7 0 10 7 6 15 -3 8 -2 14 2 14 4 -1
10 0 15 1 4 1 10 3 15 4 4 1 16 7 27 13 14 8 36 8 75 1 30 -6 71 -12 90 -13
35 -3 36 -2 32 32 -3 25 -7 31 -13 22 -7 -11 -9 -10 -9 3 0 12 -5 16 -17 12
-15 -5 -15 -4 -4 4 36 26 243 -120 272 -191 7 -18 20 -37 28 -43 8 -6 11 -16
7 -22 -5 -8 1 -12 14 -12 12 0 18 -4 15 -10 -3 -5 0 -10 8 -10 13 0 41 -49 38
-65 -1 -3 8 -14 19 -25 11 -11 20 -26 20 -34 0 -7 6 -19 14 -25 11 -10 21 2
51 64 21 41 42 75 47 75 5 0 7 4 4 8 -2 4 4 19 15 32 l19 25 1 -30 c1 -16 1
-33 1 -36 -1 -9 55 -6 63 3 4 4 13 4 21 1 10 -4 14 3 14 20 0 14 5 29 10 32
13 8 13 45 -1 45 -5 0 -8 -4 -5 -8 2 -4 1 -14 -4 -22 -7 -11 -9 -9 -7 8 1 22
33 50 44 39 4 -4 10 -27 12 -48 1 -7 31 -21 31 -14 0 2 -7 11 -16 19 -9 9 -11
16 -4 16 6 0 8 5 5 10 -3 6 -1 10 5 10 7 0 10 -7 7 -15 -4 -8 -1 -17 5 -21 7
-5 9 4 4 28 -5 26 -2 39 9 48 8 7 15 18 15 26 0 19 20 28 33 15 17 -17 38 18
24 41 -9 13 -8 21 0 29 10 10 15 6 23 -17 10 -25 13 -27 23 -13 7 9 19 15 27
14 8 -1 24 1 35 6 19 7 19 8 1 8 -15 1 -16 4 -6 16 7 8 9 15 4 15 -5 0 -2 4 6
10 12 8 12 10 -3 16 -9 3 -17 10 -17 14 0 14 34 16 48 3 7 -7 16 -13 18 -13z
m334 -2 c0 -10 -4 -18 -10 -18 -5 0 -10 2 -10 4 0 2 -2 11 -5 19 -4 8 0 14 10
14 8 0 15 -9 15 -19z m473 -3 c-7 -19 -19 -19 -26 -1 -3 8 -1 17 6 19 18 6 27
-2 20 -18z m-762 -8 c-10 -9 -11 -8 -5 6 3 10 9 15 12 12 3 -3 0 -11 -7 -18z
m33 -14 c-3 -21 -11 -42 -17 -48 -7 -7 -8 -4 -3 9 5 16 4 17 -8 7 -12 -10 -14
-9 -9 8 3 12 9 18 14 15 5 -3 9 6 9 20 0 14 5 26 10 26 7 0 8 -14 4 -37z m229
-7 c7 4 9 3 4 -1 -8 -10 -48 -15 -43 -6 2 3 7 15 11 26 8 19 9 19 12 -3 3 -14
9 -20 16 -16z m-393 14 c0 -5 -5 -10 -11 -10 -5 0 -7 5 -4 10 3 6 8 10 11 10
2 0 4 -4 4 -10z m-1432 -37 c-4 -34 -28 -43 -28 -10 0 25 7 37 22 37 5 0 8
-12 6 -27z m19 5 c-3 -8 -6 -5 -6 6 -1 11 2 17 5 13 3 -3 4 -12 1 -19z m2241
-23 c0 -14 -4 -25 -9 -25 -5 0 -8 11 -7 25 1 14 5 25 9 25 4 0 7 -11 7 -25z
m-2195 -13 c3 7 6 4 6 -7 1 -14 -5 -21 -19 -21 -13 0 -20 7 -20 19 0 16 3 17
14 8 11 -9 15 -9 19 1z m87 -14 c0 -7 -7 -22 -15 -32 -12 -16 -15 -17 -15 -4
0 24 11 48 21 48 5 0 9 -6 9 -12z m1690 -17 c0 -5 -3 -17 -6 -25 -5 -13 -9
-14 -20 -5 -11 9 -11 15 -3 25 13 16 29 18 29 5z m183 -4 c3 -7 -2 -22 -9 -32
-14 -19 -14 -18 -10 5 2 14 5 28 5 33 1 11 8 8 14 -6z m130 -2 c-3 -9 -8 -14
-10 -11 -3 3 -2 9 2 15 9 16 15 13 8 -4z m-883 -35 c0 -11 -4 -20 -10 -20 -5
0 -10 9 -10 20 0 11 5 20 10 20 6 0 10 -9 10 -20z m-1020 -25 c0 -5 -5 -3 -10
5 -5 8 -10 11 -10 7 0 -5 -5 -5 -11 -1 -8 4 -7 9 2 15 13 8 29 -6 29 -26z m27
15 c-3 -10 -1 -21 4 -24 5 -2 4 -3 -3 -2 -17 3 -23 46 -8 46 7 0 10 -8 7 -20z
m1700 -2 c-3 -8 -6 -5 -6 6 -1 11 2 17 5 13 3 -3 4 -12 1 -19z m230 0 c-3 -8
-6 -5 -6 6 -1 11 2 17 5 13 3 -3 4 -12 1 -19z m-990 -2 c0 -8 -11 -19 -24 -25
-20 -9 -23 -8 -21 7 5 30 45 46 45 18z m703 -16 c0 -5 -4 -10 -10 -10 -5 0
-10 5 -10 10 0 6 5 10 10 10 6 0 10 -4 10 -10z m153 -51 c-11 -11 -15 18 -5
41 4 11 7 8 10 -9 2 -13 0 -27 -5 -32z m102 -13 c6 -27 4 -37 -3 -32 -6 4 -8
14 -5 24 6 15 5 16 -12 2 -11 -9 -16 -10 -11 -2 4 7 2 12 -4 12 -6 0 -8 5 -4
11 4 8 9 7 16 -2 7 -10 8 -3 4 21 -8 48 10 17 19 -34z m89 49 c3 -8 1 -15 -4
-15 -6 0 -10 7 -10 15 0 8 2 15 4 15 2 0 6 -7 10 -15z m-2512 -17 c-7 -7 -12
-8 -12 -2 0 14 12 26 19 19 2 -3 -1 -11 -7 -17z m25 -15 c-3 -10 -5 -4 -5 12
0 17 2 24 5 18 2 -7 2 -21 0 -30z m413 18 c0 -6 -4 -13 -10 -16 -5 -3 -10 1
-10 9 0 9 5 16 10 16 6 0 10 -4 10 -9z m1670 -1 c0 -5 7 -10 15 -10 21 0 54
-52 36 -58 -7 -2 -20 -13 -29 -23 -9 -10 -20 -15 -25 -12 -6 4 -8 0 -4 -10 9
-25 -36 -47 -50 -25 -3 7 -1 8 5 4 7 -4 12 -1 12 6 0 9 3 9 10 -2 8 -11 10 1
8 42 -1 32 -4 56 -6 53 -3 -3 -11 0 -19 6 -10 9 -10 15 -2 25 13 16 49 19 49
4z m83 -20 c-3 -12 -8 -19 -11 -16 -5 6 5 36 12 36 2 0 2 -9 -1 -20z m87 10
c0 -5 -5 -10 -11 -10 -5 0 -7 5 -4 10 3 6 8 10 11 10 2 0 4 -4 4 -10z m-2400
-33 c0 -5 -4 -5 -10 -2 -5 3 -10 14 -10 23 0 15 2 15 10 2 5 -8 10 -19 10 -23z
m30 18 c0 -8 -4 -15 -10 -15 -5 0 -7 7 -4 15 4 8 8 15 10 15 2 0 4 -7 4 -15z
m2308 -9 c-5 -24 -4 -24 21 -8 24 16 25 16 18 -2 -4 -10 -3 -24 3 -31 8 -9 4
-12 -14 -10 -14 2 -30 7 -37 11 -9 5 -10 2 -6 -9 4 -11 -1 -18 -16 -23 -12 -4
-23 -2 -25 5 -2 6 -9 8 -15 5 -9 -5 -8 -3 0 6 9 10 15 10 26 1 15 -12 15 -10
32 52 2 4 3 12 4 17 0 6 4 10 7 10 4 0 4 -11 2 -24z m152 -1 c0 -8 -5 -17 -10
-20 -6 -4 -8 -15 -5 -26 5 -14 2 -19 -13 -19 -11 0 -35 -2 -53 -5 -32 -5 -33
-5 -9 6 15 7 20 13 13 16 -7 3 -13 17 -12 31 0 15 3 22 5 16 3 -7 14 -9 26 -6
16 4 19 2 13 -8 -5 -9 -4 -11 4 -6 6 4 9 12 6 17 -4 5 -1 9 5 9 6 0 8 4 5 10
-3 6 1 7 9 4 9 -3 16 -12 16 -19z m140 3 c0 -11 -12 -10 -30 2 -12 7 -10 9 8
7 12 0 22 -5 22 -9z m-2426 -46 c-7 -24 -12 -26 -34 -12 -12 8 -12 10 -1 10 8
0 12 3 8 6 -8 9 16 34 25 25 4 -3 5 -16 2 -29z m2376 34 c0 -3 -4 -8 -10 -11
-5 -3 -10 -1 -10 4 0 6 5 11 10 11 6 0 10 -2 10 -4z m-1997 -22 c7 -7 -14 -44
-25 -44 -5 0 -8 8 -8 18 0 27 18 41 33 26z m1617 -4 c0 -5 -4 -10 -10 -10 -5
0 -10 5 -10 10 0 6 5 10 10 10 6 0 10 -4 10 -10z m-30 -30 c0 -11 -2 -20 -4
-20 -2 0 -6 9 -9 20 -3 11 -1 20 4 20 5 0 9 -9 9 -20z m-1880 -10 c0 -5 -4
-10 -10 -10 -5 0 -10 5 -10 10 0 6 5 10 10 10 6 0 10 -4 10 -10z m180 -22 c0
-18 -2 -20 -9 -8 -6 8 -7 18 -5 22 9 14 14 9 14 -14z m1800 1 c0 -5 -4 -9 -10
-9 -5 0 -10 7 -10 16 0 8 5 12 10 9 6 -3 10 -10 10 -16z m-1866 -14 c-4 -8 -8
-15 -10 -15 -2 0 -4 7 -4 15 0 8 4 15 10 15 5 0 7 -7 4 -15z m1839 -70 c-3 -9
-8 -14 -10 -11 -3 3 -2 9 2 15 9 16 15 13 8 -4z"/>
<path d="M6669 9858 c21 -44 25 -67 29 -184 5 -133 5 -134 28 -134 24 0 24 1
24 109 0 180 -20 244 -80 254 l-26 5 25 -50z"/>
<path d="M3739 9413 c-21 -65 -70 -157 -103 -192 -30 -33 -30 -33 -6 -26 60
17 103 64 143 156 42 95 43 99 8 99 -25 0 -31 -5 -42 -37z"/>
<path d="M6375 9440 c-14 -23 -125 -296 -125 -308 0 -10 29 -12 126 -10 l126
3 64 158 c35 88 64 161 64 163 0 10 -249 3 -255 -6z"/>
<path d="M6555 9188 c-115 -279 -225 -550 -225 -556 0 -2 14 -2 32 0 l32 3
158 390 c87 215 161 398 164 408 4 13 -1 17 -23 17 -29 0 -31 -5 -138 -262z"/>
<path d="M7560 9428 c-10 -24 -209 -506 -265 -643 -18 -44 -40 -97 -49 -117
l-16 -38 34 0 c33 0 33 0 79 113 25 61 97 241 161 398 64 157 116 291 116 298
0 21 -50 12 -60 -11z"/>
<path d="M5132 9250 c-145 -68 -263 -235 -247 -348 12 -83 88 -138 180 -130
l40 3 -58 19 c-78 26 -97 51 -97 130 0 43 7 76 24 111 28 61 122 165 191 211
61 42 50 43 -33 4z"/>
<path d="M7105 9262 c-113 -48 -197 -126 -244 -225 -71 -148 -10 -266 138
-267 52 0 48 8 -16 29 -123 41 -123 183 0 332 29 35 79 82 110 103 74 51 76
55 12 28z"/>
<path d="M5290 9251 c-122 -38 -250 -216 -250 -349 0 -69 23 -95 81 -95 51 1
142 31 203 67 39 23 45 32 99 168 l58 143 -31 26 c-29 25 -92 50 -121 48 -8 0
-25 -4 -39 -8z"/>
<path d="M7219 9246 c-108 -39 -219 -194 -235 -329 -6 -47 -3 -57 18 -81 30
-35 80 -37 173 -6 111 37 130 57 191 205 29 72 53 137 54 145 0 28 -100 81
-150 80 -8 -1 -31 -7 -51 -14z"/>
<path d="M9783 8608 c18 -36 23 -64 27 -173 l5 -130 29 -3 28 -4 -6 109 c-10
158 -15 189 -37 217 -12 15 -31 26 -45 26 l-24 0 23 -42z"/>
<path d="M8307 8171 c8 -56 -13 -132 -48 -174 -16 -20 -58 -50 -92 -67 -64
-31 -52 -32 50 -4 102 28 157 108 151 221 -3 57 -3 58 -35 61 -31 3 -31 3 -26
-37z"/>
<path d="M9757 8183 c-19 -36 -315 -697 -327 -729 -9 -22 -7 -24 19 -24 16 0
33 6 38 13 6 6 50 102 98 212 48 110 123 280 165 378 l78 177 -29 0 c-21 0
-32 -7 -42 -27z"/>
<path d="M9129 7967 c-148 -73 -279 -261 -279 -401 0 -52 32 -98 80 -115 35
-12 37 -8 11 20 -35 38 -34 116 1 216 36 101 115 199 209 262 67 45 54 55 -22
18z"/>
<path d="M7244 7939 c9 -44 -12 -155 -39 -209 -28 -53 -73 -99 -135 -134 -38
-22 -41 -26 -21 -26 62 0 181 93 223 173 24 49 40 140 32 190 -5 33 -9 37 -36
37 -29 0 -30 -2 -24 -31z"/>
<path d="M2984 6069 c-7 -12 22 -46 32 -37 8 9 -5 48 -16 48 -5 0 -12 -5 -16
-11z"/>
<path d="M9666 6705 c4 -8 8 -15 10 -15 2 0 4 7 4 15 0 8 -4 15 -10 15 -5 0
-7 -7 -4 -15z"/>
<path d="M9156 6207 c3 -10 9 -15 12 -12 3 3 0 11 -7 18 -10 9 -11 8 -5 -6z"/>
<path d="M9472 6028 c-14 -14 -16 -68 -4 -68 12 0 50 42 54 59 4 17 -35 24
-50 9z"/>
<path d="M9425 5940 c-3 -5 -1 -10 4 -10 6 0 11 5 11 10 0 6 -2 10 -4 10 -3 0
-8 -4 -11 -10z"/>
<path d="M9333 5807 c-27 -39 -28 -47 -9 -47 22 0 46 29 46 56 0 33 -11 30
-37 -9z"/>
<path d="M3830 4632 c0 -10 7 -27 15 -38 14 -19 14 -19 15 3 0 28 -10 53 -21
53 -5 0 -9 -8 -9 -18z"/>
<path d="M5330 3115 c-15 -18 -10 -45 11 -58 25 -15 69 16 69 48 0 22 -4 25
-34 25 -18 0 -39 -7 -46 -15z"/>
<path d="M6964 3170 c-11 -4 -27 -22 -34 -39 -11 -26 -10 -35 4 -56 9 -14 21
-25 26 -25 25 0 60 26 69 52 12 33 6 55 -20 68 -20 11 -17 11 -45 0z"/>
<path d="M9135 2520 c3 -5 10 -10 16 -10 5 0 9 5 9 10 0 6 -7 10 -16 10 -8 0
-12 -4 -9 -10z"/>
<path d="M8945 2290 c4 -6 11 -8 16 -5 14 9 11 15 -7 15 -8 0 -12 -5 -9 -10z"/>
<path d="M8614 2246 c-3 -9 -10 -13 -16 -10 -11 7 -68 -51 -67 -68 0 -10 2
-10 6 0 2 6 9 12 15 12 6 0 8 -7 4 -15 -5 -13 -2 -14 15 -4 20 10 20 11 2 32
-11 13 -12 17 -3 10 10 -7 21 -8 30 -3 8 5 18 6 22 4 4 -3 8 2 8 10 0 9 5 16
10 16 6 0 10 -4 10 -9 0 -5 9 -7 20 -4 19 5 23 13 18 31 -2 4 -18 8 -35 10
-23 2 -35 -1 -39 -12z"/>
<path d="M5707 1546 c-6 -15 1 -26 15 -26 11 0 10 27 -1 34 -5 3 -11 0 -14 -8z"/>
<path d="M5060 11245 c-7 -8 -17 -12 -24 -8 -6 3 -8 2 -4 -2 5 -5 20 -9 35
-11 16 -1 22 0 16 3 -7 2 -13 9 -13 14 0 4 7 6 15 3 8 -4 15 -4 15 -1 0 13
-30 14 -40 2z"/>
<path d="M4952 11190 c-12 -10 -18 -21 -14 -24 10 -6 48 31 41 38 -2 2 -14 -4
-27 -14z"/>
<path d="M4917 11136 c-4 -9 -14 -12 -25 -9 -14 3 -22 -1 -25 -14 -4 -16 -5
-16 -6 0 -1 21 -14 22 -31 2 -9 -11 -9 -15 -1 -15 7 0 10 -4 6 -10 -3 -5 -12
-7 -19 -4 -23 9 -28 -14 -6 -26 24 -13 40 -6 40 18 0 15 2 15 10 2 8 -12 10
-12 10 -1 0 10 3 11 14 2 12 -10 14 -8 12 13 -3 22 -1 24 23 15 20 -8 23 -8
14 2 -6 6 -9 18 -6 25 3 8 3 14 0 14 -3 0 -7 -6 -10 -14z"/>
<path d="M8035 11020 c-4 -6 -10 -8 -15 -5 -5 3 -3 -8 3 -25 13 -35 23 -38 30
-10 3 11 1 20 -5 20 -6 0 -8 7 -4 15 6 17 0 20 -9 5z"/>
<path d="M8060 10968 c0 -9 -5 -18 -12 -20 -8 -3 -9 -6 -1 -11 16 -10 34 16
23 33 -8 13 -10 12 -10 -2z"/>
<path d="M8138 10840 c4 -25 7 -89 6 -142 0 -54 1 -98 2 -98 2 0 11 14 20 31
13 27 14 43 5 109 -6 43 -17 94 -26 112 l-15 33 8 -45z"/>
<path d="M4158 10823 c6 -2 18 -2 25 0 6 3 1 5 -13 5 -14 0 -19 -2 -12 -5z"/>
<path d="M3985 10800 c3 -5 0 -7 -7 -5 -8 3 -39 -5 -71 -18 -45 -18 -62 -31
-75 -58 -9 -18 -28 -39 -42 -46 -21 -11 -22 -13 -6 -13 20 0 20 0 0 -15 -16
-12 -17 -14 -2 -15 9 0 18 -6 21 -12 3 -9 10 -7 21 7 10 14 15 16 16 6 0 -11
4 -10 19 3 12 11 25 15 33 11 10 -6 10 -5 1 5 -13 14 -6 40 16 56 8 6 12 18 8
27 -3 9 -3 16 1 16 4 -1 18 -1 32 0 18 1 21 4 12 10 -10 6 -8 10 11 15 28 7
45 36 21 36 -8 0 -12 -4 -9 -10z"/>
<path d="M4140 10800 c-13 -8 -7 -57 7 -57 7 0 10 4 8 8 -3 4 2 9 9 12 8 3 20
15 26 26 9 19 8 21 -15 19 -14 -1 -30 -5 -35 -8z"/>
<path d="M3772 10712 c-18 -10 -29 -22 -25 -26 4 -5 1 -7 -7 -4 -18 6 -32 -2
-142 -76 -81 -55 -87 -61 -85 -90 2 -24 7 -30 21 -28 11 2 22 -2 26 -8 12 -19
45 5 60 42 18 44 18 44 34 22 14 -18 15 -17 26 11 25 60 34 75 40 66 3 -6 15
10 25 34 19 42 35 58 35 35 0 -5 5 -10 12 -10 6 0 8 3 5 6 -3 4 -2 15 4 25 12
23 12 23 -29 1z m-152 -168 c0 -8 -4 -13 -9 -10 -5 3 -14 -8 -20 -24 -5 -17
-12 -30 -15 -30 -7 0 12 51 26 67 14 17 18 16 18 -3z m-54 -41 c-10 -10 -19 5
-10 18 6 11 8 11 12 0 2 -7 1 -15 -2 -18z"/>
<path d="M2455 10328 c3 -15 0 -28 -7 -30 -7 -3 -1 -31 20 -85 17 -44 38 -120
47 -169 9 -49 19 -100 22 -114 l5 -25 13 25 c8 14 14 19 15 13 0 -23 15 -14
16 10 1 12 5 47 8 77 4 30 7 62 8 70 0 8 6 18 11 21 6 4 6 15 2 25 -5 11 -7
25 -6 32 1 7 -5 22 -14 34 -13 19 -15 20 -15 5 0 -10 -9 -27 -20 -39 -11 -12
-20 -18 -20 -12 0 5 -4 2 -10 -6 -10 -16 -12 -12 -24 42 -8 33 -5 44 9 41 6
-2 11 5 11 15 0 9 4 28 8 41 6 18 5 22 -4 16 -8 -5 -18 -1 -26 10 -7 10 -20
15 -28 12 -8 -3 -17 -1 -20 6 -4 7 -4 0 -1 -15z m65 -48 c0 -5 -2 -10 -4 -10
-3 0 -8 5 -11 10 -3 6 -1 10 4 10 6 0 11 -4 11 -10z m15 -149 c-3 -5 -1 -12 4
-15 11 -7 8 -53 -4 -64 -4 -4 -6 2 -3 14 3 12 1 29 -4 38 -8 15 -4 36 8 36 3
0 3 -4 -1 -9z"/>
<path d="M10341 10333 c5 -29 -1 -35 -18 -22 -16 13 -17 12 -5 -3 11 -13 9
-26 -7 -75 -27 -79 -51 -198 -51 -250 0 -23 -4 -53 -10 -67 -5 -14 -6 -26 -1
-26 5 0 14 -21 21 -47 24 -97 88 -268 97 -260 2 3 -6 28 -17 57 -69 174 -63
379 14 570 32 78 33 94 6 85 -23 -7 -25 -2 -10 26 8 15 7 19 -5 19 -8 0 -14
-3 -14 -7z"/>
<path d="M2559 10308 c-1 -2 -3 -20 -4 -41 -1 -33 1 -38 17 -34 11 3 22 -1 24
-8 3 -8 11 -12 18 -9 9 3 11 -4 8 -27 -3 -22 -1 -30 7 -25 6 4 9 12 6 17 -4 5
-2 9 4 9 5 0 12 14 16 30 4 17 11 30 16 30 6 0 7 5 4 10 -3 6 0 10 7 11 7 0
-7 7 -31 14 -40 12 -46 12 -56 -2 -13 -17 -35 -10 -35 10 0 7 4 6 10 -3 8 -13
10 -12 10 3 0 14 -16 25 -21 15z"/>
<path d="M10138 10273 c7 -3 16 -2 19 1 4 3 -2 6 -13 5 -11 0 -14 -3 -6 -6z"/>
<path d="M10120 10249 c-12 -8 -10 -9 9 -4 16 5 21 4 17 -4 -4 -6 -2 -11 4
-11 13 0 8 22 -6 27 -5 1 -16 -2 -24 -8z"/>
<path d="M10162 10200 c0 -14 2 -19 5 -12 2 6 2 18 0 25 -3 6 -5 1 -5 -13z"/>
<path d="M10149 10136 c-1 -11 -1 -27 0 -34 1 -8 -2 -19 -8 -26 -8 -9 -7 -18
3 -31 12 -17 13 -16 11 6 -3 35 2 39 35 29 21 -6 28 -5 24 2 -4 6 -8 20 -9 32
-1 11 -3 24 -4 27 0 4 -12 9 -26 11 -20 4 -25 1 -26 -16z m28 -28 c-3 -8 -6
-5 -6 6 -1 11 2 17 5 13 3 -3 4 -12 1 -19z"/>
<path d="M9855 10049 c1 -10 5 -22 10 -26 4 -5 5 -2 1 5 -4 6 -2 12 3 12 15 0
14 17 -2 23 -9 3 -13 -2 -12 -14z"/>
<path d="M10175 10060 c-4 -6 1 -10 10 -10 8 0 18 -7 21 -15 8 -20 26 -19 22
1 -4 20 -45 38 -53 24z"/>
<path d="M10124 10019 c-4 -7 -3 -9 4 -5 5 3 13 0 15 -6 4 -9 6 -10 6 -1 1 17
-16 25 -25 12z"/>
<path d="M10200 10000 c0 -5 4 -10 9 -10 6 0 13 5 16 10 3 6 -1 10 -9 10 -9 0
-16 -4 -16 -10z"/>
<path d="M10131 9981 c-8 -5 -9 -11 -3 -15 5 -3 12 1 16 9 6 17 6 18 -13 6z"/>
<path d="M10236 9955 c-3 -8 -1 -15 4 -15 6 0 10 7 10 15 0 8 -2 15 -4 15 -2
0 -6 -7 -10 -15z"/>
<path d="M2536 9838 c3 -5 10 -6 15 -3 13 9 11 12 -6 12 -8 0 -12 -4 -9 -9z"/>
<path d="M2550 9775 c-11 -13 -10 -14 4 -9 9 3 16 10 16 15 0 13 -6 11 -20 -6z"/>
<path d="M10779 8900 c11 -25 29 -81 40 -125 62 -236 24 -402 -129 -556 l-75
-76 60 4 c54 4 63 8 92 41 72 82 123 217 123 327 0 104 -69 351 -115 411 -10
13 -9 4 4 -26z"/>
<path d="M1952 8479 c-3 -76 28 -172 78 -243 56 -80 59 -82 111 -88 l46 -5
-72 71 c-81 80 -151 204 -158 278 -3 39 -4 37 -5 -13z"/>
<path d="M11280 7691 c27 -69 64 -216 90 -356 50 -270 70 -349 120 -468 36
-86 51 -101 20 -19 -26 67 -62 218 -100 420 -34 178 -74 324 -114 415 -31 70
-43 76 -16 8z"/>
<path d="M11640 6616 c0 -8 4 -17 9 -20 5 -4 7 3 4 14 -6 23 -13 26 -13 6z"/>
<path d="M11624 6583 c2 -13 -4 -29 -15 -39 -14 -13 -16 -21 -8 -35 5 -11 7
-25 3 -32 -5 -8 -2 -7 9 2 9 7 17 10 18 5 0 -5 4 1 9 14 5 12 7 28 4 36 -3 8
-1 17 5 21 16 9 13 25 -3 25 -8 0 -17 6 -20 13 -4 6 -4 2 -2 -10z"/>
<path d="M11663 6512 c-1 -22 0 -24 9 -8 6 10 6 22 2 26 -5 5 -10 -3 -11 -18z"/>
<path d="M11770 6486 c0 -8 7 -16 15 -20 13 -4 14 -2 5 14 -13 23 -20 26 -20
6z"/>
<path d="M11820 6473 c0 -6 10 -19 22 -27 12 -9 17 -16 10 -16 -7 0 -11 -4 -8
-9 4 -5 1 -11 -6 -13 -9 -3 -8 -10 4 -26 8 -12 18 -19 23 -14 4 4 6 0 3 -8 -2
-8 -24 -28 -47 -44 -35 -23 -45 -26 -52 -15 -8 11 -9 9 -7 -6 2 -12 -3 -20
-12 -20 -8 0 -16 6 -16 13 -1 6 -3 15 -4 20 -1 4 -2 10 -1 14 1 7 -38 2 -47
-7 -3 -3 -2 -8 3 -12 4 -5 10 -2 12 5 3 6 9 9 14 6 6 -3 -2 -22 -16 -42 l-27
-37 26 28 26 28 -2 -25 c-1 -13 -6 -22 -10 -20 -4 3 -8 -1 -8 -9 0 -7 -11 -20
-25 -27 -14 -7 -25 -16 -25 -19 0 -3 -20 -31 -45 -61 -46 -56 -99 -146 -126
-215 -9 -22 -18 -47 -22 -55 -16 -40 -40 -146 -81 -360 -79 -401 -148 -564
-304 -713 -104 -98 -225 -142 -376 -135 l-82 3 51 -47 c44 -42 55 -47 95 -47
25 -1 75 6 112 13 180 39 317 163 418 380 52 110 83 222 131 471 66 343 101
445 204 590 79 112 222 223 353 275 34 13 62 28 62 32 0 5 -19 16 -42 25 -39
15 -40 17 -18 25 l24 9 -25 17 c-13 9 -27 16 -31 14 -5 -1 -8 2 -8 6 0 10 -84
47 -96 43 -4 -2 -11 3 -15 11 -6 9 -9 9 -9 1z m53 -67 c7 -17 -20 -30 -29 -14
-4 7 -3 8 4 4 7 -4 12 -1 12 8 0 20 6 20 13 2z m97 -16 c0 -5 -4 -10 -10 -10
-5 0 -10 5 -10 10 0 6 5 10 10 10 6 0 10 -4 10 -10z m-563 -842 c-3 -7 -5 -2
-5 12 0 14 2 19 5 13 2 -7 2 -19 0 -25z m-190 -630 c-3 -8 -6 -5 -6 6 -1 11 2
17 5 13 3 -3 4 -12 1 -19z m-505 -310 c-7 -7 -12 -8 -12 -2 0 14 12 26 19 19
2 -3 -1 -11 -7 -17z"/>
<path d="M11756 6438 c3 -4 9 -8 15 -8 5 0 9 4 9 8 0 5 -7 9 -15 9 -8 0 -12
-4 -9 -9z"/>
<path d="M11726 6414 c-14 -36 4 -46 38 -21 17 12 16 14 -7 24 -21 10 -26 9
-31 -3z"/>
<path d="M11756 6357 c3 -10 9 -15 12 -12 3 3 0 11 -7 18 -10 9 -11 8 -5 -6z"/>
<path d="M11741 6334 c0 -11 3 -14 6 -6 3 7 2 16 -1 19 -3 4 -6 -2 -5 -13z"/>
<path d="M1545 5810 c-4 -6 -2 -17 4 -24 6 -7 9 -16 6 -19 -3 -4 -2 -5 2 -2 9
7 10 55 1 55 -4 0 -10 -5 -13 -10z"/>
<path d="M2218 3714 c3 -17 8 -22 15 -15 11 11 3 41 -11 41 -5 0 -7 -12 -4
-26z"/>
<path d="M10120 3197 c0 -10 7 -25 15 -33 19 -19 19 -7 0 26 -11 20 -14 21
-15 7z"/>
</g>
</svg>
