<?xml version="1.0" standalone="no"?>
<!DOCTYPE svg PUBLIC "-//W3C//DTD SVG 20010904//EN"
 "http://www.w3.org/TR/2001/REC-SVG-20010904/DTD/svg10.dtd">
<svg version="1.0" xmlns="http://www.w3.org/2000/svg"
 width="750.000000pt" height="450.000000pt" viewBox="0 0 750.000000 450.000000"
 preserveAspectRatio="xMidYMid meet">

<g transform="translate(0.000000,450.000000) scale(0.100000,-0.100000)"
fill="#000000" stroke="none">
<path d="M4006 3413 c10 -7 22 -13 26 -13 5 0 3 6 -4 13 -7 8 -19 14 -26 14
-11 0 -10 -4 4 -14z"/>
<path d="M3927 3399 c7 -7 15 -10 18 -7 3 3 -2 9 -12 12 -14 6 -15 5 -6 -5z"/>
<path d="M4055 3388 c4 -9 0 -22 -7 -29 -8 -8 -29 -52 -48 -99 -31 -78 -34
-94 -36 -202 -2 -115 7 -147 20 -69 3 21 12 41 19 44 15 6 34 93 43 202 4 50
12 87 22 98 13 15 14 20 3 26 -10 7 -10 10 -1 13 9 3 7 8 -4 17 -14 12 -16 12
-11 -1z m-14 -75 c-12 -20 -14 -14 -5 12 4 9 9 14 11 11 3 -2 0 -13 -6 -23z"/>
<path d="M3993 3375 c0 -8 4 -12 9 -9 4 3 8 9 8 15 0 5 -4 9 -8 9 -5 0 -9 -7
-9 -15z"/>
<path d="M3783 3365 c-3 -9 -3 -19 1 -22 3 -4 6 1 6 10 0 20 16 23 23 5 3 -8
6 -6 6 5 1 21 -27 23 -36 2z"/>
<path d="M3880 3369 c0 -5 5 -9 10 -9 6 0 12 0 15 0 14 0 8 13 -7 16 -10 1
-18 -2 -18 -7z"/>
<path d="M3730 3360 c0 -5 5 -10 10 -10 6 0 10 5 10 10 0 6 -4 10 -10 10 -5 0
-10 -4 -10 -10z"/>
<path d="M3963 3355 c0 -8 4 -12 9 -9 5 3 6 10 3 15 -9 13 -12 11 -12 -6z"/>
<path d="M3694 3344 c-4 -10 -9 -22 -11 -26 -2 -5 0 -8 5 -8 10 0 24 41 17 48
-3 3 -8 -4 -11 -14z"/>
<path d="M3861 3344 c0 -11 3 -14 6 -6 3 7 2 16 -1 19 -3 4 -6 -2 -5 -13z"/>
<path d="M3990 3335 c-8 -9 -8 -15 -2 -15 12 0 26 19 19 26 -2 2 -10 -2 -17
-11z"/>
<path d="M3892 3318 c-2 -10 -9 -18 -15 -18 -6 0 -8 -3 -5 -6 7 -6 64 21 71
33 3 5 -6 8 -21 8 -16 0 -27 -7 -30 -17z"/>
<path d="M3615 3310 c10 -11 23 -20 28 -20 6 0 0 9 -13 20 -13 11 -25 20 -28
20 -3 0 3 -9 13 -20z"/>
<path d="M3777 3313 c-12 -11 -8 -285 4 -278 6 4 8 14 4 23 -3 9 -2 13 2 8 4
-4 22 37 40 91 17 54 29 101 25 104 -4 4 -17 10 -29 14 -20 5 -23 3 -23 -19 0
-14 5 -26 10 -26 19 0 10 -36 -10 -37 -18 -2 -19 3 -15 63 4 65 4 69 -8 57z"/>
<path d="M3940 3300 c-11 -11 -24 -20 -29 -20 -11 0 -24 -31 -16 -39 3 -3 10
1 14 8 5 8 11 9 15 3 3 -6 1 -12 -6 -14 -9 -3 -6 -14 8 -37 l21 -32 25 68 c17
47 22 70 14 75 -17 12 -24 10 -46 -12z m29 -12 c0 -7 -4 -22 -9 -33 -7 -17 -9
-15 -9 13 -1 17 4 32 9 32 6 0 10 -6 9 -12z"/>
<path d="M3738 3255 c-2 -25 0 -45 4 -45 5 0 8 20 8 45 0 25 -2 45 -4 45 -2 0
-6 -20 -8 -45z"/>
<path d="M3590 3281 c0 -6 4 -13 10 -16 15 -9 6 -46 -15 -61 -15 -11 -16 -17
-7 -26 9 -9 12 -8 12 4 0 8 7 21 15 28 8 7 13 15 11 19 -3 4 -1 13 4 21 5 8 3
18 -5 27 -16 15 -25 17 -25 4z"/>
<path d="M3514 3238 c4 -18 6 -48 6 -66 0 -19 2 -42 5 -52 8 -24 32 -33 39
-14 4 10 0 14 -12 12 -13 -2 -18 5 -20 37 -2 29 0 36 7 25 6 -8 8 -24 5 -35
-4 -17 -4 -18 6 -3 8 12 5 31 -11 72 -23 62 -35 73 -25 24z"/>
<path d="M3556 3245 c8 -37 14 -45 14 -19 0 10 -5 26 -10 34 -8 11 -9 7 -4
-15z"/>
<path d="M3709 3238 c0 -17 -2 -19 -7 -8 -9 19 -36 26 -29 8 2 -7 19 -58 36
-113 18 -55 34 -102 37 -104 2 -3 3 36 3 85 -2 82 -3 86 -14 54 -10 -30 -12
-32 -17 -13 -3 12 -3 42 -1 67 3 25 3 46 -1 46 -3 0 -6 -10 -7 -22z"/>
<path d="M3637 3225 c-4 -8 -2 -15 3 -15 6 0 10 -6 10 -14 0 -8 -7 -13 -16
-12 -9 0 -21 -7 -27 -16 -15 -23 -2 -44 82 -134 36 -38 59 -62 53 -53 -7 9
-26 59 -42 112 -38 118 -55 154 -63 132z m17 -107 c-3 -4 -2 -13 2 -19 5 -8 9
-8 14 1 5 8 9 8 13 -3 3 -8 0 -14 -6 -13 -23 3 -38 18 -33 32 3 8 2 14 -3 14
-5 0 -11 10 -14 23 -6 21 -6 21 13 -3 10 -13 16 -28 14 -32z"/>
<path d="M3860 3200 c-6 -23 -14 -49 -16 -58 -5 -15 -4 -15 5 -2 7 9 11 11 11
3 0 -7 -6 -16 -13 -20 -7 -4 -19 -28 -26 -53 -7 -25 -20 -58 -28 -75 -13 -25
-13 -27 -1 -15 89 91 167 199 126 174 -6 -4 -8 -3 -5 3 7 11 -18 69 -33 78 -5
3 -14 -13 -20 -35z"/>
<path d="M3580 3038 c1 -73 20 -150 40 -156 5 -2 10 -10 10 -18 0 -10 11 -7
40 12 22 15 40 31 40 35 0 5 7 9 15 9 8 0 15 6 15 13 -1 15 -70 94 -70 79 0
-6 4 -13 10 -17 16 -10 -9 -54 -32 -55 -4 0 -9 9 -13 19 -4 13 -12 17 -25 14
-12 -3 -20 0 -20 6 0 7 5 9 10 6 6 -3 10 -1 10 4 0 6 -3 11 -8 11 -4 0 -8 23
-8 51 -1 41 1 47 10 33 5 -11 9 -31 7 -45 -2 -25 23 -58 36 -45 4 3 -2 13 -13
20 -10 8 -15 18 -11 22 4 5 12 2 17 -6 5 -8 12 -11 16 -8 7 8 -53 88 -67 88
-5 0 -9 -33 -9 -72z m129 -80 c8 -23 -5 -58 -22 -58 -5 0 -15 -7 -24 -15 -11
-12 -19 -13 -28 -5 -14 11 -8 53 6 45 4 -3 19 -3 32 0 19 5 23 11 19 31 -6 30
6 32 17 2z"/>
<path d="M3875 3049 c-27 -33 -60 -73 -73 -89 l-23 -28 73 -56 73 -55 6 29 c4
17 11 36 16 42 13 18 4 120 -10 111 -7 -4 -8 0 -3 13 9 21 10 27 8 67 -1 15
-5 27 -9 26 -5 0 -30 -27 -58 -60z m-10 -99 c3 -5 1 -10 -4 -10 -6 0 -11 5
-11 10 0 6 2 10 4 10 3 0 8 -4 11 -10z"/>
<path d="M3540 3062 c0 -11 5 -24 10 -27 6 -4 9 2 7 14 -4 29 -17 39 -17 13z"/>
<path d="M3727 2890 c-8 -11 -17 -17 -20 -13 -4 3 -7 2 -7 -3 0 -5 -15 -18
-34 -28 -31 -16 -35 -23 -38 -70 -4 -42 -1 -55 18 -75 l22 -23 22 68 c13 38
25 75 28 83 3 9 1 12 -6 7 -7 -4 -12 -1 -12 8 0 9 6 13 14 10 9 -3 17 6 24 25
13 36 9 39 -11 11z m-39 -62 c0 -13 -5 -33 -11 -45 -8 -18 -13 -20 -24 -12
-20 17 -16 45 10 62 12 9 23 16 24 16 1 1 2 -9 1 -21z"/>
<path d="M3784 2895 c4 -11 19 -56 33 -100 39 -124 38 -123 79 -84 25 24 34
42 34 66 0 18 -4 33 -9 33 -8 0 -37 21 -115 82 -28 21 -29 21 -22 3z"/>
<path d="M3722 2781 c-37 -114 -41 -147 -14 -136 9 4 24 8 31 9 18 3 27 26 11
26 -8 0 -9 10 -5 29 3 17 2 32 -4 36 -6 3 -11 14 -10 23 0 14 2 13 9 -3 7 -17
9 -14 10 15 1 19 4 50 6 68 2 17 3 32 1 32 -1 0 -17 -44 -35 -99z"/>
<path d="M3771 2725 l0 -150 34 39 c38 42 41 51 23 93 -6 15 -13 35 -15 43 -2
8 -12 40 -22 70 l-19 55 -1 -150z m33 10 c-4 -8 -8 -15 -10 -15 -2 0 -4 7 -4
15 0 8 4 15 10 15 5 0 7 -7 4 -15z"/>
<path d="M3903 2699 c-13 -15 -25 -33 -28 -41 -7 -17 29 -124 47 -141 7 -7 83
-37 168 -67 85 -29 161 -56 169 -58 7 -3 -20 38 -60 90 -70 91 -77 97 -144
123 -75 29 -115 59 -115 84 0 34 -15 38 -37 10z"/>
<path d="M3600 2658 c-14 -16 -53 -40 -90 -54 -56 -21 -50 -25 15 -8 14 4 11
-1 -9 -14 -16 -11 -36 -18 -45 -15 -13 4 -13 3 -2 -5 8 -6 11 -17 7 -27 -3 -9
-1 -25 4 -36 8 -14 7 -19 -1 -19 -7 0 -10 -2 -7 -5 3 -3 16 -1 29 4 13 5 17
10 10 10 -11 1 -12 4 -3 13 8 8 15 8 25 -1 15 -11 41 -7 65 12 11 8 11 12 0
18 -10 7 -9 9 3 9 16 0 49 77 49 113 0 32 -25 34 -50 5z m16 -61 c0 -14 -8
-24 -18 -24 -17 -2 -17 -1 0 22 21 30 20 30 18 2z m-36 -77 c0 -5 -8 -10 -17
-10 -15 0 -16 2 -3 10 19 12 20 12 20 0z"/>
<path d="M3663 2605 c-6 -19 -8 -33 -5 -31 9 5 32 -20 25 -28 -3 -3 8 0 25 6
l31 12 -19 26 c-36 51 -46 53 -57 15z m48 -38 c-13 -13 -31 1 -31 25 0 21 1
21 20 3 13 -12 17 -22 11 -28z"/>
<path d="M3718 2624 c6 -11 19 -27 29 -35 16 -13 17 -12 5 3 -8 9 -10 23 -6
30 4 7 4 10 -1 6 -4 -4 -15 -2 -23 5 -13 10 -14 9 -4 -9z"/>
<path d="M3813 2601 l-33 -40 53 -19 c28 -11 53 -19 55 -17 5 5 -31 115 -37
115 -3 0 -21 -18 -38 -39z"/>
<path d="M3399 2563 c-12 -15 -12 -16 4 -10 9 3 17 5 17 4 1 -16 29 -77 30
-64 0 10 -7 31 -15 47 -11 22 -12 30 -2 33 7 4 6 6 -4 6 -9 1 -23 -7 -30 -16z"/>
<path d="M4191 2512 c71 -91 134 -152 203 -196 l58 -37 -7 43 c-11 68 -45 150
-73 181 -26 28 -114 59 -195 71 l-38 5 52 -67z"/>
<path d="M3330 2536 c-14 -19 -29 -32 -34 -28 -5 3 -6 0 -2 -7 4 -6 2 -18 -4
-26 -7 -8 -10 -15 -7 -15 2 0 23 25 46 55 23 30 38 55 34 55 -4 0 -19 -16 -33
-34z"/>
<path d="M3242 2538 c-47 -23 -89 -76 -102 -130 -5 -18 -13 -48 -18 -65 -13
-40 -6 -41 33 -7 29 24 29 24 3 8 -25 -14 -28 -15 -28 -1 0 9 5 19 10 22 6 3
10 16 10 27 0 43 41 108 80 128 29 15 40 16 43 7 3 -7 6 -5 6 5 1 10 11 18 29
21 25 4 26 4 2 5 -14 1 -45 -8 -68 -20z"/>
<path d="M3639 2533 c-13 -15 -12 -15 9 -4 23 12 28 21 13 21 -5 0 -15 -7 -22
-17z"/>
<path d="M3359 2513 l-24 -28 28 24 c25 23 32 31 24 31 -2 0 -14 -12 -28 -27z"/>
<path d="M3400 2530 c0 -5 5 -10 10 -10 6 0 10 5 10 10 0 6 -4 10 -10 10 -5 0
-10 -4 -10 -10z"/>
<path d="M3725 2532 c-5 -4 -17 -16 -25 -27 -11 -15 -7 -14 13 4 24 22 32 31
25 31 -2 0 -7 -4 -13 -8z"/>
<path d="M3862 2455 c44 -47 82 -85 83 -85 6 0 -40 116 -50 126 -8 8 -98 44
-112 44 -1 0 34 -38 79 -85z"/>
<path d="M3720 2487 c-18 -23 -24 -34 -13 -24 12 11 26 16 31 13 8 -5 25 44
19 51 -1 1 -18 -17 -37 -40z"/>
<path d="M3210 2489 c0 -5 5 -7 10 -4 6 3 10 8 10 11 0 2 -4 4 -10 4 -5 0 -10
-5 -10 -11z"/>
<path d="M3570 2475 c-24 -14 -24 -14 -3 -15 12 0 25 5 28 11 11 17 2 18 -25
4z"/>
<path d="M3793 2476 c-9 -10 -8 -17 5 -30 13 -13 14 -20 5 -35 -15 -24 -8 -31
30 -31 29 0 30 0 12 -20 -20 -22 -8 -28 14 -7 11 10 13 10 7 0 -5 -10 5 -13
40 -13 l46 0 -73 75 c-40 41 -73 75 -73 75 -1 -1 -6 -7 -13 -14z"/>
<path d="M3944 2425 c13 -36 27 -70 32 -74 5 -5 61 -3 124 5 63 7 124 13 135
13 36 2 1 17 -145 66 -80 26 -151 50 -157 53 -8 2 -4 -19 11 -63z"/>
<path d="M3320 2464 c-11 -12 -10 -18 5 -32 18 -16 18 -16 6 1 -11 14 -11 20
-1 32 7 8 10 15 7 15 -2 0 -10 -7 -17 -16z"/>
<path d="M3616 2465 c-3 -8 -1 -15 3 -15 5 0 11 7 15 15 3 8 1 15 -3 15 -5 0
-11 -7 -15 -15z"/>
<path d="M3408 2453 c7 -3 16 -2 19 1 4 3 -2 6 -13 5 -11 0 -14 -3 -6 -6z"/>
<path d="M3292 2432 c2 -6 -6 -18 -17 -27 l-20 -16 20 9 c11 5 26 11 34 14 10
3 10 7 -3 18 -10 7 -16 8 -14 2z"/>
<path d="M3216 2393 c-14 -14 -24 -28 -22 -31 4 -4 56 46 56 54 0 8 -9 3 -34
-23z"/>
<path d="M3324 2385 c-12 -9 -14 -14 -6 -15 7 0 20 7 28 15 20 19 4 20 -22 0z"/>
<path d="M3266 2348 c3 -5 12 -8 20 -8 8 0 13 -4 10 -9 -3 -5 1 -11 9 -14 9
-4 12 -1 8 9 -6 16 8 19 23 4 5 -5 15 -6 24 0 13 8 13 10 0 14 -27 9 -98 12
-94 4z"/>
<path d="M4125 2344 c-55 -7 -108 -15 -118 -16 -14 -2 -1 -16 46 -50 36 -27
69 -48 73 -48 5 1 40 30 78 65 79 74 84 71 -79 49z"/>
<path d="M3177 2325 c-42 -29 -47 -40 -15 -29 20 6 21 5 9 -9 -9 -11 -10 -24
-4 -42 7 -23 10 -19 29 40 11 36 20 65 19 65 0 0 -17 -11 -38 -25z"/>
<path d="M3226 2318 c-3 -17 -4 -33 -1 -36 3 -3 5 2 5 11 0 10 7 17 15 17 8 0
15 5 15 10 0 6 -5 10 -11 10 -5 0 -7 5 -4 10 3 6 2 10 -3 10 -5 0 -12 -14 -16
-32z"/>
<path d="M4217 2289 c-37 -33 -67 -66 -67 -73 0 -7 52 -51 115 -99 63 -49 115
-84 115 -80 0 5 -18 70 -40 146 -22 75 -40 144 -40 152 0 25 -12 18 -83 -46z"/>
<path d="M4312 2338 c3 -7 24 -81 48 -164 l43 -151 27 31 c25 27 28 38 29 116
l2 87 -77 47 c-42 26 -74 41 -72 34z m138 -228 c0 -5 -9 -10 -20 -10 -11 0
-20 5 -20 10 0 6 9 10 20 10 11 0 20 -4 20 -10z"/>
<path d="M3899 2322 l-47 -3 12 -31 c7 -19 30 -43 64 -64 29 -19 54 -34 56
-34 2 0 -2 24 -9 54 -7 30 -11 57 -9 59 11 11 -26 22 -67 19z"/>
<path d="M3280 2306 c0 -2 8 -10 18 -17 15 -13 16 -12 3 4 -13 16 -21 21 -21
13z"/>
<path d="M3984 2289 c3 -13 9 -45 13 -72 5 -39 10 -48 30 -53 17 -5 31 0 49
16 13 13 27 21 30 17 4 -4 -4 -15 -16 -25 -28 -23 -23 -43 16 -61 16 -7 41
-20 57 -28 15 -8 35 -13 46 -11 10 2 24 -2 32 -8 8 -6 39 -18 69 -27 49 -14
53 -14 33 0 -13 8 -62 46 -110 84 -49 38 -93 69 -100 69 -7 0 -16 6 -20 13 -8
13 -97 87 -122 102 -11 6 -13 3 -7 -16z"/>
<path d="M3115 2279 c-4 -6 -5 -12 -2 -15 2 -3 7 2 10 11 7 17 1 20 -8 4z"/>
<path d="M3106 2233 c-10 -10 -7 -73 4 -73 6 0 10 7 10 15 0 8 5 15 10 15 6 0
10 5 10 11 0 15 -26 39 -34 32z"/>
<path d="M3874 2224 c18 -45 19 -74 3 -74 -8 0 -17 -5 -19 -12 -8 -23 -28 3
-22 28 7 28 -7 32 -30 8 -20 -19 -20 -28 -1 -44 21 -17 19 -33 -4 -27 -14 3
-17 0 -13 -15 2 -11 -1 -30 -8 -43 -7 -14 -9 -31 -5 -42 5 -10 7 -23 6 -30 -1
-6 3 -15 9 -18 8 -5 6 -13 -6 -26 -9 -11 -15 -21 -13 -23 5 -5 54 37 142 121
32 31 61 52 65 48 4 -3 -9 -20 -28 -37 -54 -48 -171 -160 -168 -162 2 -1 33
-11 71 -23 62 -20 68 -20 76 -5 13 26 62 224 57 230 -3 2 -1 13 5 23 14 28 1
65 -29 80 -15 7 -42 24 -61 38 -31 22 -34 22 -27 5z m76 -74 c0 -5 -4 -10 -10
-10 -5 0 -10 5 -10 10 0 6 5 10 10 10 6 0 10 -4 10 -10z m-50 -38 c0 -26 -11
-34 -27 -21 -20 17 -16 39 7 39 13 0 20 -7 20 -18z"/>
<path d="M3363 2215 c0 -8 4 -12 9 -9 5 3 6 10 3 15 -9 13 -12 11 -12 -6z"/>
<path d="M4010 2134 c0 -8 5 -12 10 -9 6 4 8 11 5 16 -9 14 -15 11 -15 -7z"/>
<path d="M3220 2099 c-35 -31 -35 -31 -3 -9 18 11 35 25 38 30 10 16 2 11 -35
-21z"/>
<path d="M4028 2103 c-2 -23 0 -51 7 -90 l6 -33 27 33 c58 68 57 64 20 87 -41
25 -58 25 -60 3z"/>
<path d="M3100 2103 c0 -18 27 -36 35 -23 4 6 4 14 1 17 -3 4 -6 0 -6 -8 -1
-10 -5 -8 -15 5 -8 11 -15 15 -15 9z"/>
<path d="M3090 2071 c0 -6 4 -13 10 -16 6 -3 7 1 4 9 -7 18 -14 21 -14 7z"/>
<path d="M3160 2060 c-8 -5 -12 -12 -9 -15 4 -3 12 1 19 10 14 17 11 19 -10 5z"/>
<path d="M4140 2062 c-21 -7 -49 -42 -71 -90 -18 -38 -19 -48 -8 -105 6 -34
15 -65 18 -69 4 -5 30 8 58 28 45 31 53 42 67 93 9 31 16 73 16 92 0 31 -4 37
-33 46 -17 5 -39 7 -47 5z m40 -32 c0 -11 -6 -21 -12 -21 -7 -1 1 -4 17 -8
l30 -7 -32 -16 c-23 -11 -33 -13 -36 -4 -3 7 -10 4 -19 -8 -8 -10 -20 -17 -27
-15 -8 3 -3 15 16 34 15 17 29 35 29 40 1 6 2 13 3 18 3 17 31 5 31 -13z"/>
<path d="M4441 2042 c-31 -43 -31 -42 43 -102 18 -14 18 -13 11 9 -5 16 -4 21
4 17 6 -4 11 -18 11 -30 0 -13 7 -29 15 -36 8 -7 15 -10 15 -7 0 9 -63 162
-70 170 -4 5 -17 -5 -29 -21z"/>
<path d="M4000 2046 c0 -7 -11 -51 -24 -97 -14 -46 -23 -85 -22 -87 2 -1 19
21 39 50 35 51 36 55 26 101 -10 46 -19 61 -19 33z"/>
<path d="M4256 2003 c7 -21 13 -46 14 -55 0 -25 8 -23 63 16 l49 35 -67 20
c-37 12 -68 21 -70 21 -1 0 3 -17 11 -37z"/>
<path d="M3064 2003 c-4 -16 -13 -39 -21 -53 -11 -18 -4 -14 26 15 42 40 58
64 20 30 -20 -19 -20 -19 -10 8 7 17 7 27 1 27 -5 0 -12 -12 -16 -27z"/>
<path d="M3166 2001 c-3 -5 2 -15 12 -22 15 -13 16 -12 3 4 -8 10 -9 17 -3 17
6 0 16 -8 21 -17 6 -10 11 -13 11 -7 0 11 -20 34 -31 34 -4 0 -10 -4 -13 -9z"/>
<path d="M3351 1980 c-1 -8 10 -20 23 -26 20 -9 23 -9 19 2 -3 8 -11 14 -18
14 -7 0 -16 6 -18 13 -4 8 -6 7 -6 -3z"/>
<path d="M3620 1986 c0 -2 8 -10 18 -17 15 -13 16 -12 3 4 -13 16 -21 21 -21
13z"/>
<path d="M3069 1937 c-49 -45 -72 -84 -43 -73 13 5 15 2 10 -17 -3 -13 0 -32
8 -42 14 -20 11 -45 -6 -45 -5 0 -7 4 -3 9 3 5 1 12 -5 16 -5 3 -10 21 -11 38
-1 31 -1 31 -9 7 -18 -57 -13 -66 51 -94 34 -15 64 -24 67 -22 2 3 1 52 -3
110 -5 78 -11 106 -22 110 -8 3 -11 10 -8 16 4 6 11 8 16 5 5 -4 9 1 9 9 0 21
2 22 -51 -27z m31 -47 c0 -5 -2 -10 -4 -10 -3 0 -8 5 -11 10 -3 6 -1 10 4 10
6 0 11 -4 11 -10z m13 -49 c5 -20 -9 -51 -23 -51 -6 0 -10 16 -10 35 0 38 24
50 33 16z m7 -107 c0 -8 -4 -12 -10 -9 -5 3 -10 10 -10 16 0 5 5 9 10 9 6 0
10 -7 10 -16z"/>
<path d="M3140 1972 c0 -4 9 -13 20 -20 11 -7 20 -9 20 -4 0 4 -9 13 -20 20
-11 7 -20 9 -20 4z"/>
<path d="M4330 1944 c-25 -20 -46 -37 -48 -39 -4 -4 35 -104 62 -161 16 -31
26 -44 29 -34 9 24 16 270 9 269 -4 0 -27 -16 -52 -35z"/>
<path d="M4406 1919 c-15 -175 -16 -209 -5 -209 5 0 7 5 3 12 -4 7 -3 8 5 4 7
-5 37 2 67 15 39 15 51 24 42 30 -10 7 -10 9 2 9 9 0 4 8 -12 18 -16 9 -28 23
-28 30 0 7 5 10 10 7 6 -4 10 6 10 22 l0 28 20 -25 c11 -14 20 -40 20 -57 0
-18 5 -33 11 -33 7 0 8 14 4 42 -8 44 -49 93 -68 81 -6 -3 -7 -2 -4 4 3 5 -11
27 -32 48 l-39 37 -6 -63z m68 -144 c-4 -8 -8 -15 -10 -15 -2 0 -4 7 -4 15 0
8 4 15 10 15 5 0 7 -7 4 -15z"/>
<path d="M3141 1912 c-1 -36 21 -41 27 -7 2 10 0 15 -6 11 -6 -3 -13 2 -15 11
-3 10 -5 3 -6 -15z"/>
<path d="M3262 1931 c-11 -7 -11 -9 2 -14 10 -4 16 -1 16 8 0 17 -1 17 -18 6z"/>
<path d="M3370 1920 c0 -5 7 -7 15 -4 8 4 15 8 15 10 0 2 -7 4 -15 4 -8 0 -15
-4 -15 -10z"/>
<path d="M3540 1915 c7 -9 15 -13 17 -11 7 7 -7 26 -19 26 -6 0 -6 -6 2 -15z"/>
<path d="M3986 1879 c-21 -28 -37 -51 -35 -53 10 -9 100 -38 104 -34 6 6 -17
138 -24 138 -3 -1 -23 -23 -45 -51z"/>
<path d="M3420 1901 c0 -6 5 -13 10 -16 6 -3 10 1 10 9 0 9 -4 16 -10 16 -5 0
-10 -4 -10 -9z"/>
<path d="M3203 1885 c0 -7 6 -11 13 -8 7 2 15 -4 18 -15 8 -23 -3 -54 -15 -46
-5 3 -9 0 -9 -6 0 -7 -13 2 -30 20 l-30 32 0 -75 c0 -42 3 -78 8 -80 18 -11
48 14 61 49 7 22 23 58 34 82 15 32 17 46 8 55 -8 8 -11 5 -12 -13 0 -14 -3
-19 -6 -12 -8 19 -40 34 -40 17z m17 -105 c0 -5 -5 -10 -11 -10 -5 0 -7 5 -4
10 3 6 8 10 11 10 2 0 4 -4 4 -10z m-10 -26 c0 -2 -9 -8 -20 -14 -15 -8 -18
-8 -14 3 4 11 34 21 34 11z"/>
<path d="M3618 1882 c-17 -11 -24 -22 -19 -30 6 -10 17 -11 54 -1 42 10 45 13
34 30 -15 24 -34 24 -69 1z"/>
<path d="M3723 1853 c-7 -2 -13 -15 -13 -27 0 -22 -17 -46 -33 -46 -4 0 -5 5
-2 10 3 6 -2 10 -12 10 -11 0 -25 6 -32 13 -12 10 -13 9 -7 -7 9 -27 128 -186
139 -186 4 0 6 4 3 8 -3 5 -6 59 -7 120 -2 110 -5 118 -36 105z"/>
<path d="M3770 1743 c0 -75 3 -114 10 -107 5 5 38 47 74 94 l65 85 -67 23
c-36 12 -70 22 -74 22 -4 0 -8 -53 -8 -117z"/>
<path d="M3640 1820 c0 -5 5 -10 10 -10 6 0 10 5 10 10 0 6 -4 10 -10 10 -5 0
-10 -4 -10 -10z"/>
<path d="M4126 1799 c-22 -16 -32 -29 -23 -29 8 0 22 -2 29 -5 10 -4 18 6 25
30 6 19 10 35 10 34 -1 0 -20 -14 -41 -30z"/>
<path d="M3441 1804 c0 -11 3 -14 6 -6 3 7 2 16 -1 19 -3 4 -6 -2 -5 -13z"/>
<path d="M3475 1810 c-3 -5 1 -10 9 -10 9 0 16 5 16 10 0 6 -4 10 -9 10 -6 0
-13 -4 -16 -10z"/>
<path d="M3940 1697 c0 -59 2 -107 5 -107 9 0 176 43 173 44 -2 0 -43 39 -91
86 l-87 85 0 -108z"/>
<path d="M4045 1724 l80 -74 8 41 c10 48 2 60 -39 62 -16 1 -32 6 -36 11 -4 6
-26 15 -50 22 l-43 13 80 -75z"/>
<path d="M3526 1781 c-3 -5 -15 -7 -26 -4 -12 3 -20 0 -20 -6 0 -7 6 -9 13 -5
7 4 9 3 4 -2 -9 -9 -12 -10 -49 -14 -20 -1 -19 -3 7 -11 26 -7 34 -5 60 21 16
17 27 30 23 30 -4 0 -9 -4 -12 -9z"/>
<path d="M3502 1718 c-39 -39 -72 -75 -72 -81 0 -6 6 -3 13 8 8 10 19 15 25
11 8 -4 12 0 12 12 0 23 22 44 35 34 6 -4 11 -22 12 -39 2 -33 -3 -37 -41 -33
-32 3 -7 -17 30 -24 19 -4 42 -10 50 -13 11 -4 14 8 14 66 0 41 -4 71 -10 71
-5 0 -10 -4 -10 -9 0 -5 -12 -8 -27 -8 l-27 0 23 18 c13 10 27 17 31 14 8 -5
25 33 18 40 -2 2 -36 -28 -76 -67z"/>
<path d="M3600 1697 c0 -97 10 -139 44 -180 13 -17 17 -16 58 29 23 25 43 52
43 58 1 20 -108 148 -115 135 -5 -7 -10 -8 -14 -1 -3 6 0 12 6 15 10 3 8 9 -4
23 -17 17 -18 14 -18 -79z"/>
<path d="M3890 1756 c-14 -18 -45 -60 -70 -92 l-44 -59 -7 -110 -6 -110 -1
100 -2 100 -47 -47 -46 -47 42 -55 c24 -31 49 -56 55 -56 6 0 30 24 53 54 l41
54 -39 38 c-21 21 -39 43 -39 48 0 6 19 -9 43 -32 l42 -42 30 38 c29 36 30 40
30 145 0 59 -2 107 -5 107 -3 0 -16 -16 -30 -34z"/>
<path d="M4515 1737 c-11 -7 -42 -21 -68 -31 l-48 -18 38 -33 c21 -18 43 -34
48 -36 6 -2 20 -15 32 -30 27 -31 69 -43 78 -22 8 22 -4 34 -23 24 -26 -14
-72 30 -72 69 0 16 -4 30 -9 30 -14 0 -32 -26 -23 -35 4 -4 -3 -2 -15 4 -25
13 -29 26 -11 37 8 5 9 2 5 -9 -9 -23 6 -21 29 4 10 11 26 18 36 16 10 -3 18
0 18 7 0 7 10 18 23 24 21 10 21 11 2 11 -11 1 -29 -5 -40 -12z"/>
<path d="M2971 1706 c-12 -19 -48 -60 -79 -90 -48 -47 -62 -68 -80 -124 -12
-38 -22 -72 -22 -76 0 -4 14 3 31 15 28 20 30 24 15 34 -15 11 -15 15 -1 41 8
16 15 34 15 40 0 6 6 11 13 11 8 0 13 -10 11 -21 -1 -12 -7 -20 -13 -18 -8 2
-10 -5 -6 -20 5 -18 4 -20 -4 -8 -9 13 -11 13 -11 -2 0 -38 20 -26 199 126 44
38 81 71 81 72 0 4 -80 40 -108 48 -15 5 -25 -1 -41 -28z m6 -123 c-26 -26
-26 -26 -20 -3 4 16 3 21 -5 16 -7 -4 -12 -2 -12 3 0 14 13 14 28 -1 9 -9 13
-7 18 6 4 9 9 14 12 11 3 -3 -6 -18 -21 -32z"/>
<path d="M4570 1725 c0 -5 5 -17 10 -25 5 -8 10 -10 10 -5 0 6 -5 17 -10 25
-5 8 -10 11 -10 5z"/>
<path d="M3455 1710 c-4 -6 -11 -8 -16 -5 -5 4 -9 -2 -9 -11 0 -16 1 -16 20 1
11 10 20 20 20 22 0 7 -9 3 -15 -7z"/>
<path d="M3500 1676 c0 -8 4 -17 9 -20 5 -4 7 3 4 14 -6 23 -13 26 -13 6z"/>
<path d="M4600 1673 c0 -6 7 -19 16 -27 8 -9 12 -16 7 -16 -4 0 0 -5 10 -11 9
-5 17 -17 17 -24 0 -18 16 -20 26 -4 3 6 -12 30 -35 52 -22 23 -41 36 -41 30z"/>
<path d="M3118 1661 c-1 -4 -39 -38 -83 -75 -44 -36 -96 -79 -115 -96 -19 -16
-56 -46 -82 -66 -27 -20 -48 -38 -48 -40 0 -1 15 1 33 6 17 5 68 14 112 21 78
11 82 13 139 68 73 70 89 104 74 155 -11 35 -23 46 -30 27z m-158 -165 c0 -2
-8 -10 -17 -17 -16 -13 -17 -12 -4 4 13 16 21 21 21 13z"/>
<path d="M3160 1655 c0 -8 5 -15 10 -15 6 0 10 7 10 15 0 8 -4 15 -10 15 -5 0
-10 -7 -10 -15z"/>
<path d="M4384 1647 c14 -57 40 -100 98 -161 55 -59 98 -83 98 -56 0 6 -9 10
-20 10 -11 0 -20 5 -20 11 0 7 10 9 28 5 24 -6 25 -5 10 7 -20 16 -24 32 -5
21 7 -5 6 0 -3 11 -9 11 -10 16 -2 11 6 -4 12 -3 12 1 0 5 -23 26 -51 48 -28
22 -62 50 -75 62 -13 12 -30 21 -37 19 -6 -1 -8 -1 -4 2 10 5 -12 32 -25 32
-6 0 -8 -10 -4 -23z m102 -82 c-2 -6 2 -19 10 -30 12 -16 14 -16 14 -3 0 9 -5
19 -10 21 -6 3 -5 4 2 3 17 -3 21 -27 8 -46 -7 -11 -14 -12 -27 -4 -53 33 -68
104 -17 80 13 -6 22 -16 20 -21z"/>
<path d="M4440 1571 c0 -5 5 -13 10 -16 6 -3 10 -2 10 4 0 5 -4 13 -10 16 -5
3 -10 2 -10 -4z"/>
<path d="M4535 1661 c-3 -5 -1 -12 5 -16 5 -3 10 1 10 9 0 18 -6 21 -15 7z"/>
<path d="M4035 1595 c-56 -15 -79 -26 -77 -36 7 -31 75 -140 82 -132 9 10 82
185 78 188 -2 1 -39 -8 -83 -20z"/>
<path d="M3430 1583 c0 -27 50 -163 59 -163 8 0 81 135 81 148 0 5 -15 12 -32
15 -18 4 -50 11 -70 16 -36 8 -38 8 -38 -16z"/>
<path d="M4120 1579 c0 -6 -16 -44 -35 -86 -19 -42 -34 -77 -32 -79 1 -1 22 0
45 3 l43 6 -7 51 c-4 28 -6 66 -6 84 1 17 -1 32 -3 32 -3 0 -5 -5 -5 -11z"/>
<path d="M4630 1566 c0 -2 7 -9 15 -16 13 -11 14 -10 9 4 -5 14 -24 23 -24 12z"/>
<path d="M4670 1561 c0 -5 7 -11 14 -14 10 -4 13 -1 9 9 -6 15 -23 19 -23 5z"/>
<path d="M4713 1557 c4 -10 7 -21 7 -23 0 -2 5 -4 11 -4 6 0 20 -10 30 -22 17
-20 19 -20 10 -3 -5 11 -22 31 -37 45 -21 20 -26 21 -21 7z"/>
<path d="M3543 1480 l-43 -80 29 0 c20 0 43 13 76 44 l47 44 -27 36 c-15 20
-30 36 -34 36 -3 0 -25 -36 -48 -80z"/>
<path d="M3902 1524 l-24 -36 43 -44 c31 -31 51 -44 71 -44 15 0 28 3 28 7 0
11 -83 153 -89 153 -3 0 -17 -16 -29 -36z"/>
<path d="M4595 1530 c3 -5 8 -10 11 -10 2 0 4 5 4 10 0 6 -5 10 -11 10 -5 0
-7 -4 -4 -10z"/>
<path d="M4675 1520 c-3 -6 1 -7 9 -4 18 7 21 14 7 14 -6 0 -13 -4 -16 -10z"/>
<path d="M2753 1467 c-23 -29 -54 -67 -69 -86 l-27 -33 24 7 c62 19 74 30 97
94 12 35 21 65 19 67 -1 2 -22 -20 -44 -49z m-3 -47 c-6 -11 -13 -20 -16 -20
-2 0 0 9 6 20 6 11 13 20 16 20 2 0 0 -9 -6 -20z"/>
<path d="M3422 1469 c-6 -24 -10 -44 -9 -45 1 -1 15 -4 30 -8 31 -7 31 -2 2
67 l-12 29 -11 -43z"/>
<path d="M4597 1489 c7 -9 10 -19 6 -23 -4 -4 0 -4 8 -1 18 7 51 -26 47 -46
-2 -9 4 -13 15 -11 9 2 17 -1 17 -6 0 -5 10 -12 22 -15 20 -6 -53 65 -106 103
-19 12 -20 12 -9 -1z"/>
<path d="M4650 1491 c0 -4 11 -18 25 -31 14 -13 25 -21 25 -17 0 3 -11 17 -25
31 -14 14 -25 22 -25 17z"/>
<path d="M3618 1439 c-21 -24 -36 -44 -34 -46 5 -5 160 -33 164 -29 2 3 -7 17
-21 33 -14 15 -36 41 -49 57 l-24 28 -36 -43z"/>
<path d="M3822 1424 c-24 -31 -42 -57 -40 -59 3 -3 161 24 165 29 2 1 -16 21
-40 44 l-42 41 -43 -55z"/>
<path d="M4794 1470 c5 -33 18 -60 25 -55 14 8 64 -42 56 -55 -5 -9 -4 -11 3
-6 7 4 12 3 12 -2 0 -6 7 -13 16 -16 9 -3 3 10 -15 31 -69 84 -100 117 -97
103z"/>
<path d="M4716 1441 c-3 -5 1 -14 8 -20 12 -10 13 -8 9 8 -6 23 -9 25 -17 12z"/>
<path d="M4599 1430 c-11 -7 -10 -10 3 -15 24 -10 38 -2 23 12 -7 6 -18 8 -26
3z"/>
<path d="M2925 1393 c-102 -21 -107 -24 -45 -39 l55 -13 35 34 c19 19 32 35
30 34 -3 -1 -36 -8 -75 -16z"/>
<path d="M4090 1401 c-23 -7 -20 -10 38 -37 34 -17 61 -28 59 -25 -2 3 -10 21
-17 39 -15 33 -29 37 -80 23z"/>
<path d="M4765 1400 c3 -5 8 -10 11 -10 2 0 4 5 4 10 0 6 -5 10 -11 10 -5 0
-7 -4 -4 -10z"/>
<path d="M3386 1375 l-17 -26 43 22 c56 28 57 29 21 29 -22 0 -36 -7 -47 -25z"/>
<path d="M3488 1373 c-9 -10 -26 -38 -38 -63 l-22 -45 55 55 c30 30 53 58 50
63 -7 12 -29 8 -45 -10z"/>
<path d="M3990 1383 c0 -9 105 -123 114 -123 2 0 -12 28 -33 63 -25 40 -46 63
-60 65 -11 2 -21 0 -21 -5z"/>
<path d="M4600 1370 c28 -22 46 -25 55 -9 4 6 13 8 21 5 8 -3 14 -1 14 4 0 6
-14 10 -31 10 -17 0 -28 -4 -24 -10 3 -6 -1 -7 -9 -4 -9 3 -13 10 -10 15 3 5
-5 9 -18 9 l-23 0 25 -20z"/>
<path d="M3409 1354 c-41 -22 -48 -31 -58 -71 -10 -37 -9 -48 1 -54 20 -13 30
-6 53 37 12 21 32 56 44 77 27 43 22 45 -40 11z"/>
<path d="M3492 1306 l-77 -76 50 19 c28 10 94 35 148 55 55 21 101 35 104 33
2 -3 -20 -14 -49 -25 -29 -11 -95 -36 -145 -56 -51 -20 -97 -36 -103 -36 -21
0 -8 -28 33 -68 23 -23 47 -42 51 -42 5 0 61 52 124 116 85 86 112 118 101
124 -8 4 -41 11 -73 15 -33 4 -65 9 -73 12 -8 3 -46 -27 -91 -71z"/>
<path d="M3875 1367 c-84 -13 -96 -18 -60 -27 17 -5 88 -31 160 -59 71 -27
130 -49 132 -48 6 7 -134 135 -152 139 -11 3 -47 1 -80 -5z"/>
<path d="M4097 1299 c35 -62 49 -79 62 -73 9 3 24 9 34 12 13 3 17 11 13 26
-3 11 -6 26 -6 33 0 9 -128 83 -144 83 -3 0 16 -36 41 -81z m76 -20 c-6 -6 -9
-19 -6 -28 4 -13 3 -13 -5 -2 -10 14 6 56 17 45 3 -2 0 -9 -6 -15z"/>
<path d="M2684 1336 c-47 -16 -79 -37 -135 -90 -41 -38 -88 -75 -106 -84 -29
-14 -36 -14 -75 1 -67 26 -120 30 -164 15 -51 -17 -58 -32 -16 -36 17 -2 32
-9 32 -15 0 -7 50 -38 110 -70 l109 -57 68 37 c58 31 183 112 183 118 0 1 13
46 30 100 16 55 28 100 27 101 -1 1 -29 -8 -63 -20z"/>
<path d="M2834 1325 c32 -29 41 -32 57 -22 10 6 19 14 19 18 0 3 -26 13 -57
22 l-58 15 39 -33z"/>
<path d="M2780 1293 c5 -62 10 -64 52 -33 l28 20 -39 35 c-21 19 -40 35 -42
35 -2 0 -2 -26 1 -57z"/>
<path d="M4677 1343 c-28 -4 -33 -23 -7 -31 7 -3 10 0 6 7 -4 6 -1 11 8 11 8
0 18 5 21 10 3 6 5 9 3 9 -2 -1 -16 -4 -31 -6z"/>
<path d="M4736 1333 c-6 -14 -5 -15 5 -6 7 7 10 15 7 18 -3 3 -9 -2 -12 -12z"/>
<path d="M3637 1221 c-65 -65 -117 -122 -117 -127 0 -11 225 -175 237 -172 4
1 26 -4 48 -10 44 -13 91 -55 97 -87 2 -13 15 9 35 60 17 44 41 104 52 133 13
34 17 50 9 46 -7 -5 -51 -36 -98 -69 -96 -69 -110 -78 -110 -71 0 2 50 41 111
86 l111 82 -113 115 c-63 63 -121 118 -130 123 -12 7 -41 -17 -132 -109z m130
-173 c-1 -51 -3 -10 -3 92 0 102 2 143 3 93 2 -51 2 -135 0 -185z"/>
<path d="M3907 1218 l113 -113 50 50 c27 27 47 52 42 56 -8 7 -298 119 -309
119 -4 0 43 -51 104 -112z"/>
<path d="M4701 1306 c-9 -10 -8 -15 2 -19 8 -3 13 3 13 14 0 23 0 23 -15 5z"/>
<path d="M4892 1306 c7 -7 19 -11 27 -8 11 4 10 7 -5 13 -29 12 -36 10 -22 -5z"/>
<path d="M2734 1241 l-21 -69 29 21 c22 16 28 29 28 56 0 67 -15 63 -36 -8z"/>
<path d="M4800 1290 c0 -8 5 -22 10 -30 9 -13 10 -13 10 0 0 8 -5 22 -10 30
-9 13 -10 13 -10 0z"/>
<path d="M4946 1285 c4 -8 10 -15 14 -15 4 0 11 -7 14 -16 4 -10 2 -13 -6 -8
-8 5 -9 2 -5 -9 4 -11 -1 -20 -14 -28 -20 -10 -22 -29 -4 -32 22 -2 33 -22 23
-41 -9 -16 -7 -18 6 -13 10 4 15 3 11 -3 -10 -16 -22 -12 -52 20 -15 17 -34
30 -41 30 -8 0 -28 10 -45 22 l-32 22 19 -22 c10 -12 28 -24 39 -28 11 -4 36
-21 54 -39 40 -39 161 -105 186 -101 9 1 23 8 30 15 10 10 6 10 -16 2 -16 -6
-30 -11 -32 -11 -7 0 2 31 13 42 20 20 14 28 -23 28 -26 0 -38 -5 -43 -19 -7
-19 -8 -19 -32 1 -25 21 -25 21 -2 15 15 -3 25 0 29 9 3 8 18 14 34 14 16 0
29 5 29 10 0 6 14 10 30 10 29 0 30 -2 30 -46 0 -32 4 -44 12 -42 8 3 11 20
10 45 -2 23 1 44 7 48 6 3 11 11 11 17 0 7 -5 6 -15 -2 -26 -21 -72 0 -152 70
-79 71 -97 82 -87 55z m115 -102 c13 -16 12 -17 -3 -4 -10 7 -18 15 -18 17 0
8 8 3 21 -13z"/>
<path d="M4774 1235 c8 -8 17 -15 20 -15 3 0 3 7 0 15 -4 8 -13 15 -21 15 -12
0 -12 -2 1 -15z"/>
<path d="M4197 1213 c-12 -12 -7 -22 8 -17 8 4 15 10 15 15 0 11 -14 12 -23 2z"/>
<path d="M3326 1176 c-8 -42 -32 -64 -75 -68 l-34 -3 -1 -57 c-1 -32 -1 -58 0
-58 3 0 154 211 154 216 0 2 -8 4 -19 4 -13 0 -21 -10 -25 -34z"/>
<path d="M4160 1203 c0 -5 14 -24 31 -43 l31 -35 -23 43 c-20 37 -39 55 -39
35z"/>
<path d="M2145 1180 c-13 -5 -14 -9 -5 -9 8 0 24 4 35 9 13 5 14 9 5 9 -8 0
-24 -4 -35 -9z"/>
<path d="M3329 1118 c-29 -40 -63 -87 -76 -104 l-24 -32 130 57 131 56 -47 47
c-26 27 -50 48 -54 48 -4 0 -31 -33 -60 -72z"/>
<path d="M4081 1144 c-24 -25 -42 -47 -40 -49 3 -2 42 -20 89 -39 94 -40 126
-40 108 -1 -6 14 -16 21 -24 18 -10 -3 -12 0 -8 10 6 17 -54 106 -71 106 -5 1
-30 -20 -54 -45z"/>
<path d="M4215 1169 c4 -12 8 -31 9 -44 2 -12 22 -48 44 -80 l42 -58 0 61 c0
59 -1 62 -25 62 -19 0 -29 10 -45 40 -22 43 -36 53 -25 19z"/>
<path d="M5300 1169 c35 -16 41 -22 30 -29 -8 -5 -10 -10 -4 -10 5 0 19 7 30
15 16 13 16 14 2 9 -10 -3 -18 -2 -18 3 0 5 -15 14 -33 21 -52 19 -57 14 -7
-9z"/>
<path d="M5378 1183 c7 -3 16 -2 19 1 4 3 -2 6 -13 5 -11 0 -14 -3 -6 -6z"/>
<path d="M5228 1173 c7 -3 16 -2 19 1 4 3 -2 6 -13 5 -11 0 -14 -3 -6 -6z"/>
<path d="M2076 1110 c-9 -22 -16 -47 -16 -55 0 -8 -9 -23 -20 -32 -24 -21 -26
-49 -5 -57 11 -4 15 1 15 19 0 25 14 33 25 15 3 -5 20 -10 36 -10 24 0 30 -4
27 -17 -2 -13 -14 -19 -41 -21 -38 -3 -49 -15 -22 -26 8 -3 15 -13 15 -23 0
-15 1 -15 13 -1 15 19 67 33 67 18 0 -6 -15 -17 -32 -25 -27 -11 -30 -15 -15
-20 14 -6 15 -10 5 -23 -11 -13 -9 -15 15 -10 15 3 30 1 33 -3 9 -15 71 -10
84 6 12 14 5 55 -10 55 -4 0 -10 -7 -14 -15 -6 -16 -36 -21 -36 -6 0 5 10 15
21 23 l21 14 -37 73 c-27 54 -39 71 -48 62 -6 -6 -21 -11 -34 -11 -13 0 -23
-4 -23 -10 0 -5 5 -10 12 -10 6 0 8 -3 5 -6 -4 -4 -13 -2 -20 4 -8 7 -16 11
-18 9 -2 -1 1 3 8 9 6 5 19 30 29 53 14 36 15 44 3 52 -22 14 -26 11 -43 -31z"/>
<path d="M5330 1100 c0 -5 5 -10 11 -10 5 0 7 5 4 10 -3 6 -8 10 -11 10 -2 0
-4 -4 -4 -10z"/>
<path d="M2198 1084 c-14 -15 -12 -23 30 -103 24 -47 51 -91 58 -97 8 -6 14
-17 14 -23 0 -17 39 -91 48 -90 4 0 62 28 129 62 l123 62 -74 41 c-69 39 -75
40 -105 28 -34 -14 -44 -3 -10 12 18 8 7 17 -85 67 -58 31 -107 57 -109 57 -1
0 -10 -7 -19 -16z"/>
<path d="M3133 1044 c32 -31 55 -59 52 -62 -2 -3 -32 20 -64 51 -54 52 -63 57
-103 56 -64 -1 -209 -23 -208 -31 0 -5 0 -32 0 -62 0 -40 4 -55 16 -60 14 -5
333 29 362 39 8 3 12 25 12 65 l0 60 -62 0 -63 0 58 -56z"/>
<path d="M4330 1043 l0 -57 55 54 c30 30 55 55 55 56 0 0 -25 2 -55 3 l-55 2
0 -58z m64 32 c-4 -8 -13 -15 -21 -15 -8 0 -11 -5 -7 -12 4 -7 3 -8 -4 -4 -7
4 -12 14 -12 22 0 8 4 13 9 9 5 -3 12 -1 16 5 10 16 25 12 19 -5z"/>
<path d="M5220 1090 c-8 -5 -10 -10 -5 -10 6 0 17 5 25 10 8 5 11 10 5 10 -5
0 -17 -5 -25 -10z"/>
<path d="M4400 1029 c-54 -51 -61 -61 -40 -58 14 2 30 1 35 -3 6 -3 48 -8 95
-12 47 -4 111 -12 144 -17 42 -7 62 -7 70 1 8 8 7 13 -4 20 -10 6 -11 10 -3
10 7 0 10 6 7 14 -3 8 -1 17 5 21 6 3 11 19 11 35 0 27 -3 28 -63 39 -35 6
-93 11 -128 11 l-64 -1 -65 -60z m80 48 c0 -2 -10 -12 -22 -23 l-23 -19 19 23
c18 21 26 27 26 19z m110 -2 c0 -2 -9 -9 -20 -15 -16 -9 -20 -8 -20 5 0 8 9
15 20 15 11 0 20 -2 20 -5z m83 -12 c-23 -9 -14 -25 10 -17 22 7 22 6 4 -14
-11 -11 -25 -18 -32 -16 -19 8 -41 -36 -24 -47 27 -16 -1 -21 -33 -6 -18 9
-27 17 -20 17 6 0 12 11 12 25 0 14 4 25 8 25 5 0 19 9 32 20 13 11 30 20 39
19 10 0 12 -2 4 -6z m-198 -32 c-3 -6 -11 -11 -16 -11 -5 0 -4 6 3 14 14 16
24 13 13 -3z m192 -83 c-3 -7 -5 -2 -5 12 0 14 2 19 5 13 2 -7 2 -19 0 -25z"/>
<path d="M5266 1075 c-11 -8 -15 -15 -9 -15 6 0 16 7 23 15 16 19 11 19 -14 0z"/>
<path d="M3358 1023 c-71 -31 -128 -60 -128 -65 0 -4 12 -27 26 -49 28 -45 18
-43 151 -23 35 5 54 1 108 -26 36 -18 69 -30 72 -26 8 7 -81 239 -93 242 -5 1
-66 -23 -136 -53z"/>
<path d="M4015 1048 c-7 -18 -33 -84 -58 -145 l-45 -113 56 5 c32 3 99 11 150
17 l93 11 40 58 c55 81 55 83 12 98 -37 13 -138 58 -197 87 -38 18 -35 19 -51
-18z"/>
<path d="M3524 1055 c4 -11 16 -42 26 -70 10 -27 29 -74 42 -103 l24 -53 59
31 c33 17 63 35 68 39 4 4 -23 29 -60 56 -38 27 -90 65 -117 84 -39 28 -48 31
-42 16z"/>
<path d="M4736 1009 c-8 -69 2 -89 43 -89 25 1 25 1 -6 15 -18 8 -33 16 -33
19 0 3 5 28 11 57 8 36 14 47 20 38 7 -11 9 -10 9 4 0 10 -7 17 -19 17 -15 0
-20 -11 -25 -61z"/>
<path d="M5373 1059 c13 -8 17 -18 13 -35 -4 -13 -2 -24 3 -24 5 0 11 9 14 19
5 19 -20 51 -39 51 -5 0 -1 -5 9 -11z"/>
<path d="M2711 1051 c-30 -5 -36 -12 -52 -56 -30 -86 -30 -86 54 -79 39 4 75
9 78 13 4 3 4 34 2 69 -6 68 -5 67 -82 53z"/>
<path d="M4792 1043 c2 -9 10 -18 18 -20 13 -4 13 -3 0 6 -13 10 -13 12 0 21
13 8 12 10 -3 10 -12 0 -17 -6 -15 -17z"/>
<path d="M4833 1043 c1 -10 5 -22 9 -28 3 -5 2 -19 -2 -30 -5 -13 0 -25 14
-38 21 -18 21 -18 -11 -13 -18 3 -33 2 -33 -3 0 -9 69 -25 76 -18 8 7 -15 57
-26 57 -5 0 -10 5 -10 11 0 5 4 8 9 5 4 -3 3 12 -3 34 -10 39 -28 57 -23 23z"/>
<path d="M4875 1036 c3 -9 8 -24 12 -33 8 -23 10 -30 12 -45 4 -40 18 -41 90
-8 39 18 71 36 71 40 0 4 -10 10 -22 14 -36 9 -43 7 -23 -7 12 -10 14 -16 7
-21 -7 -4 -12 -2 -12 3 0 6 -5 11 -11 11 -6 0 -9 -6 -7 -12 3 -7 -7 -18 -20
-26 -21 -10 -27 -10 -34 0 -5 9 -8 7 -9 -7 l0 -20 -8 20 c-9 21 6 38 23 28 5
-3 6 -1 2 5 -4 6 -13 9 -21 5 -9 -3 -15 1 -15 11 0 9 -4 16 -10 16 -5 0 -10 5
-10 11 0 6 9 9 20 6 11 -3 23 -1 26 4 3 5 -1 9 -8 9 -7 0 -23 3 -36 6 -17 5
-21 3 -17 -10z"/>
<path d="M2550 1011 l-85 -28 74 -37 c40 -20 74 -36 76 -34 4 4 35 110 35 120
0 11 -5 10 -100 -21z"/>
<path d="M5339 1018 c-12 -22 -11 -22 7 -8 10 8 20 15 22 16 2 1 -1 5 -7 8 -5
4 -15 -4 -22 -16z"/>
<path d="M4242 1021 c-9 -5 -5 -11 14 -20 33 -15 40 -10 16 12 -10 9 -23 13
-30 8z"/>
<path d="M4958 1013 c6 -2 18 -2 25 0 6 3 1 5 -13 5 -14 0 -19 -2 -12 -5z"/>
<path d="M5132 1002 c-8 -6 -1 -13 23 -25 20 -9 41 -17 48 -17 7 1 -3 7 -21
15 -18 8 -31 19 -27 25 7 12 -5 13 -23 2z"/>
<path d="M4781 974 c0 -11 3 -14 6 -6 3 7 2 16 -1 19 -3 4 -6 -2 -5 -13z"/>
<path d="M5093 973 c9 -2 17 -8 17 -13 0 -4 9 -10 20 -13 11 -3 20 -2 20 2 0
10 -47 31 -63 30 -7 -1 -4 -3 6 -6z"/>
<path d="M3179 956 c-2 -2 -74 -12 -159 -21 -173 -18 -200 -25 -200 -55 0 -18
7 -20 88 -21 48 -1 101 -4 117 -8 26 -6 37 -1 88 42 32 27 60 47 63 45 3 -3
-18 -25 -46 -49 l-52 -44 43 -12 c23 -7 43 -12 44 -10 10 17 30 117 23 117 -5
0 -6 5 -3 10 6 10 2 14 -6 6z"/>
<path d="M5018 942 c-21 -10 -38 -20 -38 -23 0 -12 44 -18 59 -8 12 8 10 8 -9
3 -22 -5 -21 -3 9 20 39 29 33 32 -21 8z"/>
<path d="M4386 920 l32 -32 83 19 84 20 -75 7 c-41 4 -93 10 -115 13 l-40 5
31 -32z"/>
<path d="M5256 933 c-6 -14 -5 -15 5 -6 7 7 10 15 7 18 -3 3 -9 -2 -12 -12z"/>
<path d="M2030 931 c0 -6 4 -13 10 -16 6 -3 7 1 4 9 -7 18 -14 21 -14 7z"/>
<path d="M3201 904 c-28 -107 -27 -109 12 -70 13 12 29 25 37 28 10 3 7 13
-13 42 l-26 39 -10 -39z"/>
<path d="M4277 886 c-29 -44 -34 -56 -20 -52 10 3 30 8 46 12 28 6 30 14 18
68 l-6 29 -38 -57z"/>
<path d="M4342 901 c8 -32 13 -38 28 -33 27 10 25 19 -9 47 l-29 25 10 -39z"/>
<path d="M2721 899 c-84 -11 -83 -9 -52 -46 l27 -33 53 18 c29 10 52 21 52 25
-1 4 -1 16 -1 27 0 11 -3 19 -7 19 -5 -1 -37 -5 -72 -10z"/>
<path d="M4942 901 c-11 -7 -11 -9 0 -14 9 -3 15 1 15 9 0 8 -1 14 -1 14 -1 0
-7 -4 -14 -9z"/>
<path d="M4496 883 l-50 -15 55 -48 c54 -49 88 -68 54 -30 -17 18 -14 25 9 21
11 -2 26 19 26 37 0 6 -9 12 -19 12 -41 0 -31 20 11 22 24 1 52 2 63 3 24 1
33 -17 34 -70 2 -58 21 -23 21 38 l0 47 -77 -1 c-43 0 -100 -7 -127 -16z m31
-19 c-3 -3 -12 -4 -19 -1 -8 3 -5 6 6 6 11 1 17 -2 13 -5z m3 -34 c0 -5 -2
-10 -4 -10 -3 0 -8 5 -11 10 -3 6 -1 10 4 10 6 0 11 -4 11 -10z"/>
<path d="M4825 885 c30 -8 53 -11 59 -5 5 5 1 9 -10 8 -10 0 -37 2 -59 5 -35
6 -34 5 10 -8z"/>
<path d="M5068 893 c7 -3 16 -2 19 1 4 3 -2 6 -13 5 -11 0 -14 -3 -6 -6z"/>
<path d="M3818 853 c16 -21 39 -46 51 -57 20 -18 20 -18 11 15 -10 37 -51 79
-76 79 -12 0 -8 -10 14 -37z"/>
<path d="M4735 881 c11 -5 20 -14 20 -22 0 -10 11 -13 35 -11 42 3 22 -12 -27
-21 -31 -6 -32 -5 -23 18 7 19 6 25 -4 25 -12 0 -26 -65 -26 -127 0 -35 28
-21 86 43 51 56 64 76 47 72 -5 0 -15 1 -23 4 -72 25 -138 39 -85 19z m71 -66
c-23 -17 -36 -19 -36 -6 0 5 10 12 23 14 12 2 24 5 27 5 3 1 -4 -5 -14 -13z"/>
<path d="M4982 876 c12 -11 135 -76 146 -76 13 0 -52 43 -85 56 -21 8 -28 12
-15 10 13 -3 22 0 20 6 -2 6 -21 12 -41 14 -30 2 -35 1 -25 -10z"/>
<path d="M2580 870 c-8 -5 -60 -32 -115 -61 l-99 -53 169 -37 c94 -21 187 -40
207 -42 21 -2 41 -6 45 -10 19 -19 23 -4 4 17 -12 13 -31 22 -44 21 -12 -1
-14 0 -4 2 23 6 22 8 -19 53 -33 35 -38 38 -65 28 -41 -14 -49 -2 -9 14 l33
14 -37 32 c-39 34 -43 36 -66 22z m90 -110 c0 -5 -2 -10 -4 -10 -3 0 -8 5 -11
10 -3 6 -1 10 4 10 6 0 11 -4 11 -10z"/>
<path d="M3726 853 c-62 -70 -76 -89 -76 -103 0 -26 57 -162 71 -171 35 -22
38 -12 42 144 l3 152 2 -151 c2 -139 4 -152 21 -157 16 -4 25 10 55 87 20 50
36 96 36 101 0 17 -101 125 -116 125 -8 0 -25 -12 -38 -27z"/>
<path d="M5237 824 c-15 -31 -25 -59 -22 -62 2 -3 12 11 20 31 18 43 22 45 35
15 6 -17 9 -18 9 -6 1 9 -4 20 -10 24 -6 3 -8 17 -5 30 9 36 4 29 -27 -32z"/>
<path d="M3371 855 c-18 -8 -42 -15 -52 -15 -33 0 8 -54 57 -74 24 -10 71 -36
105 -59 l62 -42 33 39 c19 22 36 37 39 34 3 -2 -10 -21 -29 -41 l-33 -37 35
-20 c35 -21 102 -51 102 -46 0 10 -54 134 -63 145 -7 7 -12 19 -13 25 0 6 -2
19 -2 29 -2 12 -11 17 -32 17 -17 0 -56 14 -87 30 -63 34 -74 35 -122 15z"/>
<path d="M4903 863 c9 -2 23 -2 30 0 6 3 -1 5 -18 5 -16 0 -22 -2 -12 -5z"/>
<path d="M5204 845 c-8 -13 -14 -32 -12 -42 2 -11 9 -3 20 25 19 47 16 54 -8
17z"/>
<path d="M4383 850 c-13 -5 -23 -13 -23 -17 0 -4 11 -51 25 -103 26 -94 44
-125 56 -92 4 10 0 20 -10 24 -13 6 -12 7 4 5 12 -2 19 -10 19 -20 -2 -20 12
-21 105 -7 35 5 68 15 72 22 7 10 9 10 9 1 0 -7 6 -13 13 -13 6 0 -2 13 -18
28 -116 104 -170 147 -182 146 -8 -1 -12 1 -9 4 8 7 -14 32 -28 31 -6 0 -21
-4 -33 -9z m171 -111 c15 -12 32 -32 36 -45 7 -17 14 -22 26 -17 12 4 15 3 10
-6 -4 -6 -16 -9 -27 -6 -11 4 -19 2 -19 -4 0 -6 -15 -11 -32 -10 -18 0 -27 3
-20 6 17 7 15 43 -2 43 -17 0 -28 24 -20 45 8 20 16 19 48 -6z"/>
<path d="M4970 841 c14 -11 31 -21 39 -21 18 0 14 4 -29 24 l-35 17 25 -20z"/>
<path d="M3236 824 c-9 -8 -14 -19 -11 -24 4 -7 85 -20 85 -13 0 1 -5 14 -12
28 -13 28 -39 32 -62 9z"/>
<path d="M3653 821 c-25 -12 -30 -20 -23 -31 8 -13 14 -11 37 12 33 33 28 39
-14 19z"/>
<path d="M4824 783 c-27 -32 -62 -73 -79 -92 -24 -27 -26 -32 -9 -23 12 6 24
19 28 27 3 9 10 14 15 11 5 -3 8 2 7 12 0 9 5 16 12 15 6 -2 12 4 12 13 0 14
3 14 15 4 13 -11 14 -10 9 6 -7 18 -7 18 13 1 17 -15 23 -16 29 -5 4 7 4 10
-1 6 -9 -9 -35 9 -35 24 0 6 8 4 18 -3 14 -11 15 -11 5 1 -17 19 -17 35 0 22
10 -9 17 -6 29 8 15 16 15 19 1 24 -8 3 -16 6 -17 6 -1 0 -24 -26 -52 -57z
m66 43 c0 -2 -7 -7 -16 -10 -8 -3 -12 -2 -9 4 6 10 25 14 25 6z"/>
<path d="M2281 798 c2 -69 15 -133 26 -131 7 2 10 -3 8 -10 -7 -17 53 -79 68
-71 7 4 9 4 5 -1 -21 -23 78 -70 189 -91 81 -15 423 -31 483 -23 23 4 20 7
-30 40 -100 67 -185 116 -220 128 -51 17 -387 92 -441 98 -44 5 -46 7 -58 49
-15 52 -31 58 -30 12z m64 -158 c3 -5 1 -10 -4 -10 -6 0 -11 5 -11 10 0 6 2
10 4 10 3 0 8 -4 11 -10z m541 -52 c4 -7 3 -8 -4 -4 -7 4 -12 2 -12 -5 0 -7
-3 -10 -6 -6 -6 5 3 27 11 27 2 0 7 -5 11 -12z m150 -93 c17 -13 16 -14 -13
-4 -34 11 -42 19 -20 19 7 0 22 -7 33 -15z"/>
<path d="M2758 816 l-47 -9 47 -58 c46 -56 76 -81 66 -55 -3 7 -8 39 -12 72
l-7 59 -47 -9z m22 -21 c11 -13 9 -15 -11 -11 -13 3 -26 5 -29 5 -4 1 21 20
26 21 1 0 7 -7 14 -15z m19 -49 c9 -11 9 -16 -1 -22 -7 -4 -10 -4 -6 1 4 4 0
14 -10 21 -9 7 -12 14 -6 14 6 0 17 -6 23 -14z"/>
<path d="M2834 778 c3 -29 6 -67 6 -85 l0 -32 28 26 c15 14 26 29 25 33 -1 4
4 7 11 6 15 -1 116 82 116 96 0 4 -43 8 -96 8 l-97 0 7 -52z"/>
<path d="M4263 813 c-29 -9 -53 -19 -53 -24 0 -7 -51 -88 -106 -168 -13 -19
-22 -36 -21 -38 6 -5 297 34 304 41 3 3 -2 16 -13 28 -10 12 -13 18 -6 14 9
-6 11 -2 7 16 -3 12 -11 50 -18 83 -8 37 -19 61 -28 62 -8 1 -38 -5 -66 -14z"/>
<path d="M2952 738 c-51 -46 -87 -84 -80 -86 48 -9 225 -29 234 -25 11 4 59
171 51 179 -1 2 -28 6 -58 9 l-54 5 -93 -82z"/>
<path d="M5040 806 c0 -2 7 -7 16 -10 8 -3 12 -2 9 4 -6 10 -25 14 -25 6z"/>
<path d="M3156 715 c-10 -47 -16 -88 -13 -92 6 -6 107 -21 250 -38 l57 -6 -57
89 -58 90 -60 5 c-37 3 -63 11 -71 21 -21 29 -29 17 -48 -69z"/>
<path d="M4095 784 c-49 -7 -114 -13 -142 -13 -29 -1 -53 -4 -53 -7 0 -3 34
-44 77 -90 72 -79 102 -103 89 -69 -3 8 -1 14 4 12 7 -2 45 51 112 156 10 15
14 26 10 26 -4 -1 -47 -8 -97 -15z"/>
<path d="M5154 785 c11 -8 22 -12 25 -9 6 6 -19 24 -34 24 -5 -1 -1 -7 9 -15z"/>
<path d="M4661 774 c0 -11 3 -14 6 -6 3 7 2 16 -1 19 -3 4 -6 -2 -5 -13z"/>
<path d="M4681 760 c-7 -46 -7 -60 1 -52 5 5 8 22 5 38 -2 16 -5 22 -6 14z"/>
<path d="M3361 743 c10 -21 103 -153 109 -153 3 0 19 13 34 29 l27 28 -63 40
c-81 51 -111 67 -107 56z"/>
<path d="M3861 657 c-17 -46 -31 -87 -31 -91 0 -7 200 2 208 9 4 4 -25 39 -85
104 -24 25 -43 49 -43 54 0 4 -4 7 -9 7 -4 0 -22 -37 -40 -83z"/>
<path d="M4923 723 c-24 -2 -43 -9 -43 -14 0 -11 70 -1 85 12 5 5 7 8 5 7 -3
-1 -24 -3 -47 -5z"/>
<path d="M4630 716 c0 -2 8 -10 18 -17 15 -13 16 -12 3 4 -13 16 -21 21 -21
13z"/>
<path d="M4706 694 c-9 -24 -2 -26 12 -4 7 11 8 20 3 20 -5 0 -12 -7 -15 -16z"/>
<path d="M4840 700 c-13 -8 -12 -10 3 -10 9 0 17 5 17 10 0 12 -1 12 -20 0z"/>
<path d="M5036 695 c4 -8 11 -15 16 -15 6 0 5 6 -2 15 -7 8 -14 15 -16 15 -2
0 -1 -7 2 -15z"/>
<path d="M4908 673 c7 -3 16 -2 19 1 4 3 -2 6 -13 5 -11 0 -14 -3 -6 -6z"/>
<path d="M4773 653 c-13 -2 -23 -9 -23 -14 0 -13 13 -11 36 6 10 8 17 14 14
13 -3 0 -15 -3 -27 -5z"/>
<path d="M5048 653 c7 -3 16 -2 19 1 4 3 -2 6 -13 5 -11 0 -14 -3 -6 -6z"/>
<path d="M3512 610 c-12 -16 -22 -33 -22 -37 0 -7 241 -133 254 -133 2 0 -6
27 -18 60 l-22 60 -83 40 c-45 22 -84 40 -85 40 -1 0 -12 -13 -24 -30z"/>
<path d="M2908 611 c18 -12 38 -18 44 -15 7 4 8 2 4 -4 -8 -14 30 -36 46 -26
7 4 8 3 4 -4 -6 -10 71 -59 79 -50 7 7 24 82 20 88 -2 4 -40 10 -85 14 -44 3
-94 9 -112 12 l-33 6 33 -21z"/>
<path d="M4610 623 c-8 -3 -23 -12 -32 -20 -9 -8 -25 -13 -35 -10 -14 4 -14 5
5 6 12 0 22 6 22 12 0 8 -11 9 -31 5 -17 -3 -48 -6 -69 -6 -41 0 -52 -14 -43
-49 9 -36 63 -27 145 24 66 41 78 52 38 38z m-90 -53 c-8 -5 -19 -10 -25 -10
-5 0 -3 5 5 10 8 5 20 10 25 10 6 0 3 -5 -5 -10z"/>
<path d="M4680 610 c20 -13 33 -13 25 0 -3 6 -14 10 -23 10 -15 0 -15 -2 -2
-10z"/>
<path d="M5158 603 c7 -3 16 -2 19 1 4 3 -2 6 -13 5 -11 0 -14 -3 -6 -6z"/>
<path d="M3127 593 c-4 -6 -9 -29 -13 -51 l-7 -42 34 7 c19 3 88 18 153 33
l119 26 -99 12 c-54 7 -118 15 -140 18 -23 3 -44 2 -47 -3z"/>
<path d="M4300 589 c-36 -4 -90 -11 -120 -15 l-55 -7 40 -9 c22 -4 87 -10 144
-13 l104 -6 -7 23 c-3 13 -6 26 -6 31 0 8 -9 8 -100 -4z"/>
<path d="M4614 584 c-18 -14 -18 -15 4 -4 12 6 22 13 22 15 0 8 -5 6 -26 -11z"/>
<path d="M3283 521 c-203 -46 -225 -61 -88 -61 113 -1 417 -16 485 -25 41 -5
33 1 -75 54 -66 33 -129 62 -140 64 -11 2 -93 -12 -182 -32z"/>
<path d="M3721 552 c0 -4 9 -25 19 -47 l19 -40 0 41 c1 34 -3 43 -19 47 -11 3
-20 2 -19 -1z"/>
<path d="M4055 550 c-16 -4 -86 -34 -154 -68 l-125 -62 73 0 c84 0 247 31 324
61 39 16 65 19 101 15 70 -8 45 8 -44 27 -41 9 -91 21 -110 25 -19 5 -48 5
-65 2z"/>
<path d="M4560 550 c-13 -8 -13 -10 2 -10 9 0 20 5 23 10 8 13 -5 13 -25 0z"/>
<path d="M3770 513 c1 -39 10 -33 24 15 6 16 3 22 -8 22 -12 0 -16 -10 -16
-37z"/>
<path d="M3813 531 c-3 -9 -12 -31 -20 -50 -7 -19 -12 -35 -10 -37 2 -2 52 21
113 51 l109 55 -93 -1 c-77 -1 -95 -5 -99 -18z"/>
<path d="M4608 543 c7 -3 16 -2 19 1 4 3 -2 6 -13 5 -11 0 -14 -3 -6 -6z"/>
<path d="M4663 543 c15 -2 37 -2 50 0 12 2 0 4 -28 4 -27 0 -38 -2 -22 -4z"/>
<path d="M4888 533 c7 -3 16 -2 19 1 4 3 -2 6 -13 5 -11 0 -14 -3 -6 -6z"/>
</g>
</svg>
